<?xml version="1.0" encoding="UTF-8" standalone="no"?>
<!-- Created with Inkscape (http://www.inkscape.org/) -->

<svg
   width="160mm"
   height="100mm"
   viewBox="0 0 160 100"
   version="1.1"
   id="svg1"
   inkscape:version="1.3.2 (091e20e, 2023-11-25, custom)"
   sodipodi:docname="GETitDigital_Titel_allgemein.svg"
   inkscape:export-filename="GETitDigital_Titel_allgemein.png"
   inkscape:export-xdpi="317.5"
   inkscape:export-ydpi="317.5"
   xmlns:inkscape="http://www.inkscape.org/namespaces/inkscape"
   xmlns:sodipodi="http://sodipodi.sourceforge.net/DTD/sodipodi-0.dtd"
   xmlns="http://www.w3.org/2000/svg"
   xmlns:svg="http://www.w3.org/2000/svg">
  <style
     id="style3">
.measure-arrow
{
}
.measure-label
{

}
.measure-line
{
}</style>
  <sodipodi:namedview
     id="namedview1"
     pagecolor="#ffffff"
     bordercolor="#000000"
     borderopacity="0.25"
     inkscape:showpageshadow="2"
     inkscape:pageopacity="0.0"
     inkscape:pagecheckerboard="0"
     inkscape:deskcolor="#d1d1d1"
     inkscape:document-units="mm"
     inkscape:zoom="2.0000001"
     inkscape:cx="354.74998"
     inkscape:cy="234.99999"
     inkscape:window-width="2688"
     inkscape:window-height="1388"
     inkscape:window-x="-12"
     inkscape:window-y="-12"
     inkscape:window-maximized="1"
     inkscape:current-layer="layer1"
     showguides="true">
    <sodipodi:guide
       position="25.958552,22.264658"
       orientation="0,-1"
       id="guide14"
       inkscape:locked="false" />
  </sodipodi:namedview>
  <defs
     id="defs1">
    <inkscape:path-effect
       effect="fillet_chamfer"
       id="path-effect4"
       is_visible="true"
       lpeversion="1"
       nodesatellites_param="F,0,0,1,0,0.75,0,1 @ F,0,0,1,0,0.75,0,1 @ F,0,0,1,0,0.75,0,1 @ F,0,0,1,0,0.75,0,1 | F,0,0,1,0,0.75,0,1 @ F,0,0,1,0,0.75,0,1 @ F,0,0,1,0,0.75,0,1 @ F,0,0,1,0,0.75,0,1 | F,0,0,1,0,0.75,0,1 @ F,0,0,1,0,0.75,0,1 @ F,0,0,1,0,0.75,0,1 @ F,0,0,1,0,0.75,0,1"
       radius="0.75"
       unit="mm"
       method="auto"
       mode="F"
       chamfer_steps="1"
       flexible="false"
       use_knot_distance="true"
       apply_no_radius="true"
       apply_with_radius="true"
       only_selected="false"
       hide_knots="false" />
    <inkscape:path-effect
       effect="tiling"
       id="path-effect8"
       is_visible="true"
       lpeversion="1"
       unit="px"
       seed="1;1"
       lpesatellites=""
       num_rows="1"
       num_cols="3"
       gapx="-10"
       gapy="0"
       offset="0"
       offset_type="false"
       scale="0"
       rotate="0"
       mirrorrowsx="false"
       mirrorrowsy="false"
       mirrorcolsx="false"
       mirrorcolsy="false"
       mirrortrans="false"
       shrink_interp="false"
       split_items="false"
       link_styles="false"
       interpolate_scalex="false"
       interpolate_scaley="true"
       interpolate_rotatex="false"
       interpolate_rotatey="true"
       random_scale="false"
       random_rotate="false"
       random_gap_y="false"
       random_gap_x="false"
       transformorigin="" />
    <inkscape:path-effect
       effect="perspective-envelope"
       up_left_point="7.6100244,54.755791"
       up_right_point="10,54.755791"
       down_left_point="7.6100244,83.805984"
       down_right_point="11.658301,83.805984"
       id="path-effect7"
       is_visible="true"
       lpeversion="1"
       deform_type="envelope_deformation"
       horizontal_mirror="false"
       vertical_mirror="false"
       overflow_perspective="false" />
    <inkscape:path-effect
       effect="dashed_stroke"
       id="path-effect6"
       is_visible="true"
       lpeversion="1"
       numberdashes="4"
       holefactor="0.4"
       splitsegments="false"
       halfextreme="true"
       unifysegment="true"
       message="Eine Füllung kann mit dem &lt;b&gt;Zwischen vielen füllen&lt;/b&gt;-Pfadeffekt hinzugefügt werden." />
    <inkscape:path-effect
       effect="measure_segments"
       linked_items=""
       id="path-effect3"
       is_visible="true"
       lpeversion="1"
       unit="mm"
       orientation="parallel"
       coloropacity="#000000ff"
       fontbutton="Sans 10"
       precision="2"
       fix_overlaps="0"
       position="5"
       text_top_bottom="0"
       helpline_distance="0"
       helpline_overlap="2"
       line_width="0.25"
       scale="1"
       format="{measure}{unit}"
       blacklist=""
       active_projection="false"
       whitelist="false"
       showindex="false"
       arrows_outside="false"
       flip_side="false"
       scale_sensitive="true"
       local_locale="true"
       rotate_anotation="true"
       hide_back="true"
       hide_arrows="false"
       smallx100="false"
       distance_projection="20"
       angle_projection="0"
       avoid_overlapping="true"
       onbbox="false"
       bboxonly="false"
       centers="false"
       maxmin="false"
       helpdata="&lt;b&gt;&lt;big&gt;Allgemeines&lt;/big&gt;&lt;/b&gt;&#10;Der Effekt zeichnet und positioniert Bemaßungslinien und Beschriftungen.&#10;&#10;&lt;b&gt;&lt;big&gt;Projektion&lt;/big&gt;&lt;/b&gt;&#10;Zeichnet eine Linie mit Bemaßungen für die gewählten Objekte.&#10;&#10;&lt;b&gt;&lt;big&gt;Optionen&lt;/big&gt;&lt;/b&gt;&#10;Optionen für Farbe, Genauigkeit, Formatierung der Beschriftungen und die Anzeige&#10;&#10;&lt;b&gt;&lt;big&gt;Tipps&lt;/big&gt;&lt;/b&gt;&#10;&lt;b&gt;&lt;i&gt;Benutzerdefinierter Stil:&lt;/i&gt;&lt;/b&gt; Um den Stil noch weiter anzupassen, kann der XML-Editor verwendet werden. Dort kann die Klasse oder ID des Objektes bestimmt werden, um dieser dann im Stildialog einen neuen Stil zuzuweisen.&#10;&lt;b&gt;&lt;i&gt;Ausschlussliste:&lt;/i&gt;&lt;/b&gt; Die Liste ermöglicht es, Bemaßungen für einige Segmente oder Projektionsschritte nicht anzuzeigen.&#10;&lt;b&gt;&lt;i&gt;Mehrere Bemaßungs-LPEs:&lt;/i&gt;&lt;/b&gt; Auf dasselbe Objekt angewendet können so mittels Ausschlusslisten unterschiedlich ausgerichtete Beschriftungen oder weitere Projektionen gezeichnet werden.&#10;&lt;b&gt;&lt;i&gt;Standardwerte setzen:&lt;/i&gt;&lt;/b&gt; Unten können für jeden LPE Standardwerte festgelegt werden." />
    <inkscape:path-effect
       effect="offset"
       id="path-effect2"
       is_visible="true"
       lpeversion="1.2"
       linejoin_type="miter"
       unit="mm"
       offset="0.6"
       miter_limit="4"
       attempt_force_join="false"
       update_on_knot_move="true" />
    <inkscape:path-effect
       effect="tiling"
       id="path-effect8-7"
       is_visible="true"
       lpeversion="1"
       unit="px"
       seed="1;1"
       lpesatellites=""
       num_rows="1"
       num_cols="3"
       gapx="-6"
       gapy="0"
       offset="0"
       offset_type="false"
       scale="0"
       rotate="0"
       mirrorrowsx="false"
       mirrorrowsy="false"
       mirrorcolsx="false"
       mirrorcolsy="false"
       mirrortrans="false"
       shrink_interp="false"
       split_items="false"
       link_styles="false"
       interpolate_scalex="false"
       interpolate_scaley="true"
       interpolate_rotatex="false"
       interpolate_rotatey="true"
       random_scale="false"
       random_rotate="false"
       random_gap_y="false"
       random_gap_x="false"
       transformorigin="" />
    <inkscape:path-effect
       effect="tiling"
       id="path-effect8-5"
       is_visible="true"
       lpeversion="1"
       unit="px"
       seed="1;1"
       lpesatellites=""
       num_rows="1"
       num_cols="3"
       gapx="-5"
       gapy="0"
       offset="0"
       offset_type="false"
       scale="0"
       rotate="0"
       mirrorrowsx="false"
       mirrorrowsy="false"
       mirrorcolsx="false"
       mirrorcolsy="false"
       mirrortrans="false"
       shrink_interp="false"
       split_items="false"
       link_styles="false"
       interpolate_scalex="false"
       interpolate_scaley="true"
       interpolate_rotatex="false"
       interpolate_rotatey="true"
       random_scale="false"
       random_rotate="false"
       random_gap_y="false"
       random_gap_x="false"
       transformorigin="" />
    <inkscape:path-effect
       effect="tiling"
       id="path-effect8-2"
       is_visible="true"
       lpeversion="1"
       unit="px"
       seed="1;1"
       lpesatellites=""
       num_rows="1"
       num_cols="3"
       gapx="-5"
       gapy="0"
       offset="0"
       offset_type="false"
       scale="0"
       rotate="0"
       mirrorrowsx="false"
       mirrorrowsy="false"
       mirrorcolsx="false"
       mirrorcolsy="false"
       mirrortrans="false"
       shrink_interp="false"
       split_items="false"
       link_styles="false"
       interpolate_scalex="false"
       interpolate_scaley="true"
       interpolate_rotatex="false"
       interpolate_rotatey="true"
       random_scale="false"
       random_rotate="false"
       random_gap_y="false"
       random_gap_x="false"
       transformorigin="" />
    <inkscape:path-effect
       effect="tiling"
       id="path-effect16"
       is_visible="true"
       lpeversion="1"
       unit="px"
       seed="1;1"
       lpesatellites=""
       num_rows="1"
       num_cols="3"
       gapx="-10"
       gapy="0"
       offset="0"
       offset_type="false"
       scale="0"
       rotate="0"
       mirrorrowsx="false"
       mirrorrowsy="false"
       mirrorcolsx="false"
       mirrorcolsy="false"
       mirrortrans="false"
       shrink_interp="false"
       split_items="false"
       link_styles="false"
       interpolate_scalex="false"
       interpolate_scaley="true"
       interpolate_rotatex="false"
       interpolate_rotatey="true"
       random_scale="false"
       random_rotate="false"
       random_gap_y="false"
       random_gap_x="false"
       transformorigin="" />
    <inkscape:path-effect
       effect="fillet_chamfer"
       id="path-effect18"
       is_visible="true"
       lpeversion="1"
       nodesatellites_param="F,0,0,1,0,0.75,0,1 @ F,0,0,1,0,0.75,0,1 @ F,0,0,1,0,0.75,0,1 @ F,0,0,1,0,0.75,0,1 | F,0,0,1,0,0.75,0,1 @ F,0,0,1,0,0.75,0,1 @ F,0,0,1,0,0.75,0,1 @ F,0,0,1,0,0.75,0,1 | F,0,0,1,0,0.75,0,1 @ F,0,0,1,0,0.75,0,1 @ F,0,0,1,0,0.75,0,1 @ F,0,0,1,0,0.75,0,1"
       radius="0.75"
       unit="mm"
       method="auto"
       mode="F"
       chamfer_steps="1"
       flexible="false"
       use_knot_distance="true"
       apply_no_radius="true"
       apply_with_radius="true"
       only_selected="false"
       hide_knots="false" />
  </defs>
  <g
     inkscape:label="Ebene 1"
     inkscape:groupmode="layer"
     id="layer1"
     style="display:inline">
    <rect
       style="fill:#19b991;fill-opacity:1;stroke:none;stroke-width:2;stroke-linecap:round;stroke-linejoin:round"
       id="rect1"
       width="160"
       height="92.801819"
       x="0"
       y="-0.41250068" />
  </g>
  <g
     inkscape:groupmode="layer"
     id="layer2"
     inkscape:label="Ebene 2"
     style="display:inline">
    <path
       id="path3"
       d="m 19.343478,68.932521 c 0,-0.0542 -0.03625,-0.216766 -0.198722,-0.216766 h -3.450179 c -0.126449,0 -0.252901,0.03625 -0.252901,0.234814 v 1.192206 c 0,0.1084 0.09032,0.180632 0.198719,0.180632 h 1.408973 v 2.149588 c -0.144499,0.108401 -1.282526,0.198721 -1.535419,0.198721 -2.817948,0 -3.739201,-1.770247 -3.739201,-4.353364 0,-2.510859 0.903191,-4.31724 3.648881,-4.31724 1.427035,0 2.11346,0.34322 3.106966,1.282531 0.05419,0.03625 0.09032,0.05421 0.144498,0.05421 0.09032,0 0.180634,-0.05421 0.198676,-0.216768 l 0.307085,-1.716054 c 0.01791,-0.07228 0.03625,-0.180633 -0.108359,-0.270949 -0.50579,-0.27095 -1.752188,-0.812869 -3.558565,-0.812869 -4.461748,0 -6.21393,2.257969 -6.21393,5.997166 0,4.154665 2.203776,6.015233 6.123612,6.015233 1.770249,0 3.450175,-0.541916 3.919834,-0.939315 z m 5.247525,0 h 4.407552 c 0.523851,0 0.812867,-0.1084 0.812867,-0.77674 0,-0.632232 -0.216766,-0.794807 -0.812867,-0.794807 h -4.407552 v -3.106968 h 0.812864 c 1.318654,0 2.637309,0.0542 3.955965,0.0542 0.596103,0 0.975442,0 0.975442,-0.81287 V 63.35083 c 0,-0.52385 -0.126449,-0.794807 -0.812868,-0.794807 h -6.611338 c -0.596102,0 -0.794803,0.180634 -0.794803,0.794807 v 10.007324 c 0,0.614162 0.180634,0.812867 0.794803,0.812867 h 6.864229 c 0.650294,0 0.812872,-0.216766 0.812872,-0.812867 v -0.234809 c 0,-0.794807 -0.379351,-0.794807 -0.939317,-0.794807 -0.885124,0 -1.73412,0.0179 -2.601181,0.0179 -0.433535,0 -2.167652,0.0179 -2.456668,0.03625 z m 11.714345,-4.624323 v 9.049945 c 0,0.614167 0.180633,0.812868 0.794805,0.812868 h 0.867057 c 0.632233,0 0.812869,-0.216768 0.812869,-0.812868 v -9.049945 c 0.740614,0 2.619245,0.03625 3.359856,0.03625 0.469665,0 0.867065,0 0.867065,-0.794806 v -0.144497 c 0,-0.541911 -0.108363,-0.812871 -0.794807,-0.812871 H 32.85517 c -0.614171,0 -0.812872,0.198725 -0.812872,0.812871 v 0.144496 c 0,0.794806 0.415448,0.794806 0.885126,0.794806 z m 15.28646,-1.824437 c -0.541916,0 -0.812878,0.108361 -0.812878,0.776741 v 0.776742 c 0,0.523848 0.180638,0.758674 0.794815,0.758674 h 0.86705 c 0.812877,0 0.812877,-0.361264 0.812877,-1.156077 0,-0.794808 0,-1.15608 -0.812877,-1.15608 z m 1.553477,4.786895 c 0,-0.541912 -0.126504,-0.794806 -0.812866,-0.794806 h -0.632238 c -0.5961,0 -0.794801,0.180631 -0.794801,0.794806 v 6.087487 c 0,0.614167 0.180638,0.812868 0.794801,0.812868 h 0.632238 c 0.632227,0 0.812866,-0.216768 0.812866,-0.812868 z m 4.692059,0.415445 h 1.499291 c 0.198726,0 0.812874,0 0.812874,-0.614167 0,-0.596107 -0.614175,-0.596107 -0.812874,-0.596107 h -1.499291 v -1.408972 c 0,-0.52385 -0.126502,-0.794806 -0.812862,-0.794806 h -0.523853 c -0.596099,0 -0.794801,0.180632 -0.794801,0.794806 v 1.408972 H 55.30843 c -0.180639,0 -0.794814,0 -0.794814,0.596107 0,0.614167 0.596114,0.614167 0.794814,0.614167 h 0.34321 v 4.244981 c 0,1.697992 0.596102,2.420544 1.770255,2.420544 0.144487,0 0.885124,0 1.752188,-0.270947 0.28904,-0.07229 1.264452,-0.379355 1.264452,-0.704488 0,-0.0542 -0.03624,-0.162584 -0.1265,-0.52385 -0.09038,-0.325131 -0.1265,-0.433536 -0.27095,-0.433536 -0.09038,0 -0.108375,0.0179 -0.198727,0.126452 -0.180624,0.126449 -0.650288,0.505788 -1.354776,0.505788 -0.3974,0 -0.650299,-0.289038 -0.650299,-1.408974 z M 75.521766,63.31467 c 0,-0.541912 -0.126501,-0.81287 -0.812877,-0.81287 h -0.632222 c -0.632241,0 -0.794802,0.21677 -0.794802,0.81287 v 3.811454 c -0.758688,-0.722551 -1.607677,-0.848997 -2.13153,-0.848997 -3.414052,0 -3.414052,3.23341 -3.414052,4.064347 0,0.776737 0,4.010152 3.341791,4.010152 0.704488,0 1.42704,-0.198722 2.149591,-0.975443 0,0.632233 0.234813,0.794804 0.812876,0.794804 h 0.668349 c 0.632238,0 0.812877,-0.216765 0.812877,-0.812868 z m -2.294101,8.760925 c 0,0.270946 0,0.433536 -0.487726,0.758674 -0.415438,0.270948 -0.812862,0.307083 -1.011565,0.307083 -1.69799,0 -1.69799,-1.535414 -1.69799,-2.799878 0,-1.264464 0,-2.854078 1.878629,-2.854078 0.487726,0 0.939313,0.180633 1.318652,0.52385 z m 5.048818,-9.591857 c -0.541912,0 -0.812864,0.108362 -0.812864,0.776742 v 0.77674 c 0,0.52385 0.180625,0.758676 0.794802,0.758676 h 0.867064 c 0.812862,0 0.812862,-0.361266 0.812862,-1.156078 0,-0.794805 0,-1.15608 -0.812862,-1.15608 z m 1.55349,4.786895 c 0,-0.54191 -0.1265,-0.794806 -0.812876,-0.794806 H 78.38487 c -0.5961,0 -0.794801,0.180632 -0.794801,0.794806 v 6.087486 c 0,0.61417 0.180626,0.812868 0.794801,0.812868 h 0.632227 c 0.632237,0 0.812876,-0.216765 0.812876,-0.812868 z m 4.384972,5.346872 c -0.596098,0 -0.830938,0 -1.065764,-0.19872 -0.07226,-0.07229 -0.361261,-0.325131 -0.361261,-0.758681 0,-0.108401 0.01786,-0.144498 0.03624,-0.252903 0.794799,0.451596 1.788315,0.451596 2.131527,0.451596 0.704451,0 3.377889,0 3.377889,-2.781816 0,-0.975448 -0.36135,-1.571549 -0.523849,-1.752188 0.289255,0 0.885162,0 1.571552,0.180632 0.07212,0.03625 0.180458,0.07228 0.234646,0.07228 0.126248,0 0.216713,-0.108362 0.216713,-0.216767 0,-0.07229 -0.09038,-0.469659 -0.108379,-0.632232 -0.07212,-0.415446 -0.07212,-0.451595 -0.379272,-0.451595 -0.523813,0 -1.354738,0.216768 -2.00505,0.596104 -0.776753,-0.523852 -1.661866,-0.596104 -2.384404,-0.596104 -0.704488,0 -3.377927,0 -3.377927,2.781815 0,0.668363 0.180638,1.517358 0.830937,2.059268 -0.451588,0.632233 -0.451588,1.282531 -0.451588,1.37285 0,0.325125 0.09038,0.867061 0.451588,1.318654 -0.2529,0.108364 -1.138012,0.415447 -1.138012,1.481229 0,0.523845 0.2529,1.408971 1.318651,1.896692 0.957376,0.433535 2.077327,0.451595 2.872141,0.451595 0.993499,0 4.208842,0 4.208842,-2.384417 0,-2.637308 -2.366356,-2.637308 -4.642381,-2.637308 z m 0.740617,-1.987013 c -1.174143,0 -1.228341,-0.632235 -1.228341,-1.553482 0,-0.921252 0.05413,-1.589614 1.228341,-1.589614 1.174137,0 1.228324,0.650299 1.228324,1.571546 0,0.921252 -0.05427,1.57155 -1.228324,1.57155 z m 0.903187,3.829521 c 1.372837,0 2.077325,0.234811 2.077325,0.830927 0,1.138019 -1.914736,1.138019 -2.456664,1.138019 -0.668363,0 -2.47474,0 -2.47474,-1.174143 0,-0.794803 0.523852,-0.794803 0.903189,-0.794803 z m 5.961056,-11.976275 c -0.541938,0 -0.812888,0.108362 -0.812888,0.776742 v 0.77674 c 0,0.52385 0.180459,0.758676 0.794799,0.758676 h 0.867065 c 0.812849,0 0.812849,-0.361266 0.812849,-1.156078 0,-0.794805 0,-1.15608 -0.812849,-1.15608 z m 1.553461,4.786895 c 0,-0.54191 -0.126244,-0.794806 -0.812848,-0.794806 h -0.632251 c -0.596088,0 -0.7948,0.180632 -0.7948,0.794806 v 6.087486 c 0,0.61417 0.180459,0.812868 0.7948,0.812868 h 0.632251 c 0.632212,0 0.812848,-0.216765 0.812848,-0.812868 z m 4.696584,0.415447 h 1.499274 c 0.198814,0 0.812896,0 0.812896,-0.61417 0,-0.596104 -0.614171,-0.596104 -0.812896,-0.596104 H 98.06985 v -1.408975 c 0,-0.523846 -0.126247,-0.794803 -0.812888,-0.794803 h -0.523813 c -0.596127,0 -0.794839,0.180632 -0.794839,0.794803 v 1.408975 h -0.397633 c -0.180458,0 -0.794799,0 -0.794799,0.596104 0,0.61417 0.596126,0.61417 0.794799,0.61417 h 0.343445 v 4.244981 c 0,1.697991 0.596127,2.420542 1.770278,2.420542 0.144628,0 0.885113,0 1.752141,-0.270949 0.289261,-0.07228 1.264479,-0.379353 1.264479,-0.704484 0,-0.05421 -0.0351,-0.162586 -0.12625,-0.523851 -0.0905,-0.325128 -0.12625,-0.433534 -0.27091,-0.433534 -0.0904,0 -0.10838,0.0179 -0.19881,0.12645 -0.180452,0.12645 -0.650308,0.505787 -1.354784,0.505787 -0.397183,0 -0.6503,-0.289038 -0.6503,-1.408974 z m 10.93306,1.174142 c 0,-2.655374 -2.565,-2.673437 -3.39597,-2.673437 -0.7948,0 -1.62571,0.05421 -2.76371,0.541916 -0.34347,0.144496 -0.43348,0.198679 -0.43348,0.379352 0,0.108402 0.10838,1.083827 0.12624,1.228336 0,0.108364 0.0905,0.180633 0.21676,0.180633 0.072,0 0.12621,-0.0542 0.18045,-0.09032 0.7225,-0.758674 1.55345,-1.138016 2.60115,-1.138016 0.90321,0 1.17415,0.559977 1.17415,1.553483 v 0.578041 c -0.57801,0 -4.98559,0.03625 -4.98559,2.510862 0,1.174144 0.93934,2.420543 2.42056,2.420543 0.57801,0 1.82443,-0.162586 2.61924,-1.318653 v 0.325131 c 0,0.541909 0.1262,0.812869 0.81285,0.812869 h 0.61418 c 0.65032,0 0.81286,-0.216769 0.81286,-0.812869 z m -2.29407,2.727625 c 0,1.553485 -1.5896,1.553485 -1.64379,1.553485 -0.70449,0 -1.15608,-0.596102 -1.15608,-1.246401 0,-1.6438 2.33022,-1.752185 2.79987,-1.770247 z m 6.58878,-8.273199 c 0,-0.541913 -0.12626,-0.812869 -0.81292,-0.812869 h -0.63221 c -0.59612,0 -0.7948,0.180632 -0.7948,0.812869 v 10.043451 c 0,0.614168 0.18045,0.812869 0.7948,0.812869 h 0.63221 c 0.63228,0 0.81292,-0.216768 0.81292,-0.812869 z m 0,0"
       style="display:inline;fill:#ffffff;fill-opacity:1;fill-rule:nonzero;stroke:none;stroke-width:0.352779"
       aria-label="GETitdigital" />
    <path
       id="path6"
       d="m 18.668482,69.247201 h -3.802469 v 1.100715 h 2.301458 v 2.601685 c -0.734208,0.200172 -1.467609,0.33354 -2.234734,0.33354 -2.63508,0 -4.236056,-2.468261 -4.236056,-4.869822 0,-2.334846 1.567654,-4.903169 4.136009,-4.903169 1.567655,0 2.568276,0.466989 3.402206,1.167423 l 0.267058,-1.534333 c -1.16747,-0.567034 -2.201412,-0.833866 -3.502251,-0.833866 -3.435608,0 -6.0038826,2.701747 -6.0038826,6.103945 0,3.302143 2.5682746,6.070599 5.9037556,6.070599 1.234195,0 2.668401,-0.266816 3.769148,-0.833875 z M 29.183628,68.780212 V 67.646144 H 23.24647 v -3.902508 h 2.468228 c 0.233171,0 0.433263,0 0.633356,0 h 3.335481 v -1.167422 h -8.171974 v 11.740942 h 8.43879 v -1.334201 h -1.534333 c -1.434206,0 -2.868493,0.03308 -4.30278,0.03308 h -0.867172 v -4.236072 z m 8.572239,-4.969884 h 1.600975 c 0.200093,0 0.400185,0 0.600276,0 h 2.434907 V 62.642905 H 31.351558 v 1.167423 h 2.468229 c 0.200091,0 0.400184,0 0.600275,0 h 1.601058 v 10.506803 h 1.734505 z m 14.334236,-1.167423 h -1.734425 v 1.734458 h 1.734425 z m -0.133125,4.136011 h -1.434287 v 7.538215 h 1.434287 z m 4.65302,1.06736 h 2.501552 v -1.06736 h -2.501632 v -2.168075 h -1.300839 v 2.168075 h -1.567654 v 1.06736 h 1.501011 v 4.30278 c 0,1.134069 0.300137,2.334845 1.50093,2.334845 1.234114,0 2.168091,-0.400263 2.701723,-0.633758 l -0.300137,-1.06736 c -0.567196,0.400263 -1.167472,0.533712 -1.634379,0.533712 -0.734208,0 -0.900655,-0.700483 -0.900655,-1.467617 z M 73.82943,62.509482 h -1.434287 v 4.969884 c -1.067345,-0.767126 -2.201414,-0.900583 -2.668402,-0.900583 -1.801149,0 -3.168712,1.801165 -3.168712,3.96924 0,2.168067 1.367563,3.935878 3.102068,3.935878 1.067345,0 2.034643,-0.466988 2.701724,-1.067352 v 0.900582 h 1.467609 z m -1.467609,9.706282 c -0.433264,0.700483 -1.067345,1.134069 -1.901195,1.134069 -1.200793,0 -2.401585,-0.833867 -2.401585,-2.80181 0,-2.101359 1.434287,-2.835171 2.601677,-2.835171 0.667241,0 1.234114,0.300218 1.701103,0.867229 z m 5.928848,-9.572859 h -1.734424 v 1.734458 h 1.734424 z m -0.133125,4.136011 h -1.434287 v 7.538215 h 1.434206 z m 10.014751,-0.200172 c -0.400177,0 -1.534328,0.03308 -2.83517,0.533712 h -0.03229 c -0.60028,-0.400264 -1.200796,-0.533712 -1.701108,-0.533712 -1.66778,0 -2.901894,1.3342 -2.901894,2.801816 0,0.567035 0.200091,1.200777 0.600275,1.667749 -0.233171,0.300218 -0.500229,0.767127 -0.500229,1.400901 0,0.667081 0.267058,1.100715 0.434069,1.300847 -0.933977,0.533712 -1.134068,1.334201 -1.134068,1.734456 0,1.300839 1.801148,2.334846 4.002563,2.334846 2.234813,0 4.002557,-1.034007 4.002557,-2.334846 0,-2.401553 -2.96854,-2.401553 -3.702338,-2.401553 h -1.601061 c -0.267055,0 -1.000618,0 -1.000618,-0.867228 0,-0.33354 0.133125,-0.533713 0.133125,-0.567034 0.60028,0.400264 1.200797,0.50031 1.667777,0.50031 1.667706,0 2.901904,-1.300839 2.901904,-2.768456 0,-0.533712 -0.167017,-1.034006 -0.467157,-1.50097 -0.06459,-0.100046 -0.06459,-0.100046 -0.06459,-0.133449 0,-0.06696 1.034026,-0.06696 1.100662,-0.06696 0.03229,0 0.66725,0 1.300842,0.06696 z m -4.569592,4.536274 c -0.900577,0 -1.601058,-0.600357 -1.601058,-1.734458 0,-1.3342 0.867252,-1.734456 1.601058,-1.734456 0.900577,0 1.601053,0.567034 1.601053,1.734456 0,1.300839 -0.867246,1.734458 -1.601053,1.734458 z m 0.800364,3.302135 c 0.400186,0 2.401503,0 2.401503,1.100714 0,0.733805 -1.267432,1.234131 -2.701722,1.234131 -1.434282,0 -2.70172,-0.50031 -2.70172,-1.234131 0,-0.100045 0,-1.100714 1.367564,-1.100714 z m 7.238005,-11.774287 h -1.734421 v 1.734456 h 1.734421 z m -0.133122,4.136009 h -1.43437 v 7.538216 h 1.434282 z m 4.653017,1.067361 h 2.50155 V 66.778875 H 96.160888 V 64.6108 h -1.300843 v 2.168075 h -1.567651 v 1.067361 h 1.500927 v 4.30278 c 0,1.134069 0.30014,2.334845 1.501015,2.334845 1.234109,0 2.168009,-0.400264 2.701722,-0.633759 l -0.300139,-1.06736 c -0.567195,0.400265 -1.167386,0.533713 -1.634375,0.533713 -0.734211,0 -0.900577,-0.700483 -0.900577,-1.467617 z m 10.556773,1.567678 c 0,-1.734456 -1.33416,-2.901879 -3.00194,-2.901879 -1.06734,0 -1.90119,0.233494 -2.83517,0.733804 l 0.10005,1.234131 c 0.56719,-0.366862 1.40088,-0.867228 2.73504,-0.867228 0.7334,0 1.53434,0.533712 1.53434,1.834519 v 0.667079 c -2.53495,0.100047 -5.00318,0.600437 -5.00318,2.20143 0,0.833875 0.56719,2.168067 2.06796,2.168067 0.7334,0 2.06804,-0.133448 2.96862,-0.800529 v 0.633759 h 1.4342 z m -1.4676,2.501624 c 0,0.33354 0,0.767126 -0.60028,1.134068 -0.53331,0.300219 -1.20079,0.300219 -1.40088,0.300219 -0.93398,0 -1.63447,-0.400265 -1.63447,-1.067361 0,-1.06736 2.86858,-1.167423 3.63571,-1.200777 z m 5.78709,-9.406097 h -1.43429 v 11.80765 h 1.43429 z m 0,0"
       style="display:none;fill:#ffffff;fill-opacity:1;fill-rule:nonzero;stroke:none;stroke-width:0.352778" />
    <path
       id="path15"
       style="display:inline;fill:#ffffff;stroke-width:1.82758;stroke-linecap:round;stroke-linejoin:round"
       d="m 11.312082,69.185326 h 5.658399 a 0.50676401,0.50676401 55.953682 0 1 0.47017,0.695841 l -5.31999,13.228976 a 1.1099841,1.1099841 145.95368 0 1 -1.02983,0.695841 H 5.4324317 A 0.506764,0.506764 55.953683 0 1 4.962262,83.110143 l 5.31999,-13.228976 a 1.1099841,1.1099841 145.95368 0 1 1.02983,-0.695841 z m 10.392216,0 h 5.658399 a 0.50676401,0.50676401 55.953682 0 1 0.47017,0.695841 l -5.31999,13.228976 a 1.1099841,1.1099841 145.95368 0 1 -1.02983,0.695841 h -5.658399 a 0.506764,0.506764 55.953683 0 1 -0.47017,-0.695841 l 5.31999,-13.228976 a 1.1099841,1.1099841 145.95368 0 1 1.02983,-0.695841 z m 10.392216,0 h 5.658399 a 0.50676401,0.50676401 55.953682 0 1 0.47017,0.695841 l -5.31999,13.228976 a 1.1099841,1.1099841 145.95368 0 1 -1.02983,0.695841 h -5.658399 a 0.506764,0.506764 55.953683 0 1 -0.47017,-0.695841 l 5.31999,-13.228976 a 1.1099841,1.1099841 145.95368 0 1 1.02983,-0.695841 z"
       sodipodi:nodetypes="ccccc"
       inkscape:path-effect="#path-effect16;#path-effect18"
       inkscape:original-d="m 10.562082,69.185326 h 7.158399 l -5.87965,14.620658 H 4.6824317 Z"
       transform="matrix(1.094342,0,0,1.094342,-0.90947179,2.09029)" />
  </g>
</svg>
