<?xml version="1.0" encoding="UTF-8" standalone="no"?>
<!-- Created with Inkscape (http://www.inkscape.org/) -->

<svg
   width="380mm"
   height="340mm"
   viewBox="0 0 380 340"
   version="1.1"
   id="svg1"
   xml:space="preserve"
   sodipodi:docname="Ringspule_MagFeld_Luftspalt.svg"
   inkscape:version="1.3.2 (091e20e, 2023-11-25, custom)"
   inkscape:export-filename="Magnetfeldline_Ringspule.png"
   inkscape:export-xdpi="72"
   inkscape:export-ydpi="72"
   xmlns:inkscape="http://www.inkscape.org/namespaces/inkscape"
   xmlns:sodipodi="http://sodipodi.sourceforge.net/DTD/sodipodi-0.dtd"
   xmlns:xlink="http://www.w3.org/1999/xlink"
   xmlns="http://www.w3.org/2000/svg"
   xmlns:svg="http://www.w3.org/2000/svg"><sodipodi:namedview
     id="namedview1"
     pagecolor="#ffffff"
     bordercolor="#000000"
     borderopacity="0.25"
     inkscape:showpageshadow="2"
     inkscape:pageopacity="0.0"
     inkscape:pagecheckerboard="0"
     inkscape:deskcolor="#d1d1d1"
     inkscape:document-units="mm"
     showgrid="true"
     inkscape:zoom="0.50644992"
     inkscape:cx="299.14113"
     inkscape:cy="557.80441"
     inkscape:window-width="2560"
     inkscape:window-height="1351"
     inkscape:window-x="-9"
     inkscape:window-y="-9"
     inkscape:window-maximized="1"
     inkscape:current-layer="layer2"
     showguides="true"><inkscape:grid
       type="axonomgrid"
       id="grid1"
       units="mm"
       originx="-20.499998"
       originy="-3.9999998"
       spacingx="0"
       spacingy="8"
       empcolor="#0099e5"
       empopacity="0.30196078"
       color="#0099e5"
       opacity="0.14901961"
       empspacing="5"
       dotted="false"
       gridanglex="30"
       gridanglez="30"
       visible="true" /><sodipodi:guide
       position="170.10748,111.04728"
       orientation="1,0"
       id="guide30"
       inkscape:locked="false" /><sodipodi:guide
       position="173.48969,49"
       orientation="0,-1"
       id="guide31"
       inkscape:locked="false" /><sodipodi:guide
       position="378.62927,170.7335"
       orientation="0,-1"
       id="guide1"
       inkscape:locked="false" /><sodipodi:guide
       position="350.20256,235.27169"
       orientation="1,0"
       id="guide3"
       inkscape:locked="false" /></sodipodi:namedview><defs
     id="defs1"><marker
       style="overflow:visible"
       id="ConcaveTriangle"
       refX="0"
       refY="0"
       orient="auto-start-reverse"
       inkscape:stockid="Concave triangle arrow"
       markerWidth="1"
       markerHeight="1"
       viewBox="0 0 1 1"
       inkscape:isstock="true"
       inkscape:collect="always"
       preserveAspectRatio="xMidYMid"><path
         transform="scale(0.7)"
         d="M -2,-4 9,0 -2,4 c 2,-2.33 2,-5.66 0,-8 z"
         style="fill:context-stroke;fill-rule:evenodd;stroke:none"
         id="path7" /></marker><inkscape:path-effect
       effect="knot"
       id="path-effect30"
       is_visible="true"
       lpeversion="1"
       switcher_size="15"
       interruption_width="3.7"
       prop_to_stroke_width="true"
       add_stroke_width="inkscape_1.0_and_up"
       both="false"
       inverse_width="false"
       add_other_stroke_width="inkscape_1.0_and_up"
       crossing_points_vector="" /><inkscape:path-effect
       effect="copy_rotate"
       starting_point="290.5,190.5"
       origin="190.5,190.5"
       id="path-effect5"
       is_visible="true"
       lpeversion="1.2"
       lpesatellites=""
       method="normal"
       num_copies="4"
       starting_angle="0"
       rotation_angle="10"
       gap="-0.01"
       copies_to_360="false"
       mirror_copies="false"
       split_items="false"
       link_styles="false" /><clipPath
       clipPathUnits="userSpaceOnUse"
       id="clipPath14"><path
         d="M 0.11319206,85.622688 H 282.71299 V -295.37731 H 0.11319206 Z M 27.191124,-89.861692 v -30.364558 h 96.878326 v 30.364558 z"
         style="display:inline;fill:#000000;fill-opacity:1;stroke-width:2;stroke-linecap:round;stroke-linejoin:round;paint-order:markers stroke fill"
         id="path14"
         sodipodi:nodetypes="cccccccccc" /></clipPath><clipPath
       clipPathUnits="userSpaceOnUse"
       id="clipPath15"><path
         d="M 0.11319206,85.622688 H 282.71299 V -295.37731 H 0.11319206 Z M 27.191124,-89.861692 v -30.364558 h 96.878326 v 30.364558 z"
         style="display:inline;fill:#000000;fill-opacity:1;stroke-width:2;stroke-linecap:round;stroke-linejoin:round;paint-order:markers stroke fill"
         id="path15"
         sodipodi:nodetypes="cccccccccc" /></clipPath><clipPath
       clipPathUnits="userSpaceOnUse"
       id="clipPath16"><path
         d="M 0.11319206,85.622688 H 282.71299 V -295.37731 H 0.11319206 Z M 27.191124,-89.861692 v -30.364558 h 96.878326 v 30.364558 z"
         style="display:inline;fill:#000000;fill-opacity:1;stroke-width:2;stroke-linecap:round;stroke-linejoin:round;paint-order:markers stroke fill"
         id="path16"
         sodipodi:nodetypes="cccccccccc" /></clipPath><marker
       style="overflow:visible"
       id="ConcaveTriangle-0"
       refX="0"
       refY="0"
       orient="auto-start-reverse"
       inkscape:stockid="Concave triangle arrow"
       markerWidth="1"
       markerHeight="1"
       viewBox="0 0 1 1"
       inkscape:isstock="true"
       inkscape:collect="always"
       preserveAspectRatio="xMidYMid"><path
         transform="scale(0.7)"
         d="M -2,-4 9,0 -2,4 c 2,-2.33 2,-5.66 0,-8 z"
         style="fill:context-stroke;fill-rule:evenodd;stroke:none"
         id="path7-9" /></marker><clipPath
       clipPathUnits="userSpaceOnUse"
       id="clipPath49"><path
         d="M -83.406286,-25.745695 V 252.05183 H 292.65499 V -25.745695 Z M 29.936149,13.066406 c 2.976216,-0.0487 4.361294,1.730666 1.175123,7.548893 -8.496458,15.515273 -8.588618,27.5213 -7.295679,41.374219 1.29294,13.852922 -13.391142,15.977124 -14.4993728,4.24832 -1.1082337,-11.72881 -2.6785041,-25.859119 6.2797188,-47.931441 0,0 9.379855,-5.158822 14.34021,-5.239991 z m 148.182171,48.335552 11.98687,25.022244 -14.29991,5.093229 -8.21552,-18.297075 z m 16.12614,49.895142 c 2.39662,-0.0502 4.44357,1.20048 5.11702,5.12889 1.9591,11.42808 3.85302,23.379 0.84902,42.96999 -3.00392,19.59098 -18.35055,16.71743 -15.08538,-1.69809 3.26517,-18.41553 1.82872,-26.12149 -1.30585,-41.46775 0,0 5.8498,-4.83724 10.42519,-4.93304 z"
         style="display:inline;stroke-width:2.5;stroke-linecap:round;stroke-linejoin:round;paint-order:markers stroke fill"
         id="path50" /></clipPath><clipPath
       clipPathUnits="userSpaceOnUse"
       id="clipPath50"><path
         d="M -25.745695,83.406286 H 252.05183 V -292.65499 H -25.745695 Z M 13.066406,-29.936149 c -0.0487,-2.976216 1.730666,-4.361294 7.548893,-1.175123 15.515273,8.496458 27.5213,8.588618 41.374219,7.295679 13.852922,-1.29294 15.977124,13.391142 4.24832,14.4993728 -11.72881,1.1082337 -25.859119,2.6785041 -47.931441,-6.2797188 0,0 -5.158822,-9.379855 -5.239991,-14.34021 z m 48.335552,-148.182171 25.022244,-11.98687 5.093229,14.29991 -18.297075,8.21552 z m 49.895142,-16.12614 c -0.0502,-2.39662 1.20048,-4.44357 5.12889,-5.11702 11.42808,-1.9591 23.379,-3.85302 42.96999,-0.84902 19.59098,3.00392 16.71743,18.35055 -1.69809,15.08538 -18.41553,-3.26517 -26.12149,-1.82872 -41.46775,1.30585 0,0 -4.83724,-5.8498 -4.93304,-10.42519 z"
         style="display:inline;stroke-width:2.5;stroke-linecap:round;stroke-linejoin:round;paint-order:markers stroke fill"
         id="path51" /></clipPath><clipPath
       clipPathUnits="userSpaceOnUse"
       id="clipPath51"><path
         d="M -25.745695,83.406286 H 252.05183 V -292.65499 H -25.745695 Z M 13.066406,-29.936149 c -0.0487,-2.976216 1.730666,-4.361294 7.548893,-1.175123 15.515273,8.496458 27.5213,8.588618 41.374219,7.295679 13.852922,-1.29294 15.977124,13.391142 4.24832,14.4993728 -11.72881,1.1082337 -25.859119,2.6785041 -47.931441,-6.2797188 0,0 -5.158822,-9.379855 -5.239991,-14.34021 z m 48.335552,-148.182171 25.022244,-11.98687 5.093229,14.29991 -18.297075,8.21552 z m 49.895142,-16.12614 c -0.0502,-2.39662 1.20048,-4.44357 5.12889,-5.11702 11.42808,-1.9591 23.379,-3.85302 42.96999,-0.84902 19.59098,3.00392 16.71743,18.35055 -1.69809,15.08538 -18.41553,-3.26517 -26.12149,-1.82872 -41.46775,1.30585 0,0 -4.83724,-5.8498 -4.93304,-10.42519 z"
         style="display:inline;stroke-width:2.5;stroke-linecap:round;stroke-linejoin:round;paint-order:markers stroke fill"
         id="path52" /></clipPath><clipPath
       clipPathUnits="userSpaceOnUse"
       id="clipPath52"><path
         d="M -25.745695,83.406286 H 252.05183 V -292.65499 H -25.745695 Z M 13.066406,-29.936149 c -0.0487,-2.976216 1.730666,-4.361294 7.548893,-1.175123 15.515273,8.496458 27.5213,8.588618 41.374219,7.295679 13.852922,-1.29294 15.977124,13.391142 4.24832,14.4993728 -11.72881,1.1082337 -25.859119,2.6785041 -47.931441,-6.2797188 0,0 -5.158822,-9.379855 -5.239991,-14.34021 z m 48.335552,-148.182171 25.022244,-11.98687 5.093229,14.29991 -18.297075,8.21552 z m 49.895142,-16.12614 c -0.0502,-2.39662 1.20048,-4.44357 5.12889,-5.11702 11.42808,-1.9591 23.379,-3.85302 42.96999,-0.84902 19.59098,3.00392 16.71743,18.35055 -1.69809,15.08538 -18.41553,-3.26517 -26.12149,-1.82872 -41.46775,1.30585 0,0 -4.83724,-5.8498 -4.93304,-10.42519 z"
         style="display:inline;stroke-width:2.5;stroke-linecap:round;stroke-linejoin:round;paint-order:markers stroke fill"
         id="path53" /></clipPath><clipPath
       clipPathUnits="userSpaceOnUse"
       id="clipPath53"><path
         d="M -25.745695,83.406286 H 252.05183 V -292.65499 H -25.745695 Z M 13.066406,-29.936149 c -0.0487,-2.976216 1.730666,-4.361294 7.548893,-1.175123 15.515273,8.496458 27.5213,8.588618 41.374219,7.295679 13.852922,-1.29294 15.977124,13.391142 4.24832,14.4993728 -11.72881,1.1082337 -25.859119,2.6785041 -47.931441,-6.2797188 0,0 -5.158822,-9.379855 -5.239991,-14.34021 z m 48.335552,-148.182171 25.022244,-11.98687 5.093229,14.29991 -18.297075,8.21552 z m 49.895142,-16.12614 c -0.0502,-2.39662 1.20048,-4.44357 5.12889,-5.11702 11.42808,-1.9591 23.379,-3.85302 42.96999,-0.84902 19.59098,3.00392 16.71743,18.35055 -1.69809,15.08538 -18.41553,-3.26517 -26.12149,-1.82872 -41.46775,1.30585 0,0 -4.83724,-5.8498 -4.93304,-10.42519 z"
         style="display:inline;stroke-width:2.5;stroke-linecap:round;stroke-linejoin:round;paint-order:markers stroke fill"
         id="path54" /></clipPath><clipPath
       clipPathUnits="userSpaceOnUse"
       id="clipPath54"><path
         d="M -25.745695,83.406286 H 252.05183 V -292.65499 H -25.745695 Z M 13.066406,-29.936149 c -0.0487,-2.976216 1.730666,-4.361294 7.548893,-1.175123 15.515273,8.496458 27.5213,8.588618 41.374219,7.295679 13.852922,-1.29294 15.977124,13.391142 4.24832,14.4993728 -11.72881,1.1082337 -25.859119,2.6785041 -47.931441,-6.2797188 0,0 -5.158822,-9.379855 -5.239991,-14.34021 z m 48.335552,-148.182171 25.022244,-11.98687 5.093229,14.29991 -18.297075,8.21552 z m 49.895142,-16.12614 c -0.0502,-2.39662 1.20048,-4.44357 5.12889,-5.11702 11.42808,-1.9591 23.379,-3.85302 42.96999,-0.84902 19.59098,3.00392 16.71743,18.35055 -1.69809,15.08538 -18.41553,-3.26517 -26.12149,-1.82872 -41.46775,1.30585 0,0 -4.83724,-5.8498 -4.93304,-10.42519 z"
         style="display:inline;stroke-width:2.5;stroke-linecap:round;stroke-linejoin:round;paint-order:markers stroke fill"
         id="path55" /></clipPath><clipPath
       clipPathUnits="userSpaceOnUse"
       id="clipPath55"><path
         d="M -25.745695,83.406286 H 252.05183 V -292.65499 H -25.745695 Z M 13.066406,-29.936149 c -0.0487,-2.976216 1.730666,-4.361294 7.548893,-1.175123 15.515273,8.496458 27.5213,8.588618 41.374219,7.295679 13.852922,-1.29294 15.977124,13.391142 4.24832,14.4993728 -11.72881,1.1082337 -25.859119,2.6785041 -47.931441,-6.2797188 0,0 -5.158822,-9.379855 -5.239991,-14.34021 z m 48.335552,-148.182171 25.022244,-11.98687 5.093229,14.29991 -18.297075,8.21552 z m 49.895142,-16.12614 c -0.0502,-2.39662 1.20048,-4.44357 5.12889,-5.11702 11.42808,-1.9591 23.379,-3.85302 42.96999,-0.84902 19.59098,3.00392 16.71743,18.35055 -1.69809,15.08538 -18.41553,-3.26517 -26.12149,-1.82872 -41.46775,1.30585 0,0 -4.83724,-5.8498 -4.93304,-10.42519 z"
         style="display:inline;stroke-width:2.5;stroke-linecap:round;stroke-linejoin:round;paint-order:markers stroke fill"
         id="path56" /></clipPath><inkscape:path-effect
       effect="copy_rotate"
       starting_point="0,0"
       origin="190.5,190.5"
       id="path-effect5-4"
       is_visible="false"
       lpeversion="1.2"
       lpesatellites=""
       method="normal"
       num_copies="22"
       starting_angle="0"
       rotation_angle="13.846154"
       gap="-0.01"
       copies_to_360="false"
       mirror_copies="false"
       split_items="false"
       link_styles="false" /><inkscape:path-effect
       effect="copy_rotate"
       starting_point="0,0"
       origin="190.5,190.5"
       id="path-effect5-4-3"
       is_visible="false"
       lpeversion="1.2"
       lpesatellites=""
       method="normal"
       num_copies="22"
       starting_angle="0"
       rotation_angle="13.846154"
       gap="-0.01"
       copies_to_360="false"
       mirror_copies="false"
       split_items="false"
       link_styles="false" /><inkscape:path-effect
       effect="copy_rotate"
       starting_point="0,0"
       origin="190.5,190.5"
       id="path-effect5-4-6"
       is_visible="false"
       lpeversion="1.2"
       lpesatellites=""
       method="normal"
       num_copies="22"
       starting_angle="0"
       rotation_angle="13.846154"
       gap="-0.01"
       copies_to_360="false"
       mirror_copies="false"
       split_items="false"
       link_styles="false" /><marker
       style="overflow:visible"
       id="ConcaveTriangle-0-2"
       refX="0"
       refY="0"
       orient="auto-start-reverse"
       inkscape:stockid="Concave triangle arrow"
       markerWidth="1"
       markerHeight="1"
       viewBox="0 0 1 1"
       inkscape:isstock="true"
       inkscape:collect="always"
       preserveAspectRatio="xMidYMid"><path
         transform="scale(0.7)"
         d="M -2,-4 9,0 -2,4 c 2,-2.33 2,-5.66 0,-8 z"
         style="fill:context-stroke;fill-rule:evenodd;stroke:none"
         id="path7-9-8" /></marker><marker
       style="overflow:visible"
       id="ConcaveTriangle-6"
       refX="0"
       refY="0"
       orient="auto-start-reverse"
       inkscape:stockid="Concave triangle arrow"
       markerWidth="1"
       markerHeight="1"
       viewBox="0 0 1 1"
       inkscape:isstock="true"
       inkscape:collect="always"
       preserveAspectRatio="xMidYMid"><path
         transform="scale(0.7)"
         d="M -2,-4 9,0 -2,4 c 2,-2.33 2,-5.66 0,-8 z"
         style="fill:context-stroke;fill-rule:evenodd;stroke:none"
         id="path7-4" /></marker><inkscape:path-effect
       effect="copy_rotate"
       starting_point="0,0"
       origin="190.5,190.5"
       id="path-effect5-4-8"
       is_visible="false"
       lpeversion="1.2"
       lpesatellites=""
       method="normal"
       num_copies="22"
       starting_angle="0"
       rotation_angle="13.846154"
       gap="-0.01"
       copies_to_360="false"
       mirror_copies="false"
       split_items="false"
       link_styles="false" /></defs><g
     inkscape:groupmode="layer"
     id="layer2"
     inkscape:label="Ebene 2"
     transform="translate(-20.5,-4)"><path
       style="fill:none;stroke:#cea072;stroke-width:4.82602;stroke-linecap:round;stroke-linejoin:round;stroke-dasharray:none;stroke-opacity:1;paint-order:normal"
       d="m 114.12729,366.9944 c 13.96081,-62.89528 25.43417,-70.4661 28.26563,-77.56984"
       id="path5-9-8"
       sodipodi:nodetypes="cc"
       inkscape:path-effect="#path-effect5-4-6"
       inkscape:original-d="m 114.12729,366.9944 c 13.96081,-62.89528 25.43417,-70.4661 28.26563,-77.56984"
       transform="matrix(0.23260033,0.97623937,-1.0478953,0.21669493,386.3599,-79.25897)" /><path
       d="M 319.02777,88.40737 C 291.64249,57.296113 249.90482,39.708236 205.86242,44.991137 a 17.450069,17.449933 82.876236 0 0 -4.24796,1.114553 17.450069,17.449933 82.876236 0 0 -2.0925,-0.195495 C 129.55615,57.824556 81.879136,124.20103 92.93051,194.30886 c 5.525679,35.05394 24.73406,64.70378 51.34093,84.31661 26.60688,19.61282 60.61292,29.18917 95.732,24.09585 16.64121,-2.41346 32.08596,-7.94479 45.87507,-15.8699 l -23.40096,-26.97878 c -8.4695,4.0351 -17.68896,6.88881 -27.48407,8.30938 -25.86135,3.75065 -50.72391,-3.17077 -70.13856,-17.48196 -19.41466,-14.31121 -33.38148,-36.0126 -37.45055,-61.82597 -8.13812,-51.62673 26.45314,-99.785666 77.97526,-108.559271 a 17.450069,17.449933 82.876236 0 0 2.2195,-1.020122 17.450069,17.449933 82.876236 0 0 2.41906,0.347993 c 51.89181,-6.224441 98.73863,30.12283 105.60207,81.93442 3.14852,23.76788 -2.69379,46.57132 -14.91254,65.032 l 23.35458,26.92531 c 20.51263,-26.52149 30.88296,-60.85729 26.156,-96.54071 -3.49515,-26.38459 -14.75934,-49.91958 -31.19053,-68.58634 z"
       style="display:none;fill:#808080;stroke-linecap:round;stroke-linejoin:round"
       id="path2" /><path
       d="m 222.80548,43.399146 c -2.17447,-0.01667 -4.36016,0.02102 -6.55567,0.114204 -30.73713,1.30458 -58.63194,13.29245 -80.18839,32.254879 -27.71543,24.380261 -44.952053,60.290141 -44.279466,99.838871 1.19571,70.30885 58.570146,127.1921 128.887226,127.78341 68.24076,0.57386 125.17863,-52.06987 130.65559,-119.41442 h -35.07383 c -5.30722,48.17135 -46.00317,84.93178 -95.28772,84.51733 -51.77002,-0.43535 -93.40643,-41.71613 -94.28676,-93.48009 -0.88032,-51.76396 39.32808,-94.435932 91.05336,-96.631307 50.37884,-2.138229 93.10989,34.913437 98.54334,84.566417 h 35.03921 C 345.90083,95.780151 289.66908,43.911611 222.80548,43.399146 Z"
       style="fill:#808080;stroke-linejoin:round"
       id="path6" /><path
       style="display:inline;fill:none;stroke:#f57300;stroke-width:2.5;stroke-linecap:round;stroke-linejoin:round;stroke-dasharray:none;stroke-opacity:1;marker-mid:url(#ConcaveTriangle-0);marker-end:url(#ConcaveTriangle-0);paint-order:normal"
       id="path31"
       sodipodi:type="arc"
       sodipodi:cx="-33.163361"
       sodipodi:cy="-279.53638"
       sodipodi:rx="112.55007"
       sodipodi:ry="112.55007"
       sodipodi:start="0.79020394"
       sodipodi:end="0.74091389"
       sodipodi:open="true"
       sodipodi:arc-type="arc"
       d="m 46.038173,-199.56991 a 112.55007,112.55007 0 0 1 -158.185993,0.21442 112.55007,112.55007 0 0 1 -2.1636,-158.17134 112.55007,112.55007 0 0 1 158.132672,-4.11246 112.55007,112.55007 0 0 1 6.060686,158.06999"
       transform="matrix(-0.70580275,0.70840841,-0.7084139,-0.70579724,0,0)" /><path
       style="display:inline;fill:none;stroke:#cea072;stroke-width:5;stroke-linecap:round;stroke-linejoin:round;stroke-dasharray:none;stroke-opacity:1;paint-order:normal"
       d="m 135.04749,310.19129 c -6.79156,-2.48153 -2.69493,-15.35906 0.13653,-22.4628 3.01956,-7.57566 8.87196,-17.45217 2.26577,-20.92108 m 19.22432,51.19473 c -7.11929,-1.26449 -5.32106,-14.65775 -3.76617,-22.14525 1.65819,-7.98491 5.70664,-18.72763 -1.40156,-20.99669 m 27.82214,47.0787 c -7.23071,-0.009 -7.78552,-13.51108 -7.55444,-21.15483 0.24643,-8.15154 2.36793,-19.43406 -5.0263,-20.43432 m 35.57458,41.5322 c -7.12243,1.24671 -10.01341,-11.95387 -11.11316,-19.52162 -1.17281,-8.07049 -1.04274,-19.55 -8.49832,-19.25107"
       id="path5"
       sodipodi:nodetypes="csc"
       inkscape:path-effect="#path-effect5"
       inkscape:original-d="m 135.04749,310.19129 c -6.79156,-2.48153 -2.69493,-15.35906 0.13653,-22.4628 3.01956,-7.57566 8.87196,-17.45217 2.26577,-20.92108"
       transform="rotate(78.822534,216.37625,200.84474)" /><path
       style="display:inline;fill:none;stroke:#ff0000;stroke-width:2.5;stroke-linecap:round;stroke-linejoin:round;stroke-dasharray:none;stroke-opacity:1;marker-end:url(#ConcaveTriangle-0-2);paint-order:markers stroke fill"
       d="M 79.084215,255.97075 H 44.768895"
       id="path1-4" /><path
       style="display:inline;fill:none;stroke:#ff0000;stroke-width:2.5;stroke-linecap:round;stroke-linejoin:round;stroke-dasharray:none;stroke-opacity:1;marker-start:url(#ConcaveTriangle-6);paint-order:markers stroke fill"
       d="M 65.878075,95.98915 H 30.790355"
       id="path1-8-9" /><path
       style="fill:none;stroke:#cea072;stroke-width:5;stroke-linecap:round;stroke-linejoin:round;stroke-dasharray:none;stroke-opacity:1;paint-order:normal"
       d="m 147.53563,376.73245 c 7.97664,-35.93585 10.56202,-55.93695 1.71519,-77.3675 -8.84683,-21.43055 -10.76528,-32.97392 -17.85136,-32.57611"
       id="path5-9-82"
       sodipodi:nodetypes="czc"
       inkscape:path-effect="#path-effect5-4-8"
       inkscape:original-d="m 147.53563,376.73245 c 7.97664,-35.93585 10.56202,-55.93695 1.71519,-77.3675 -8.84683,-21.43055 -10.76528,-32.97392 -17.85136,-32.57611"
       transform="rotate(77.485016,173.38673,233.67013)" /><path
       style="fill:#000000;fill-opacity:1;stroke:#000000;stroke-width:2.5;stroke-linecap:round;stroke-linejoin:round;stroke-dasharray:none;stroke-opacity:1;paint-order:stroke fill markers"
       d="M 353.54749,161.81996 H 388.0277"
       id="path3" /><path
       style="fill:#000000;fill-opacity:1;stroke:#000000;stroke-width:2.5;stroke-linecap:round;stroke-linejoin:round;stroke-dasharray:none;stroke-opacity:1;marker-end:url(#ConcaveTriangle);paint-order:stroke fill markers"
       d="m 370.79894,109.0057 v 34.48022"
       id="path3-9" /><use
       x="0"
       y="0"
       xlink:href="#path3"
       id="use3"
       transform="translate(0,23.369307)" /><use
       x="0"
       y="0"
       xlink:href="#path3-9"
       id="use4"
       transform="matrix(1,0,0,-1,0,347.45716)" /></g></svg>
