<?xml version="1.0" encoding="UTF-8" standalone="no"?>
<!-- Created with Inkscape (http://www.inkscape.org/) -->

<svg
   width="105.54552mm"
   height="63.09959mm"
   viewBox="0 0 105.54552 63.09959"
   version="1.1"
   id="svg1"
   inkscape:version="1.2.2 (732a01da63, 2022-12-09)"
   sodipodi:docname="EinweggleichrichterTeil2.svg"
   xmlns:inkscape="http://www.inkscape.org/namespaces/inkscape"
   xmlns:sodipodi="http://sodipodi.sourceforge.net/DTD/sodipodi-0.dtd"
   xmlns="http://www.w3.org/2000/svg"
   xmlns:svg="http://www.w3.org/2000/svg">
  <sodipodi:namedview
     id="namedview1"
     pagecolor="#ffffff"
     bordercolor="#000000"
     borderopacity="0.25"
     inkscape:showpageshadow="2"
     inkscape:pageopacity="0.0"
     inkscape:pagecheckerboard="0"
     inkscape:deskcolor="#d1d1d1"
     inkscape:document-units="mm"
     inkscape:zoom="1"
     inkscape:cx="-185.5"
     inkscape:cy="229"
     inkscape:window-width="2560"
     inkscape:window-height="1017"
     inkscape:window-x="1912"
     inkscape:window-y="-8"
     inkscape:window-maximized="1"
     inkscape:current-layer="layer1"
     showgrid="false"
     showguides="true" />
  <defs
     id="defs1">
    <marker
       style="overflow:visible"
       id="marker28"
       refX="0"
       refY="0"
       orient="auto-start-reverse"
       inkscape:stockid="Concave triangle arrow"
       markerWidth="1"
       markerHeight="1"
       viewBox="0 0 1 1"
       inkscape:isstock="true"
       inkscape:collect="always"
       preserveAspectRatio="xMidYMid">
      <path
         transform="scale(0.7)"
         d="M -2,-4 9,0 -2,4 c 2,-2.33 2,-5.66 0,-8 z"
         style="fill:context-stroke;fill-rule:evenodd;stroke:none"
         id="path28" />
    </marker>
    <marker
       style="overflow:visible"
       id="marker28-2"
       refX="0"
       refY="0"
       orient="auto-start-reverse"
       inkscape:stockid="Concave triangle arrow"
       markerWidth="1"
       markerHeight="1"
       viewBox="0 0 1 1"
       inkscape:isstock="true"
       inkscape:collect="always"
       preserveAspectRatio="xMidYMid">
      <path
         transform="scale(0.7)"
         d="M -2,-4 9,0 -2,4 c 2,-2.33 2,-5.66 0,-8 z"
         style="fill:context-stroke;fill-rule:evenodd;stroke:none"
         id="path28-3" />
    </marker>
    <marker
       style="overflow:visible"
       id="Triangle-5"
       refX="0"
       refY="0"
       orient="auto-start-reverse"
       inkscape:stockid="Triangle arrow"
       markerWidth="1"
       markerHeight="1"
       viewBox="0 0 1 1"
       inkscape:isstock="true"
       inkscape:collect="always"
       preserveAspectRatio="xMidYMid">
      <path
         transform="scale(0.5)"
         style="fill:context-stroke;fill-rule:evenodd;stroke:context-stroke;stroke-width:1pt"
         d="M 5.77,0 -2.88,5 V -5 Z"
         id="path135-7" />
    </marker>
    <marker
       style="overflow:visible"
       id="Triangle-5-4"
       refX="0"
       refY="0"
       orient="auto-start-reverse"
       inkscape:stockid="Triangle arrow"
       markerWidth="5.3244081"
       markerHeight="6.155385"
       viewBox="0 0 5.3244081 6.1553851"
       inkscape:isstock="true"
       inkscape:collect="always"
       preserveAspectRatio="xMidYMid">
      <path
         transform="scale(0.5)"
         style="fill:context-stroke;fill-rule:evenodd;stroke:context-stroke;stroke-width:1pt"
         d="M 5.77,0 -2.88,5 V -5 Z"
         id="path135-7-5" />
    </marker>
    <marker
       style="overflow:visible"
       id="Triangle-5-2"
       refX="0"
       refY="0"
       orient="auto-start-reverse"
       inkscape:stockid="Triangle arrow"
       markerWidth="1"
       markerHeight="1"
       viewBox="0 0 1 1"
       inkscape:isstock="true"
       inkscape:collect="always"
       preserveAspectRatio="xMidYMid">
      <path
         transform="scale(0.5)"
         style="fill:context-stroke;fill-rule:evenodd;stroke:context-stroke;stroke-width:1pt"
         d="M 5.77,0 -2.88,5 V -5 Z"
         id="path135-7-0" />
    </marker>
  </defs>
  <g
     inkscape:label="Ebene 1"
     inkscape:groupmode="layer"
     id="layer1"
     transform="translate(-56.3766,-35.454165)">
    <rect
       style="fill:#ffffff;fill-opacity:1;stroke:none;stroke-width:2.45669;stroke-dasharray:none;stroke-dashoffset:0;stroke-opacity:1"
       id="rect8"
       width="7.626636"
       height="23.070208"
       x="220.6647"
       y="236.95573"
       transform="scale(0.26458333)" />
    <text
       xml:space="preserve"
       style="font-size:3.52777px;fill:#000000;fill-opacity:1;stroke:none;stroke-width:0.645999;stroke-dasharray:none;stroke-dashoffset:0;stroke-opacity:1"
       x="161.58507"
       y="73.554169"
       id="text8"><tspan
         sodipodi:role="line"
         id="tspan8"
         x="161.58507"
         y="73.554169"
         style="font-size:3.52777px;stroke-width:0.645999">$t$</tspan></text>
    <text
       xml:space="preserve"
       style="font-size:3.52777px;fill:#000000;fill-opacity:1;stroke:none;stroke-width:0.645999;stroke-dasharray:none;stroke-dashoffset:0;stroke-opacity:1"
       x="52.170471"
       y="38.168892"
       id="text8-1"><tspan
         sodipodi:role="line"
         id="tspan8-5"
         x="52.170471"
         y="38.168892"
         style="font-size:3.52777px;stroke-width:0.645999">$u$</tspan></text>
    <text
       xml:space="preserve"
       style="font-size:1.41111px;fill:#000000;fill-opacity:1;stroke:none;stroke-width:0.645999;stroke-dasharray:none;stroke-dashoffset:0;stroke-opacity:1"
       x="135.01416"
       y="48.99884"
       id="text8-1-3-1-1-0"><tspan
         sodipodi:role="line"
         id="tspan8-5-9-9-0-9"
         x="135.01416"
         y="48.99884"
         style="font-size:1.41111px;stroke-width:0.645999">$\Delta u\approx\mathrm{0,7\,V}$</tspan></text>
    <path
       style="fill:#ff7f2a;fill-opacity:0.5;stroke:#000000;stroke-width:0.3;stroke-linecap:butt;stroke-linejoin:miter;stroke-miterlimit:4;stroke-dasharray:1.2, 1.2;stroke-dashoffset:0;stroke-opacity:1;paint-order:normal"
       d="m 131.47059,43.666128 h -9.7042"
       id="path11-2-0-46"
       sodipodi:nodetypes="cc" />
    <path
       style="fill:#ff7f2a;fill-opacity:0.5;stroke:#000000;stroke-width:0.3;stroke-linecap:butt;stroke-linejoin:miter;stroke-miterlimit:4;stroke-dasharray:1.2, 1.2;stroke-dashoffset:0;stroke-opacity:1;paint-order:normal"
       d="m 131.47059,51.320601 h -9.7042"
       id="path11-2-0-46-9"
       sodipodi:nodetypes="cc" />
    <path
       style="fill:#ff7f2a;fill-opacity:0.5;stroke:#000000;stroke-width:0.3;stroke-linecap:butt;stroke-linejoin:miter;stroke-miterlimit:4;stroke-dasharray:none;stroke-opacity:1;marker-start:url(#Triangle-5-4);marker-end:url(#Triangle-5-2);paint-order:normal"
       d="m 132.8194,50.276315 v -5.50394"
       id="path11-2-0-4"
       sodipodi:nodetypes="cc" />
    <g
       id="g2742"
       transform="translate(-48.267104,0.61415889)">
      <text
         xml:space="preserve"
         style="font-size:3.52777px;fill:#000000;fill-opacity:1;stroke:none;stroke-width:0.645999;stroke-dasharray:none;stroke-dashoffset:0;stroke-opacity:1"
         x="134.36621"
         y="44.450882"
         id="text8-1-3-1"><tspan
           sodipodi:role="line"
           id="tspan8-5-9-9"
           x="134.36621"
           y="44.450882"
           style="font-size:3.52777px;stroke-width:0.645999">$u_\mathrm{E}$</tspan></text>
      <text
         xml:space="preserve"
         style="font-size:3.52777px;fill:#000000;fill-opacity:1;stroke:none;stroke-width:0.645999;stroke-dasharray:none;stroke-dashoffset:0;stroke-opacity:1"
         x="134.36621"
         y="53.169212"
         id="text8-1-3-1-1"><tspan
           sodipodi:role="line"
           id="tspan8-5-9-9-0"
           x="134.36621"
           y="53.169212"
           style="font-size:3.52777px;stroke-width:0.645999">$u_\mathrm{R}$</tspan></text>
      <path
         style="fill:#ff7f2a;fill-opacity:0.5;stroke:#000000;stroke-width:0.3;stroke-linecap:butt;stroke-linejoin:miter;stroke-miterlimit:4;stroke-dasharray:none;stroke-opacity:1;marker-end:url(#Triangle-5);paint-order:normal"
         d="m 133.80095,42.992057 h -9.7042"
         id="path11-2-0"
         sodipodi:nodetypes="cc" />
      <path
         style="fill:#ff7f2a;fill-opacity:0.5;stroke:#000000;stroke-width:0.3;stroke-linecap:butt;stroke-linejoin:miter;stroke-miterlimit:4;stroke-dasharray:none;stroke-opacity:1;marker-end:url(#Triangle-5-4);paint-order:normal"
         d="m 133.80095,51.616051 h -7.91827"
         id="path11-2-0-6"
         sodipodi:nodetypes="cc" />
    </g>
    <path
       id="path2"
       style="fill:none;stroke:#1a5b90;stroke-width:1.45934;stroke-dasharray:none;stroke-dashoffset:0;stroke-opacity:1"
       d="m 449.26769,192.00256 c -5.42743,0.0329 -10.8555,4.82342 -16.28312,13.73354 -6.11598,10.04114 -12.23172,25.23108 -18.3477,42.52658 h 69.25603 c -4.56358,-12.89361 -9.12778,-24.69409 -13.69164,-33.96381 -6.203,-12.59899 -12.40442,-20.48855 -18.60741,-22.01855 -0.77538,-0.19138 -1.55082,-0.28246 -2.32616,-0.27776 z m -176.78067,0.0247 c -2.32612,-0.0106 -4.65235,0.83208 -6.97848,2.54733 -6.20299,4.57399 -12.40628,15.29217 -18.60927,29.98015 -3.01271,7.13425 -6.02475,15.18867 -9.03746,23.7079 h 69.25416 c -1.4634,-4.14027 -2.92733,-8.17647 -4.39074,-12.03658 -6.20299,-16.36299 -12.40442,-29.65473 -18.60741,-37.12372 -3.87687,-4.66875 -7.75393,-7.05741 -11.6308,-7.07508 z"
       transform="matrix(0.276581,0,0,0.27163599,-2.7431299,-1.01116)"
       sodipodi:nodetypes="scccscssscccccs" />
    <path
       style="fill:#000000;fill-opacity:0;stroke:#000000;stroke-width:0.5;stroke-linecap:butt;stroke-miterlimit:50;stroke-dasharray:none;stroke-opacity:1;marker-start:url(#marker28)"
       d="M 18.269366,44.680306 V 117.01023"
       id="path1-1-2-3-4"
       transform="matrix(1,0,0,0.78778772,42.132718,2.7371003)" />
    <path
       style="fill:none;stroke:#000000;stroke-width:1.45933553;stroke-dasharray:none;stroke-dashoffset:0;stroke-opacity:1"
       d="m 228.291,248.263 c 6.203,-18.608 12.406,-37.155 18.609,-51.843 6.203,-14.689 12.405,-25.406 18.608,-29.98 6.203,-4.575 12.406,-2.943 18.609,4.526 6.203,7.469 12.405,20.761 18.608,37.124 6.203,16.363 12.406,35.71 18.609,54.066 6.203,18.356 12.405,35.6 18.608,48.207 6.203,12.608 12.406,20.476 18.609,22.019 6.203,1.542 12.405,-3.284 18.608,-13.456 6.203,-10.173 12.406,-25.658 18.609,-43.256 6.203,-17.598 12.405,-37.211 18.608,-54.813 6.203,-17.603 12.406,-33.073 18.609,-43.256 6.203,-10.183 12.405,-14.987 18.608,-13.456 6.203,1.531 12.406,9.42 18.609,22.018 6.203,12.599 12.405,29.854 18.608,48.207 6.203,18.354 12.406,37.698 18.609,54.066 6.203,16.369 12.405,29.644 18.608,37.125 6.203,7.48 12.406,9.088 18.609,4.526 6.203,-4.562 12.405,-15.299 18.608,-29.98 6.203,-14.681 12.406,-33.235 18.609,-51.844"
       title="sin(x)*3"
       id="path1"
       transform="matrix(0.276581,0,0,0.271636,-2.74313,-1.01116)" />
    <path
       style="fill:#000000;fill-opacity:0;stroke:#000000;stroke-width:0.443787;stroke-linecap:butt;stroke-miterlimit:50;stroke-dasharray:none;stroke-opacity:1;marker-start:url(#marker28-2)"
       d="m 161.92212,66.426011 -101.520036,0"
       id="path1-1-2-3-4-9"
       sodipodi:nodetypes="cc" />
  </g>
</svg>
