<?xml version="1.0" encoding="UTF-8" standalone="no"?>
<!-- Created with Inkscape (http://www.inkscape.org/) -->

<svg
   version="1.1"
   id="svg1"
   width="1440"
   height="1440"
   viewBox="0 0 1440 1440"
   sodipodi:docname="Erregerfeld neu.svg"
   inkscape:version="1.3.2 (091e20e, 2023-11-25, custom)"
   inkscape:export-filename="Erregerfeld neu.pdf"
   inkscape:export-xdpi="96"
   inkscape:export-ydpi="96"
   xml:space="preserve"
   xmlns:inkscape="http://www.inkscape.org/namespaces/inkscape"
   xmlns:sodipodi="http://sodipodi.sourceforge.net/DTD/sodipodi-0.dtd"
   xmlns:xlink="http://www.w3.org/1999/xlink"
   xmlns="http://www.w3.org/2000/svg"
   xmlns:svg="http://www.w3.org/2000/svg"><defs
     id="defs1"><color-profile
       name="Adobe-RGB-1998"
       xlink:href="../../../../Windows/system32/spool/drivers/color/AdobeRGB1998.icc"
       id="color-profile2" /><inkscape:path-effect
       effect="fillet_chamfer"
       id="path-effect18"
       is_visible="true"
       lpeversion="1"
       nodesatellites_param="F,0,0,1,0,3,0,1 @ F,0,0,1,0,3,0,1 @ F,0,0,1,0,3,0,1 @ F,0,0,1,0,3,0,1 @ F,0,0,1,0,3,0,1 @ F,0,0,1,0,3,0,1 @ F,0,0,1,0,3,0,1 @ F,0,0,1,0,3,0,1 @ F,0,0,1,0,3,0,1 @ F,0,0,1,0,3,0,1"
       radius="3"
       unit="px"
       method="auto"
       mode="F"
       chamfer_steps="1"
       flexible="false"
       use_knot_distance="true"
       apply_no_radius="true"
       apply_with_radius="true"
       only_selected="false"
       hide_knots="false" /><inkscape:path-effect
       effect="fillet_chamfer"
       id="path-effect16"
       is_visible="true"
       lpeversion="1"
       nodesatellites_param="F,0,0,1,0,5,0,1 @ F,0,0,1,0,5,0,1 @ F,0,0,1,0,5,0,1 @ F,0,0,1,0,5,0,1 @ F,0,0,1,0,5,0,1 @ F,0,0,1,0,5,0,1 @ F,0,0,1,0,5,0,1 @ F,0,0,1,0,5,0,1 @ F,0,0,1,0,5,0,1 @ F,0,0,1,0,5,0,1"
       radius="5"
       unit="px"
       method="auto"
       mode="F"
       chamfer_steps="1"
       flexible="false"
       use_knot_distance="true"
       apply_no_radius="true"
       apply_with_radius="true"
       only_selected="false"
       hide_knots="false" /><inkscape:path-effect
       effect="fillet_chamfer"
       id="path-effect14"
       is_visible="true"
       lpeversion="1"
       nodesatellites_param="F,0,0,1,0,6,0,1 @ F,0,0,1,0,6,0,1 @ F,0,0,1,0,6,0,1 @ F,0,0,1,0,6,0,1 @ F,0,0,1,0,6,0,1 @ F,0,0,1,0,6,0,1 @ F,0,0,1,0,6,0,1 @ F,0,0,1,0,6,0,1 @ F,0,0,1,0,6,0,1 @ F,0,0,1,0,6,0,1 @ F,0,0,1,0,6,0,1 @ F,0,0,1,0,6,0,1"
       radius="6"
       unit="px"
       method="auto"
       mode="F"
       chamfer_steps="1"
       flexible="false"
       use_knot_distance="true"
       apply_no_radius="true"
       apply_with_radius="true"
       only_selected="false"
       hide_knots="false" /><inkscape:path-effect
       effect="fillet_chamfer"
       id="path-effect10"
       is_visible="true"
       lpeversion="1"
       nodesatellites_param="F,0,0,1,0,3,0,1 @ F,0,0,1,0,3,0,1 @ F,0,0,1,0,3,0,1 @ F,0,0,1,0,3,0,1 @ F,0,0,1,0,3,0,1 @ F,0,0,1,0,3,0,1 @ F,0,0,1,0,3,0,1 @ F,0,0,1,0,3,0,1 @ F,0,0,1,0,3,0,1 @ F,0,0,1,0,3,0,1"
       radius="3"
       unit="px"
       method="auto"
       mode="F"
       chamfer_steps="1"
       flexible="false"
       use_knot_distance="true"
       apply_no_radius="true"
       apply_with_radius="true"
       only_selected="false"
       hide_knots="false" /><inkscape:path-effect
       effect="fillet_chamfer"
       id="path-effect16-91"
       is_visible="true"
       lpeversion="1"
       nodesatellites_param="F,0,0,1,0,6,0,1 @ F,0,0,1,0,6,0,1 @ F,0,0,1,0,6,0,1 @ F,0,0,1,0,6,0,1 @ F,0,0,1,0,6,0,1 @ F,0,0,1,0,6,0,1 @ F,0,0,1,0,6,0,1 @ F,0,0,1,0,6,0,1 @ F,0,0,1,0,6,0,1 @ F,0,0,1,0,6,0,1 @ F,0,0,1,0,6,0,1 @ F,0,0,1,0,6,0,1"
       radius="6"
       unit="px"
       method="auto"
       mode="F"
       chamfer_steps="1"
       flexible="false"
       use_knot_distance="true"
       apply_no_radius="true"
       apply_with_radius="true"
       only_selected="false"
       hide_knots="false" /><marker
       style="overflow:visible"
       id="marker3"
       refX="3"
       refY="0"
       orient="auto-start-reverse"
       inkscape:stockid="Concave triangle arrow"
       markerWidth="1"
       markerHeight="1"
       viewBox="0 0 1 1"
       inkscape:isstock="true"
       inkscape:collect="always"
       preserveAspectRatio="xMidYMid"><path
         transform="scale(0.7)"
         d="M -2,-4 9,0 -2,4 c 2,-2.33 2,-5.66 0,-8 z"
         style="fill:context-stroke;fill-rule:evenodd;stroke:none"
         id="path3-1" /></marker><inkscape:path-effect
       effect="fillet_chamfer"
       id="path-effect16-9"
       is_visible="true"
       lpeversion="1"
       nodesatellites_param="F,0,0,1,0,5,0,1 @ F,0,0,1,0,5,0,1 @ F,0,0,1,0,5,0,1 @ F,0,0,1,0,5,0,1 @ F,0,0,1,0,5,0,1 @ F,0,0,1,0,5,0,1 @ F,0,0,1,0,5,0,1 @ F,0,0,1,0,5,0,1 @ F,0,0,1,0,5,0,1 @ F,0,0,1,0,5,0,1"
       radius="5"
       unit="px"
       method="auto"
       mode="F"
       chamfer_steps="1"
       flexible="false"
       use_knot_distance="true"
       apply_no_radius="true"
       apply_with_radius="true"
       only_selected="false"
       hide_knots="false" /><marker
       style="overflow:visible"
       id="marker2"
       refX="3"
       refY="0"
       orient="auto-start-reverse"
       inkscape:stockid="Concave triangle arrow"
       markerWidth="1"
       markerHeight="1"
       viewBox="0 0 1 1"
       inkscape:isstock="true"
       inkscape:collect="always"
       preserveAspectRatio="xMidYMid"><path
         transform="scale(0.7)"
         d="M -2,-4 9,0 -2,4 c 2,-2.33 2,-5.66 0,-8 z"
         style="fill:context-stroke;fill-rule:evenodd;stroke:none"
         id="path2" /></marker><inkscape:path-effect
       effect="fillet_chamfer"
       id="path-effect16-9-4"
       is_visible="true"
       lpeversion="1"
       nodesatellites_param="F,0,0,1,0,6,0,1 @ F,0,0,1,0,6,0,1 @ F,0,0,1,0,6,0,1 @ F,0,0,1,0,6,0,1 @ F,0,0,1,0,6,0,1 @ F,0,0,1,0,6,0,1 @ F,0,0,1,0,6,0,1 @ F,0,0,1,0,6,0,1 @ F,0,0,1,0,6,0,1 @ F,0,0,1,0,6,0,1"
       radius="6"
       unit="px"
       method="auto"
       mode="F"
       chamfer_steps="1"
       flexible="false"
       use_knot_distance="true"
       apply_no_radius="true"
       apply_with_radius="true"
       only_selected="false"
       hide_knots="false" /></defs><sodipodi:namedview
     id="namedview1"
     pagecolor="#ffffff"
     bordercolor="#000000"
     borderopacity="0.25"
     inkscape:showpageshadow="2"
     inkscape:pageopacity="0.0"
     inkscape:pagecheckerboard="0"
     inkscape:deskcolor="#d1d1d1"
     showgrid="true"
     inkscape:zoom="1.1166395"
     inkscape:cx="1048.2345"
     inkscape:cy="675.24031"
     inkscape:window-width="3840"
     inkscape:window-height="2036"
     inkscape:window-x="-12"
     inkscape:window-y="-12"
     inkscape:window-maximized="1"
     inkscape:current-layer="g2"><inkscape:grid
       visible="true"
       id="grid1"
       units="px"
       originx="0"
       originy="0"
       spacingx="6"
       spacingy="6"
       empcolor="#0099e5"
       empopacity="0.89803922"
       color="#0099e5"
       opacity="0.14901961"
       empspacing="5"
       dotted="false"
       gridanglex="30"
       gridanglez="30" /></sodipodi:namedview><g
     inkscape:groupmode="layer"
     inkscape:label="Image"
     id="g1"><circle
       style="display:inline;fill:#acaeb5;fill-opacity:1;stroke-width:2.26772;stroke-linecap:round;stroke-linejoin:round"
       id="path3"
       cx="720"
       cy="720"
       r="269.1293" /><g
       id="g10"
       style="display:inline;fill:#acaeb5;fill-opacity:1"><path
         id="path1"
         style="fill:#acaeb5;fill-opacity:1;stroke:none;stroke-width:2.26772;stroke-linecap:round;stroke-linejoin:round;stroke-dasharray:none;stroke-opacity:1"
         d="m 710,130 -120,40 v 130 c 0,19.99998 -4.42478,20.73216 -37.53711,35 C 465.00023,372.68696 414.99996,427.38756 375,480 c -21.82158,28.70219 -19.99998,35.00001 0,45 19.99998,9.99999 75,42.625 75,42.625 0,0 15.00003,-27.62503 45,-57.625 29.99997,-29.99997 105.00012,-94.9999 225,-95.85742 119.99988,0.85752 195.00003,65.85745 225,95.85742 29.99997,29.99997 45,57.625 45,57.625 0,0 55,-32.62501 75,-42.625 20,-9.99999 21.8216,-16.29781 0,-45 C 1025,427.38756 974.99977,372.68696 887.53711,335 854.42478,320.73216 850,319.99998 850,300 V 170 L 730,130 c 0,0 -4.09814,8.4007 -10,21.57031 C 714.09814,138.4007 710,130 710,130 Z" /><path
         style="fill:#cc9f73;fill-opacity:1;stroke-width:2.26772;stroke-linecap:round;stroke-linejoin:round"
         d="m 510,240 h 70 c 0,0 0,55 0,60 0,5 0,15 -10,15 -10,0 -130,0 -130,0 v -35 z"
         id="path4" /><path
         style="fill:#cc9f73;fill-opacity:1;stroke-width:2.26772;stroke-linecap:round;stroke-linejoin:round"
         d="m 930,240 h -70 c 0,0 0,55 0,60 0,5 0,15 10,15 10,0 130,0 130,0 v -35 z"
         id="path4-6" /><g
         id="g18"
         transform="translate(1.7910884,7.5)"
         style="fill:#acaeb5;fill-opacity:1"><path
           style="fill:#acaeb5;fill-opacity:1;stroke:#fffcf8;stroke-width:8;stroke-linecap:round;stroke-linejoin:round;stroke-dasharray:none;stroke-opacity:1"
           d="m 510,240 c 60,60 60,60 60,60"
           id="path18" /><path
           style="fill:#acaeb5;fill-opacity:1;stroke:#fffcf8;stroke-width:8;stroke-linecap:round;stroke-linejoin:round;stroke-dasharray:none;stroke-opacity:1"
           d="m 510,300 c 60,-60 60,-60 60,-60"
           id="path18-3" /><circle
           style="fill:#ffffff;fill-opacity:1;stroke:none;stroke-width:8;stroke-linecap:round;stroke-linejoin:round;stroke-dasharray:none;stroke-opacity:1"
           id="path19"
           cx="898.20892"
           cy="270"
           r="15" /></g></g><path
       d="M 720,69.65625 A 650.34302,650.34302 0 0 0 69.65625,720 650.34302,650.34302 0 0 0 720,1370.3438 650.34302,650.34302 0 0 0 1370.3438,720 650.34302,650.34302 0 0 0 720,69.65625 Z M 720,190 A 530,530 0 0 1 1250,720 530,530 0 0 1 720,1250 530,530 0 0 1 190,720 530,530 0 0 1 720,190 Z"
       style="fill:#acaeb5;fill-opacity:1;stroke-width:2.26772;stroke-linecap:round;stroke-linejoin:round"
       id="path6" /><circle
       style="display:inline;fill:#c2bebd;fill-opacity:1;stroke-width:2.26772;stroke-linecap:round;stroke-linejoin:round"
       id="circle6"
       cx="720"
       cy="720"
       r="100" /><g
       id="g9"><path
         style="fill:#abadb5;fill-opacity:0.60000002;stroke-width:2.26772;stroke-linecap:round;stroke-linejoin:round"
         d="m 1270,690 h -160 l -20,10 v 40 l 20,10 h 160 z"
         id="path7" /><path
         style="fill:#cc9f72;fill-opacity:0.60000002;stroke-width:2.26772;stroke-linecap:round;stroke-linejoin:round"
         d="m 1110,685 h 120 v -85 h -90 l -30,10 z"
         id="path8" /><path
         style="fill:#cca073;fill-opacity:0.60000002;stroke-width:2.26772;stroke-linecap:round;stroke-linejoin:round"
         d="m 1110,755 h 120 v 85 h -90 l -30,-10 z"
         id="path9" /></g><use
       x="0"
       y="0"
       xlink:href="#g9"
       id="use9"
       transform="matrix(-1,0,0,1,1440,0)" /><use
       x="0"
       y="0"
       xlink:href="#g10"
       id="use10"
       transform="matrix(1,0,0,-1,1.7503547e-5,1440)" /><g
       id="g2"
       inkscape:label="magnetfeld"
       transform="matrix(8.0514213,0,0,8.0514213,73.248665,75.819432)"
       style="stroke-width:0.469423"><path
         style="display:inline;fill:none;fill-opacity:1;stroke:#f57000;stroke-width:0.993613;stroke-linecap:round;stroke-linejoin:round;stroke-dasharray:none;stroke-dashoffset:0;stroke-opacity:1;marker-end:url(#marker2)"
         d="m 87.446181,129.19071 -0.03267,7.73147 a 16.137568,16.137568 110.63738 0 1 -3.964287,10.52596 l -3.108765,3.57211 a 11.265499,11.265499 102.99294 0 0 -2.381287,10.32029 l 0.502611,1.86967 a 12.451886,12.451886 49.225878 0 0 7.060069,8.18664 l 6.13499,2.66738 a 9.1512711,9.1512711 56.749283 0 1 5.50242,8.39236 v 8.86588 c 0,3.31371 -2.712486,5.85561 -5.890593,4.9503 -15.121159,-4.3074 -47.289373,-22.29715 -50.50251,-61.77012 -0.268786,-3.302 -0.264206,-8.68409 0.0122,-11.98545 3.255143,-38.879517 34.759047,-55.794347 49.733058,-59.83399 3.191286,-0.860935 5.902638,1.697322 5.902638,5.01103 v 8.13174 a 9.7023423,9.7023423 121.73295 0 1 -5.368012,8.680382 l -5.658596,2.825477 a 13.769504,13.769504 129.92095 0 0 -7.05965,8.436975 l -0.342775,1.166453 a 9.3672248,9.3672248 73.735173 0 0 2.830132,9.700393 l 2.051235,1.78906 a 13.330606,13.330606 65.326474 0 1 4.567992,9.94362 907.23556,907.23556 89.937526 0 1 0.0118,10.82237 z"
         id="path1-2"
         transform="translate(-29.500235,-49.500049)"
         sodipodi:nodetypes="ccccccccccccc"
         inkscape:path-effect="#path-effect16-91"
         inkscape:original-d="m 87.471532,123.19076 -0.08337,19.73137 -10.986637,12.62413 3.617909,13.45823 17.13983,7.4521 v 20.86588 c -10,0 -56.350882,-18.27986 -56.651673,-68.81282 0.390498,-50.000001 45.906463,-66.815409 55.906463,-66.81541 v 20.13174 l -16.39462,8.186241 -3.726051,12.679639 11.094775,9.67666 z" /><path
         style="display:inline;fill:none;fill-opacity:1;stroke:#f57300;stroke-width:0.882742;stroke-linecap:round;stroke-linejoin:round;stroke-dasharray:none;stroke-dashoffset:0;stroke-opacity:1;marker-end:url(#marker3)"
         d="m 93.181821,130.73647 -0.211322,-13.51481 a 15.11609,15.11609 70.801338 0 0 -3.122083,-8.96608 l -2.808559,-3.65998 c -1.681106,-2.19074 -1.543691,-5.650011 0.618069,-7.36385 2.060243,-1.633357 4.18113,-2.906042 6.491464,-4.17485 2.419771,-1.328909 4.404345,-4.602489 4.404345,-7.363913 V 70.521972 c 0,-2.761424 -2.251052,-5.012293 -4.979977,-4.606427 -19.320404,2.873473 -50.454564,21.572564 -53.322208,59.089515 -0.210418,2.75287 -0.217024,7.23639 -0.01364,9.98978 2.772272,37.53014 34.019389,56.24501 53.354205,59.7688 2.71467,0.49475 4.961617,-1.6508 4.961617,-4.41222 v -15.17101 c 0,-2.76142 -2.126472,-5.72776 -4.600685,-6.95027 -2.347839,-1.16007 -4.766143,-2.6124 -6.702743,-4.23037 -2.106111,-1.75958 -1.727775,-5.39259 0.155364,-7.41231 l 2.444597,-2.62189 a 12.6946,12.6946 111.49791 0 0 3.409725,-8.65702 v -4.57269 a 639.57579,639.57579 89.552089 0 0 -0.07817,-9.99939 z"
         id="path1-9"
         transform="matrix(1.1261752,0,0,-1.1250234,-38.113274,226.75264)"
         sodipodi:nodetypes="ccccccccccc"
         inkscape:path-effect="#path-effect16-9"
         inkscape:original-d="m 93.259993,135.73586 -0.367666,-23.51359 -8.896381,-11.59336 c 4.47491,-4.825112 8.870166,-6.870221 14.557789,-9.935923 V 65.521972 c -19.091379,10e-7 -58.130178,20.034187 -58.51258,64.477708 0.253576,44.44352 39.421201,64.46291 58.51258,65.35174 v -25.17101 c -4.808142,-1.68066 -12.279429,-5.5931 -14.557789,-9.93593 l 9.264047,-9.93593 z" /><path
         style="display:inline;fill:none;fill-opacity:1;stroke:#f57300;stroke-width:0.8083327;stroke-linecap:round;stroke-linejoin:round;stroke-dasharray:none;stroke-dashoffset:0;stroke-opacity:1;marker-end:url(#marker2)"
         d="m 97.727929,130.46029 -3e-6,-21.51488 a 23.273748,23.273748 82.655035 0 0 -0.760764,-5.90194 L 96.084284,99.675726 A 4.5712329,4.5712329 108.58609 0 1 97.6831,94.92112 5.1217197,5.1217197 110.06907 0 0 99.21917,90.716582 l 0.01402,-21.514877 c 0.0011,-1.656854 -1.340568,-2.934064 -2.98824,-2.761501 -28.212517,2.954727 -56.089865,25.756583 -57.288028,60.559946 -0.057,1.65574 -0.04384,4.34342 0.02748,5.99861 1.501378,34.8436 29.031722,58.36051 57.220424,61.36447 1.647343,0.17555 2.991048,-1.10193 2.992399,-2.75878 l 0.01754,-21.51487 a 6.1633577,6.1633577 64.092312 0 0 -2.357134,-4.85267 3.8079747,3.8079747 79.334695 0 1 -0.773351,-4.10648 l 0.882878,-3.36774 a 23.273765,23.273765 97.344972 0 0 0.760765,-5.90194 l 5e-6,-15.40046 z"
         id="path1-9-6"
         transform="matrix(1.2397408,0,0,-1.2187754,-45.300963,238.94037)"
         sodipodi:nodetypes="ccccccccccc"
         inkscape:path-effect="#path-effect10"
         inkscape:original-d="m 97.727929,133.46029 -3e-6,-27.51488 -2.404406,-9.171621 3.893695,-3.057208 0.01793,-27.514875 c -30.002106,1.640991 -60.678119,26.05517 -60.315096,63.797974 9.13e-4,37.74281 30.272626,62.96378 60.274732,64.60477 l 0.02243,-27.51487 -3.893695,-3.05721 2.404406,-9.17162 z" /></g><g
       id="g13"
       inkscape:label="magnetfeld"
       transform="matrix(-8.0514213,0,0,8.0514213,1369.4174,76.380792)"
       style="stroke-width:0.469423"><path
         style="display:inline;fill:none;fill-opacity:1;stroke:#f57400;stroke-width:0.993613;stroke-linecap:round;stroke-linejoin:round;stroke-dasharray:none;stroke-dashoffset:0;stroke-opacity:1;marker-end:url(#marker2)"
         d="m 87.446252,129.13509 -0.03281,7.78709 a 16.137275,16.137275 110.63704 0 1 -3.964216,10.52596 l -3.108765,3.57211 a 11.265499,11.265499 102.99294 0 0 -2.381287,10.32029 l 0.502611,1.86967 a 12.451886,12.451886 49.225878 0 0 7.060069,8.18664 l 6.13499,2.66738 a 9.1512711,9.1512711 56.749283 0 1 5.50242,8.39236 v 8.86588 c 0,3.31371 -2.712486,5.85561 -5.890593,4.9503 -15.121159,-4.3074 -47.289373,-22.29715 -50.50251,-61.77012 -0.268786,-3.302 -0.264206,-8.68409 0.0122,-11.98545 3.255143,-38.879517 34.759047,-55.794347 49.733058,-59.83399 3.191286,-0.860935 5.902638,1.697322 5.902638,5.01103 v 8.13174 a 9.7023423,9.7023423 121.73295 0 1 -5.368012,8.680382 l -5.658596,2.825477 a 13.769504,13.769504 129.92095 0 0 -7.05965,8.436975 l -0.342775,1.166453 a 9.3672248,9.3672248 73.735173 0 0 2.830132,9.700393 l 2.051235,1.78906 a 13.331315,13.331315 65.325334 0 1 4.568231,9.94362 900.46566,900.46566 89.938095 0 1 0.01163,10.76675 z"
         id="path11"
         transform="translate(-29.500235,-49.500049)"
         sodipodi:nodetypes="ccccccccccccc"
         inkscape:path-effect="#path-effect14"
         inkscape:original-d="m 87.471532,123.13514 -0.08337,19.78699 -10.986637,12.62413 3.617909,13.45823 17.13983,7.4521 v 20.86588 c -10,0 -56.350882,-18.27986 -56.651673,-68.81282 0.390498,-50.000001 45.906463,-66.815409 55.906463,-66.81541 v 20.13174 l -16.39462,8.186241 -3.726051,12.679639 11.094775,9.67666 z" /><path
         style="display:inline;fill:none;fill-opacity:1;stroke:#f57300;stroke-width:0.882742;stroke-linecap:round;stroke-linejoin:round;stroke-dasharray:none;stroke-dashoffset:0;stroke-opacity:1;marker-end:url(#marker3)"
         d="m 93.181821,130.73647 -0.211322,-13.51481 a 15.11609,15.11609 70.801338 0 0 -3.122083,-8.96608 l -2.808559,-3.65998 c -1.681106,-2.19074 -1.543691,-5.650011 0.618069,-7.36385 2.060243,-1.633357 4.18113,-2.906042 6.491464,-4.17485 2.419771,-1.328909 4.404345,-4.602489 4.404345,-7.363913 V 70.521972 c 0,-2.761424 -2.251052,-5.012293 -4.979977,-4.606427 -19.320404,2.873473 -50.454564,21.572564 -53.322208,59.089515 -0.210418,2.75287 -0.217024,7.23639 -0.01364,9.98978 2.772272,37.53014 34.019389,56.24501 53.354205,59.7688 2.71467,0.49475 4.961617,-1.6508 4.961617,-4.41222 v -15.17101 c 0,-2.76142 -2.126472,-5.72776 -4.600685,-6.95027 -2.347839,-1.16007 -4.766143,-2.6124 -6.702743,-4.23037 -2.106111,-1.75958 -1.727775,-5.39259 0.155364,-7.41231 l 2.444597,-2.62189 a 12.6946,12.6946 111.49791 0 0 3.409725,-8.65702 v -4.57269 a 639.57579,639.57579 89.552089 0 0 -0.07817,-9.99939 z"
         id="path12"
         transform="matrix(1.1261752,0,0,-1.1250234,-38.113274,226.75264)"
         sodipodi:nodetypes="ccccccccccc"
         inkscape:path-effect="#path-effect16"
         inkscape:original-d="m 93.259993,135.73586 -0.367666,-23.51359 -8.896381,-11.59336 c 4.47491,-4.825112 8.870166,-6.870221 14.557789,-9.935923 V 65.521972 c -19.091379,10e-7 -58.130178,20.034187 -58.51258,64.477708 0.253576,44.44352 39.421201,64.46291 58.51258,65.35174 v -25.17101 c -4.808142,-1.68066 -12.279429,-5.5931 -14.557789,-9.93593 l 9.264047,-9.93593 z" /><path
         style="display:inline;fill:none;fill-opacity:1;stroke:#f57300;stroke-width:0.808333;stroke-linecap:round;stroke-linejoin:round;stroke-dasharray:none;stroke-dashoffset:0;stroke-opacity:1;marker-end:url(#marker2)"
         d="m 97.727929,130.46029 -3e-6,-21.51488 a 23.273748,23.273748 82.655035 0 0 -0.760764,-5.90194 L 96.084284,99.675726 A 4.5712329,4.5712329 108.58609 0 1 97.6831,94.92112 5.1217197,5.1217197 110.06907 0 0 99.21917,90.716582 l 0.01402,-21.514877 c 0.0011,-1.656854 -1.340568,-2.934064 -2.98824,-2.761501 -28.212517,2.954727 -56.089865,25.756583 -57.288028,60.559946 -0.057,1.65574 -0.04384,4.34342 0.02748,5.99861 1.501378,34.8436 29.031722,58.36051 57.220424,61.36447 1.647343,0.17555 2.991048,-1.10193 2.992399,-2.75878 l 0.01754,-21.51487 a 6.1633577,6.1633577 64.092312 0 0 -2.357134,-4.85267 3.8079747,3.8079747 79.334695 0 1 -0.773351,-4.10648 l 0.882878,-3.36774 a 23.273765,23.273765 97.344972 0 0 0.760765,-5.90194 l 5e-6,-15.40046 z"
         id="path13"
         transform="matrix(1.2397408,0,0,-1.2187754,-45.300963,238.94037)"
         sodipodi:nodetypes="ccccccccccc"
         inkscape:path-effect="#path-effect18"
         inkscape:original-d="m 97.727929,133.46029 -3e-6,-27.51488 -2.404406,-9.171621 3.893695,-3.057208 0.01793,-27.514875 c -30.002106,1.640991 -60.678119,26.05517 -60.315096,63.797974 9.13e-4,37.74281 30.272626,62.96378 60.274732,64.60477 l 0.02243,-27.51487 -3.893695,-3.05721 2.404406,-9.17162 z" /></g></g></svg>
