<?xml version="1.0" encoding="UTF-8" standalone="no"?>
<!-- Created with Inkscape (http://www.inkscape.org/) -->

<svg
   width="328.89044mm"
   height="143.58841mm"
   viewBox="0 0 328.89043 143.58841"
   version="1.1"
   id="svg1"
   xml:space="preserve"
   inkscape:version="1.3.2 (091e20e, 2023-11-25, custom)"
   sodipodi:docname="FolienSpannungsverlaufGleichrichterf.svg"
   inkscape:export-filename="Abb-14 Vorgänge innerhalb eines pn-Übergangs.pdf"
   inkscape:export-xdpi="96"
   inkscape:export-ydpi="96"
   xmlns:inkscape="http://www.inkscape.org/namespaces/inkscape"
   xmlns:sodipodi="http://sodipodi.sourceforge.net/DTD/sodipodi-0.dtd"
   xmlns="http://www.w3.org/2000/svg"
   xmlns:svg="http://www.w3.org/2000/svg"><sodipodi:namedview
     id="namedview1"
     pagecolor="#ffffff"
     bordercolor="#000000"
     borderopacity="0.25"
     inkscape:showpageshadow="2"
     inkscape:pageopacity="0.0"
     inkscape:pagecheckerboard="0"
     inkscape:deskcolor="#d1d1d1"
     inkscape:document-units="mm"
     showgrid="true"
     inkscape:zoom="0.5"
     inkscape:cx="718"
     inkscape:cy="309"
     inkscape:window-width="1920"
     inkscape:window-height="1017"
     inkscape:window-x="1912"
     inkscape:window-y="-8"
     inkscape:window-maximized="1"
     inkscape:current-layer="use30-1-4-2"><inkscape:grid
       id="grid1"
       units="mm"
       originx="-3.8135073"
       originy="-1.4115904"
       spacingx="0.99999998"
       spacingy="1"
       empcolor="#0099e5"
       empopacity="0.30196078"
       color="#0099e5"
       opacity="0.14901961"
       empspacing="5"
       dotted="false"
       gridanglex="30"
       gridanglez="30"
       visible="true" /></sodipodi:namedview><defs
     id="defs1"><marker
       style="overflow:visible"
       id="ConcaveTriangle"
       refX="0"
       refY="0"
       orient="auto-start-reverse"
       inkscape:stockid="Concave triangle arrow"
       markerWidth="1"
       markerHeight="1"
       viewBox="0 0 1 1"
       inkscape:isstock="true"
       inkscape:collect="always"
       preserveAspectRatio="xMidYMid"><path
         transform="scale(0.7)"
         d="M -2,-4 9,0 -2,4 c 2,-2.33 2,-5.66 0,-8 z"
         style="fill:context-stroke;fill-rule:evenodd;stroke:none"
         id="path7" /></marker><rect
       x="472.7533"
       y="422.84985"
       width="41.779789"
       height="21.920309"
       id="rect26" /></defs><g
     inkscape:label="Ebene 1"
     inkscape:groupmode="layer"
     id="layer1"
     transform="translate(-3.8135068,-1.4115873)"><text
       xml:space="preserve"
       transform="scale(0.26458333)"
       id="text26"
       style="font-size:16px;line-height:22.6771px;font-family:sans-serif;-inkscape-font-specification:sans-serif;text-align:center;letter-spacing:0px;word-spacing:0px;white-space:pre;shape-inside:url(#rect26);display:inline;fill:none;fill-opacity:1;fill-rule:evenodd;stroke:#000000;stroke-width:0.944882;stroke-linejoin:round;stroke-miterlimit:0;stroke-dasharray:none;stroke-opacity:1" /><g
       id="use30-1-4-2"
       transform="matrix(0.51576158,0,0,0.51576158,65.61624,5.738945)"><path
         style="fill:#000000;fill-rule:evenodd;stroke:#000000;stroke-width:0.96944;stroke-linejoin:round;stroke-miterlimit:0;stroke-dasharray:none;marker-start:url(#ConcaveTriangle)"
         d="M -107.83324,-1.4327263 V 270.01051"
         id="path1" /><path
         style="fill:#000000;fill-rule:evenodd;stroke:#000000;stroke-width:0.96944;stroke-linejoin:round;stroke-miterlimit:0;stroke-dasharray:none;marker-end:url(#ConcaveTriangle)"
         d="M -107.83324,134.28889 H 487.47778"
         id="path2"
         sodipodi:nodetypes="cc" /><text
         xml:space="preserve"
         style="font-size:8.20793px;line-height:13.5722px;font-family:sans-serif;-inkscape-font-specification:sans-serif;text-align:center;letter-spacing:0px;word-spacing:0px;text-anchor:middle;fill:#000000;fill-opacity:1;fill-rule:evenodd;stroke:none;stroke-width:0.969438;stroke-linejoin:round;stroke-miterlimit:0;stroke-dasharray:none;stroke-opacity:1"
         x="-88.470482"
         y="-2.0739706"
         id="text24"><tspan
           sodipodi:role="line"
           id="tspan24"
           style="stroke-width:0.96944"
           x="-88.470482"
           y="-2.0739706">$U [V]$</tspan></text><text
         xml:space="preserve"
         style="font-size:8.20793px;line-height:13.5722px;font-family:sans-serif;-inkscape-font-specification:sans-serif;text-align:center;letter-spacing:0px;word-spacing:0px;text-anchor:middle;fill:#000000;fill-opacity:1;fill-rule:evenodd;stroke:none;stroke-width:0.969438;stroke-linejoin:round;stroke-miterlimit:0;stroke-dasharray:none;stroke-opacity:1"
         x="500.28503"
         y="125.29626"
         id="text25"><tspan
           sodipodi:role="line"
           id="tspan25"
           style="stroke-width:0.96944"
           x="500.28503"
           y="125.29626">$t [ms]$</tspan></text><path
         style="fill:#000000;fill-rule:evenodd;stroke-width:0.969438;stroke-linejoin:round;stroke-miterlimit:0"
         d="m 47.277197,143.98329 v -19.3888"
         id="path3" /><path
         style="fill:#000000;fill-rule:evenodd;stroke:#000000;stroke-width:0.969438;stroke-linejoin:round;stroke-miterlimit:0;stroke-opacity:1"
         d="m -10.889215,130.41113 v 3.87777"
         id="path4"
         sodipodi:nodetypes="cc" /><path
         style="fill:#000000;fill-rule:evenodd;stroke:#000000;stroke-width:0.969438;stroke-linejoin:round;stroke-miterlimit:0;stroke-opacity:1"
         d="m 86.054806,130.41113 -10e-7,3.87777"
         id="path5"
         sodipodi:nodetypes="cc" /><path
         style="fill:#000000;fill-rule:evenodd;stroke:#010004;stroke-width:0.969438;stroke-linejoin:round;stroke-miterlimit:0;stroke-opacity:1"
         d="m 182.99882,134.2889 1e-5,-3.87777"
         id="path6"
         sodipodi:nodetypes="cc" /><path
         style="fill:#000000;fill-rule:evenodd;stroke:#000000;stroke-width:0.969438;stroke-linejoin:round;stroke-miterlimit:0;stroke-opacity:1"
         d="m -111.711,192.4553 h 3.87776"
         id="path14"
         sodipodi:nodetypes="cc" /><path
         style="fill:#000000;fill-rule:evenodd;stroke:#000000;stroke-width:0.969438;stroke-linejoin:round;stroke-miterlimit:0;stroke-opacity:1"
         d="m -111.711,211.84411 h 3.87776"
         id="path15"
         sodipodi:nodetypes="cc" /><path
         style="fill:#000000;fill-rule:evenodd;stroke:#000000;stroke-width:0.969438;stroke-linejoin:round;stroke-miterlimit:0;stroke-opacity:1"
         d="m -111.711,153.6777 h 3.87776"
         id="path17"
         sodipodi:nodetypes="cc" /><path
         style="fill:#000000;fill-rule:evenodd;stroke:#000000;stroke-width:0.969438;stroke-linejoin:round;stroke-miterlimit:0;stroke-opacity:1"
         d="m -111.711,173.0665 h 3.87776"
         id="path18" /><path
         style="fill:#000000;fill-rule:evenodd;stroke:#000000;stroke-width:0.969438;stroke-linejoin:round;stroke-miterlimit:0;stroke-opacity:1"
         d="M -107.83324,231.23291 H -111.711"
         id="path19" /><path
         style="fill:#000000;fill-rule:evenodd;stroke:#000000;stroke-width:0.969438;stroke-linejoin:round;stroke-miterlimit:0;stroke-opacity:1"
         d="m -111.711,95.511288 h 3.87776"
         id="path16-9"
         sodipodi:nodetypes="cc" /><path
         style="fill:#000000;fill-rule:evenodd;stroke:#000000;stroke-width:0.969438;stroke-linejoin:round;stroke-miterlimit:0;stroke-opacity:1"
         d="m -111.711,76.122485 h 3.87776"
         id="path16-1"
         sodipodi:nodetypes="cc" /><path
         style="fill:#000000;fill-rule:evenodd;stroke:#000000;stroke-width:0.969438;stroke-linejoin:round;stroke-miterlimit:0;stroke-opacity:1"
         d="m -111.711,56.733682 h 3.87776"
         id="path16-2"
         sodipodi:nodetypes="cc" /><path
         style="fill:#000000;fill-rule:evenodd;stroke:#000000;stroke-width:0.969438;stroke-linejoin:round;stroke-miterlimit:0;stroke-opacity:1"
         d="m -111.711,37.344879 h 3.87776"
         id="path16-0"
         sodipodi:nodetypes="cc" /><path
         style="fill:#000000;fill-rule:evenodd;stroke:#000000;stroke-width:0.969438;stroke-linejoin:round;stroke-miterlimit:0;stroke-opacity:1"
         d="m -111.711,17.956077 h 3.87776"
         id="path16-0-7"
         sodipodi:nodetypes="cc" /><path
         style="fill:#000000;fill-rule:evenodd;stroke:#000000;stroke-width:0.969438;stroke-linejoin:round;stroke-miterlimit:0;stroke-opacity:1"
         d="m -111.711,250.62171 h 3.87776"
         id="path16-0-5"
         sodipodi:nodetypes="cc" /><path
         style="fill:#000000;fill-rule:evenodd;stroke:#000000;stroke-width:0.969438;stroke-linejoin:round;stroke-miterlimit:0;stroke-opacity:1"
         d="m -111.711,114.90009 h 3.87776"
         id="path16-0-8"
         sodipodi:nodetypes="cc" /><text
         xml:space="preserve"
         style="font-size:8.20793px;line-height:13.5722px;font-family:sans-serif;-inkscape-font-specification:sans-serif;text-align:center;letter-spacing:0px;word-spacing:0px;text-anchor:middle;fill:#000000;fill-rule:evenodd;stroke:none;stroke-width:0.969438;stroke-linejoin:round;stroke-miterlimit:0;stroke-opacity:1"
         x="-117.60936"
         y="134.28889"
         id="text19"><tspan
           sodipodi:role="line"
           id="tspan19"
           style="stroke:none;stroke-width:0.96944"
           x="-117.60936"
           y="134.28889">0</tspan></text><text
         xml:space="preserve"
         style="font-size:8.20793px;line-height:13.5722px;font-family:sans-serif;-inkscape-font-specification:sans-serif;text-align:center;letter-spacing:0px;word-spacing:0px;text-anchor:middle;fill:#000000;fill-rule:evenodd;stroke:none;stroke-width:0.969438;stroke-linejoin:round;stroke-miterlimit:0;stroke-opacity:1"
         x="-117.52764"
         y="95.511292"
         id="text21"><tspan
           sodipodi:role="line"
           id="tspan21"
           style="stroke-width:0.96944"
           x="-117.52764"
           y="95.511292">2</tspan></text><text
         xml:space="preserve"
         style="font-size:8.20793px;line-height:13.5722px;font-family:sans-serif;-inkscape-font-specification:sans-serif;text-align:center;letter-spacing:0px;word-spacing:0px;text-anchor:middle;fill:#000000;fill-rule:evenodd;stroke:none;stroke-width:0.969438;stroke-linejoin:round;stroke-miterlimit:0;stroke-opacity:1"
         x="-117.52764"
         y="56.733685"
         id="text22"><tspan
           sodipodi:role="line"
           id="tspan22"
           style="stroke-width:0.96944"
           x="-117.52764"
           y="56.733685">4</tspan></text><text
         xml:space="preserve"
         style="font-size:8.20793px;line-height:13.5722px;font-family:sans-serif;-inkscape-font-specification:sans-serif;text-align:center;letter-spacing:0px;word-spacing:0px;text-anchor:middle;fill:#000000;fill-rule:evenodd;stroke:none;stroke-width:0.969438;stroke-linejoin:round;stroke-miterlimit:0;stroke-opacity:1"
         x="-117.57172"
         y="18.440796"
         id="text23"><tspan
           sodipodi:role="line"
           id="tspan23"
           style="stroke-width:0.96944"
           x="-117.57172"
           y="18.440796">6</tspan></text><text
         xml:space="preserve"
         style="font-size:8.20793px;line-height:13.5722px;font-family:sans-serif;-inkscape-font-specification:sans-serif;text-align:center;letter-spacing:0px;word-spacing:0px;text-anchor:middle;fill:#000000;fill-rule:evenodd;stroke:none;stroke-width:0.969438;stroke-linejoin:round;stroke-miterlimit:0;stroke-opacity:1"
         x="-119.66936"
         y="174.83371"
         id="text27"><tspan
           sodipodi:role="line"
           id="tspan26"
           style="stroke-width:0.96944"
           x="-119.66936"
           y="174.83371" /></text><text
         xml:space="preserve"
         style="font-size:8.20793px;line-height:13.5722px;font-family:sans-serif;-inkscape-font-specification:sans-serif;text-align:center;letter-spacing:0px;word-spacing:0px;text-anchor:middle;fill:#000000;fill-rule:evenodd;stroke:none;stroke-width:0.969438;stroke-linejoin:round;stroke-miterlimit:0;stroke-opacity:1"
         x="-117.52764"
         y="173.0665"
         id="text28"><tspan
           sodipodi:role="line"
           id="tspan28"
           style="stroke-width:0.96944"
           x="-117.52764"
           y="173.0665">2</tspan></text><text
         xml:space="preserve"
         style="font-size:8.20793px;line-height:13.5722px;font-family:sans-serif;-inkscape-font-specification:sans-serif;text-align:center;letter-spacing:0px;word-spacing:0px;text-anchor:middle;fill:#000000;fill-rule:evenodd;stroke:none;stroke-width:0.969438;stroke-linejoin:round;stroke-miterlimit:0;stroke-opacity:1"
         x="-117.52764"
         y="211.84412"
         id="text29"><tspan
           sodipodi:role="line"
           id="tspan29"
           style="stroke-width:0.96944"
           x="-117.52764"
           y="211.84412">4</tspan></text><text
         xml:space="preserve"
         style="font-size:8.20793px;line-height:13.5722px;font-family:sans-serif;-inkscape-font-specification:sans-serif;text-align:center;letter-spacing:0px;word-spacing:0px;text-anchor:middle;fill:#000000;fill-rule:evenodd;stroke:none;stroke-width:0.969438;stroke-linejoin:round;stroke-miterlimit:0;stroke-opacity:1"
         x="-117.52764"
         y="250.62172"
         id="text30"><tspan
           sodipodi:role="line"
           id="tspan30"
           style="stroke-width:0.96944"
           x="-117.52764"
           y="250.62172">6</tspan></text><path
         style="fill:#000000;fill-rule:evenodd;stroke:#000000;stroke-width:0.96944;stroke-linejoin:round;stroke-miterlimit:0;stroke-dasharray:none;stroke-opacity:1"
         d="m 279.94285,134.28889 v -3.87776"
         id="path31" /><path
         style="fill:#000000;fill-rule:evenodd;stroke:#000000;stroke-width:0.96944;stroke-linejoin:round;stroke-miterlimit:0;stroke-dasharray:none;stroke-opacity:1"
         d="m 376.88688,134.28889 v -3.87776"
         id="path32" /><path
         style="fill:#000000;fill-rule:evenodd;stroke:#000000;stroke-width:0.96944;stroke-linejoin:round;stroke-miterlimit:0;stroke-dasharray:none;stroke-opacity:1"
         d="m 473.83088,130.41113 v 3.87776"
         id="path33" /><path
         style="fill:none;fill-rule:evenodd;stroke:#0506f5;stroke-width:0.969438;stroke-linejoin:round;stroke-miterlimit:0;stroke-dasharray:none;stroke-opacity:1"
         d="m -107.833,134.289 v 0 c 0.648,-2.445 1.297,-4.889 1.945,-7.329 0.649,-2.44 1.297,-4.875 1.945,-7.3 0.649,-2.425 1.297,-4.841 1.946,-7.242 0.648,-2.401 1.297,-4.787 1.945,-7.155 0.6487,-2.367 1.2971,-4.715 1.9456,-7.0392 0.6484,-2.3242 1.2969,-4.6244 1.9453,-6.8962 0.6485,-2.2719 1.297,-4.5151 1.9454,-6.7256 0.6485,-2.2104 1.2969,-4.3879 1.9454,-6.5282 0.6484,-2.1403 1.2969,-4.2432 1.9453,-6.3048 0.6485,-2.0616 1.297,-4.0817 1.9454,-6.0564 0.6485,-1.9748 1.2969,-3.904 1.9454,-5.784 0.6484,-1.8801 1.2969,-3.7107 1.9453,-5.4886 0.6485,-1.7779 1.2969,-3.5027 1.9454,-5.1713 0.6485,-1.6687 1.2969,-3.2808 1.9454,-4.8336 0.6484,-1.5527 1.2969,-3.0458 1.9453,-4.4765 0.6485,-1.4307 1.2969,-2.7988 1.9454,-4.1018 0.6485,-1.303 1.2969,-2.5406 1.9454,-3.7107 0.6484,-1.1701 1.2969,-2.2723 1.9453,-3.3049 0.6485,-1.0326 1.2969,-1.995 1.9454,-2.886 0.6484,-0.8909 1.2969,-1.7098 1.9454,-2.4555 0.6484,-0.7457 1.2969,-1.4178 1.9453,-2.0154 0.6485,-0.5976 1.2969,-1.1202 1.9454,-1.5672 0.6484,-0.4471 1.2969,-0.8181 1.9454,-1.1128 0.6484,-0.2948 1.2969,-0.5128 1.9453,-0.654 0.6485,-0.1413 1.2969,-0.2054 1.9454,-0.1926 0.6484,0.0127 1.2969,0.1028 1.9453,0.2696 0.6485,0.1667 1.297,0.4106 1.9454,0.7307 0.6485,0.32 1.2969,0.7168 1.9454,1.1889 0.6484,0.4721 1.2969,1.0201 1.9453,1.6424 0.6485,0.6223 1.297,1.3193 1.9454,2.0893 0.6485,0.77 1.2969,1.6134 1.9454,2.528 0.6484,0.9147 1.2969,1.901 1.9453,2.9567 0.6485,1.0556 1.2969,2.181 1.9454,3.3735 0.6485,1.1924 1.2969,2.4524 1.9454,3.7769 0.6484,1.3246 1.2969,2.7141 1.9453,4.1654 0.6485,1.4514 1.2969,2.9649 1.9454,4.5373 0.6485,1.5725 1.2969,3.204 1.9454,4.8913 0.6484,1.6872 1.2969,3.4303 1.9453,5.2256 0.6485,1.7953 1.2969,3.6431 1.9454,5.5394 0.6484,1.8962 1.2969,3.8413 1.9454,5.831 0.6484,1.9897 1.2969,4.0243 1.9453,6.0995 0.6485,2.0752 1.2969,4.1913 1.9454,6.3438 0.6484,2.1525 1.2969,4.3417 1.9454,6.5629 0.6484,2.2213 1.2969,4.4748 1.9453,6.7559 0.6485,2.2812 1.2969,4.5901 1.9454,6.9221 0.6484,2.3321 1.2969,4.6871 1.9453,7.0611 0.6485,2.373 1.297,4.765 1.9454,7.171 0.6485,2.406 1.2969,4.825 1.9454,7.253 0.6484,2.429 1.2969,4.866 1.9453,7.307 0.6485,2.441 1.297,4.887 1.9454,7.331 0.64846,2.445 1.29692,4.888 1.94537,7.326 0.64846,2.438 1.29691,4.871 1.94537,7.293 0.64845,2.421 1.29691,4.833 1.94536,7.229 0.64846,2.396 1.29691,4.777 1.94537,7.137 0.64845,2.361 1.29691,4.702 1.945362,7.018 0.648455,2.316 1.29691,4.607 1.945368,6.87 0.64845,2.262 1.29691,4.495 1.94536,6.694 0.64846,2.2 1.29691,4.365 1.94537,6.493 0.64845,2.128 1.29691,4.217 1.94536,6.265 0.64846,2.048 1.29691,4.053 1.94537,6.013 0.64845,1.959 1.29694,3.873 1.94534,5.736 0.6485,1.864 1.2969,3.677 1.9454,5.437 0.6484,1.76 1.2969,3.467 1.9454,5.117 0.6484,1.649 1.2969,3.242 1.9453,4.775 0.6485,1.533 1.2969,3.005 1.9454,4.415 0.6484,1.41 1.2969,2.757 1.9453,4.038 0.6485,1.281 1.297,2.497 1.9454,3.644 0.6485,1.148 1.2969,2.227 1.9454,3.236 0.6484,1.009 1.2969,1.948 1.9453,2.815 0.6485,0.867 1.297,1.662 1.9454,2.383 0.6485,0.721 1.2969,1.368 1.9454,1.941 0.6484,0.573 1.2969,1.07 1.9453,1.492 0.6485,0.422 1.2969,0.767 1.9454,1.036 0.6485,0.27 1.2969,0.462 1.9454,0.578 0.6484,0.115 1.2969,0.154 1.9453,0.115 0.6485,-0.038 1.2969,-0.154 1.9454,-0.346 0.6485,-0.193 1.2969,-0.462 1.9454,-0.808 0.6484,-0.345 1.2969,-0.767 1.9453,-1.264 0.6485,-0.498 1.2969,-1.071 1.9454,-1.718 0.6484,-0.647 1.2969,-1.369 1.9454,-2.163 0.6484,-0.794 1.2969,-1.662 1.9453,-2.6 0.6485,-0.939 1.2969,-1.948 1.9454,-3.027 0.6484,-1.079 1.2969,-2.227 1.9454,-3.442 0.6484,-1.215 1.2969,-2.497 1.9453,-3.843 0.6485,-1.346 1.2969,-2.756 1.9454,-4.228 0.6484,-1.472 1.2969,-3.006 1.9453,-4.598 0.6485,-1.592 1.297,-3.242 1.9454,-4.948 0.6485,-1.706 1.2969,-3.467 1.9454,-5.28 0.6484,-1.812 1.2969,-3.677 1.9453,-5.589 0.6485,-1.912 1.297,-3.873 1.9454,-5.877 0.6485,-2.005 1.2969,-4.054 1.9454,-6.142 0.6484,-2.089 1.2969,-4.218 1.9453,-6.383 0.6485,-2.164 1.2969,-4.365 1.9454,-6.596 0.6485,-2.232 1.2969,-4.496 1.9454,-6.786 0.6484,-2.29 1.2969,-4.607 1.9453,-6.947 0.6485,-2.34 1.2969,-4.702 1.9454,-7.081 0.6485,-2.38 1.2969,-4.777 1.9454,-7.187 0.6484,-2.41 1.2969,-4.833 1.9453,-7.264 0.6485,-2.432 1.2969,-4.871 1.9454,-7.313 0.6484,-2.443 1.2969,-4.888 1.9454,-7.333 0.6484,-2.444 1.2969,-4.886 1.9453,-7.322 0.6485,-2.436 1.2969,-4.866 1.9454,-7.284 0.6484,-2.418 1.2969,-4.825 1.9453,-7.216 0.6485,-2.391 1.297,-4.765 1.9454,-7.119 0.6485,-2.354 1.2969,-4.6874 1.9454,-6.9952 0.6484,-2.3078 1.2969,-4.59 1.9453,-6.8424 0.6485,-2.2523 1.297,-4.4747 1.9456,-6.6627 0.648,-2.188 1.297,-4.3416 1.945,-6.4566 0.649,-2.1149 1.297,-4.1912 1.946,-6.2247 0.648,-2.0336 1.296,-4.0242 1.945,-5.9683 0.648,-1.944 1.297,-3.8412 1.945,-5.688 0.649,-1.8468 1.297,-3.6429 1.946,-5.3852 0.648,-1.7422 1.297,-3.4302 1.945,-5.0609 0.648,-1.6307 1.297,-3.2039 1.945,-4.7166 0.649,-1.5128 1.297,-2.9648 1.946,-4.3535 0.648,-1.3888 1.297,-2.7139 1.945,-3.9732 0.649,-1.2593 1.297,-2.4522 1.945,-3.577 0.649,-1.1248 1.297,-2.1809 1.946,-3.1666 0.648,-0.9858 1.297,-1.9008 1.945,-2.7437 0.649,-0.8429 1.297,-1.6132 1.946,-2.3098 0.648,-0.6967 1.296,-1.3192 1.945,-1.8668 0.648,-0.5477 1.297,-1.0199 1.945,-1.4164 0.649,-0.3964 1.297,-0.7166 1.946,-0.9603 0.648,-0.2437 1.297,-0.4104 1.945,-0.5004 0.648,-0.0899 1.297,-0.1026 1.945,-0.0385 0.649,0.0641 1.297,0.2055 1.946,0.4235 0.648,0.218 1.297,0.5129 1.945,0.8839 0.649,0.3709 1.297,0.8182 1.945,1.3406 0.649,0.5225 1.297,1.1204 1.946,1.7922 0.648,0.6719 1.297,1.418 1.945,2.2366 0.649,0.8186 1.297,1.71 1.946,2.6721 0.648,0.9621 1.296,1.9952 1.945,3.097 0.648,1.1017 1.297,2.2725 1.945,3.5095 0.649,1.2371 1.297,2.5408 1.946,3.9082 0.648,1.3674 1.297,2.7989 1.945,4.2913 0.648,1.4924 1.297,3.046 1.945,4.6574 0.649,1.6113 1.297,3.2809 1.946,5.0049 0.648,1.724 1.297,3.5028 1.945,5.3326 0.649,1.8297 1.297,3.7108 1.945,5.639 0.649,1.9283 1.297,3.9041 1.946,5.9232 0.648,2.0191 1.297,4.0818 1.945,6.1837 0.649,2.1019 1.297,4.2433 1.946,6.4197 0.648,2.1764 1.296,4.388 1.945,6.6302 0.648,2.2422 1.297,4.5152 1.945,6.8143 0.649,2.2991 1.297,4.6245 1.946,6.9709 0.648,2.347 1.297,4.716 1.945,7.101 0.648,2.386 1.297,4.788 1.945,7.202 0.649,2.414 1.297,4.841 1.946,7.275 0.648,2.433 1.297,4.874 1.945,7.318 0.649,2.443 1.297,4.889 1.946,7.332 0.648,2.444 1.296,4.885 1.945,7.318 0.648,2.434 1.297,4.86 1.945,7.275 0.649,2.414 1.297,4.816 1.946,7.202 0.648,2.385 1.297,4.753 1.945,7.1 0.648,2.347 1.297,4.673 1.945,6.972 0.649,2.299 1.297,4.572 1.946,6.814 0.648,2.242 1.297,4.454 1.945,6.63 0.649,2.177 1.297,4.318 1.945,6.42 0.649,2.102 1.297,4.164 1.946,6.184 0.648,2.019 1.297,3.994 1.945,5.923 0.649,1.928 1.297,3.809 1.946,5.639 0.648,1.83 1.296,3.608 1.945,5.332 0.648,1.725 1.297,3.394 1.945,5.005 0.649,1.612 1.297,3.165 1.946,4.658 0.648,1.492 1.297,2.923 1.945,4.291 0.648,1.368 1.297,2.671 1.945,3.908 0.649,1.237 1.297,2.408 1.946,3.51 0.648,1.102 1.297,2.134 1.945,3.097 0.649,0.962 1.297,1.853 1.945,2.672 0.649,0.818 1.297,1.564 1.946,2.236 0.648,0.672 1.297,1.27 1.945,1.793 0.649,0.522 1.297,0.969 1.946,1.34 0.648,0.371 1.296,0.666 1.945,0.884 0.648,0.218 1.297,0.359 1.945,0.424 0.649,0.064 1.297,0.051 1.946,-0.039 0.648,-0.09 1.297,-0.257 1.945,-0.5 0.648,-0.244 1.297,-0.564 1.945,-0.961 0.649,-0.396 1.297,-0.868 1.946,-1.416 0.648,-0.547 1.297,-1.17 1.945,-1.867 0.649,-0.696 1.297,-1.467 1.945,-2.31 0.649,-0.842 1.297,-1.758 1.946,-2.743 0.648,-0.986 1.297,-2.042 1.945,-3.167 0.649,-1.125 1.297,-2.318 1.946,-3.577 0.648,-1.259 1.296,-2.584 1.945,-3.973 0.648,-1.389 1.297,-2.841 1.945,-4.354 0.649,-1.512 1.297,-3.086 1.946,-4.716 0.648,-1.631 1.297,-3.319 1.945,-5.061 0.648,-1.742 1.297,-3.539 1.945,-5.385 0.649,-1.847 1.297,-3.744 1.946,-5.688 0.648,-1.944 1.297,-3.935 1.945,-5.969 0.649,-2.033 1.297,-4.109 1.945,-6.224 0.649,-2.115 1.297,-4.269 1.946,-6.457 0.648,-2.188 1.297,-4.41 1.945,-6.663 0.649,-2.252 1.297,-4.534 1.946,-6.842 0.648,-2.308 1.296,-4.641 1.945,-6.995 0.648,-2.354 1.297,-4.729 1.945,-7.119 0.649,-2.391 1.297,-4.798 1.946,-7.216 0.648,-2.419 1.297,-4.848 1.945,-7.284 0.648,-2.436 1.297,-4.879 1.945,-7.323 0.649,-2.444 1.297,-4.889 1.946,-7.332 0.648,-2.442 1.297,-4.882 1.945,-7.313 0.649,-2.431 1.297,-4.854 1.945,-7.264 0.649,-2.41 1.297,-4.807 1.946,-7.187 0.648,-2.38 1.297,-4.742 1.945,-7.081 0.649,-2.3398 1.297,-4.657 1.946,-6.9473 0.648,-2.2903 1.296,-4.5536 1.945,-6.7855 0.648,-2.2319 1.297,-4.4322 1.945,-6.5969 0.649,-2.1646 1.297,-4.2933 1.946,-6.3821 0.648,-2.0887 1.297,-4.1373 1.945,-6.1419 0.648,-2.0046 1.297,-3.965 1.945,-5.8775 0.649,-1.9124 1.297,-3.7767 1.946,-5.5895 0.648,-1.8127 1.297,-3.5736 1.945,-5.2794 0.649,-1.7058 1.297,-3.3562 1.945,-4.9483 0.649,-1.5921 1.297,-3.1255 1.946,-4.5976 0.648,-1.4721 1.297,-2.8824 1.945,-4.2286 0.649,-1.3462 1.297,-2.6278 1.946,-3.8428 0.648,-1.2149 1.296,-2.3628 1.945,-3.4417 0.648,-1.0789 1.297,-2.0884 1.945,-3.027 0.649,-0.9385 1.297,-1.8057 1.946,-2.6001 0.648,-0.7945 1.297,-1.5159 1.945,-2.1631 0.649,-0.6473 1.297,-1.22 1.945,-1.7174 0.649,-0.4975 1.297,-0.9192 1.946,-1.2649 0.648,-0.3457 1.297,-0.6148 1.945,-0.8073 0.649,-0.1925 1.297,-0.308 1.946,-0.3466 0.648,-0.0386 1.296,10e-5 1.945,0.1156 0.648,0.1154 1.297,0.3081 1.945,0.5772 0.649,0.2691 1.297,0.615 1.946,1.0366 0.648,0.4216 1.297,0.9194 1.945,1.4919 0.648,0.5725 1.297,1.2201 1.945,1.9412 0.649,0.7211 1.297,1.516 1.946,2.3828 0.648,0.8668 1.297,1.8059 1.945,2.815 0.649,1.0091 1.297,2.0886 1.945,3.2359 0.649,1.1474 1.297,2.363 1.946,3.6441 0.648,1.2811 1.297,2.628 1.945,4.0377 0.649,1.4097 1.297,2.8825 1.946,4.4153 0.648,1.5327 1.296,3.1256 1.945,4.7753 0.648,1.6497 1.297,3.3564 1.945,5.1164 0.649,1.7601 1.297,3.5738 1.946,5.4372 0.648,1.8634 1.297,3.7769 1.945,5.7363 0.648,1.9594 1.297,3.9651 1.945,6.0127 0.649,2.0476 1.297,4.1374 1.946,6.2651 0.648,2.1277 1.297,4.2935 1.945,6.4928 0.649,2.1993 1.297,4.4323 1.945,6.6945 0.649,2.2621 1.297,4.5536 1.946,6.8697 0.648,2.316 1.297,4.6572 1.945,7.0172 0.649,2.361 1.297,4.742 1.946,7.138 0.648,2.396 1.296,4.807 1.945,7.229 0.648,2.422 1.297,4.854 1.945,7.292 0.649,2.438 1.297,4.882 1.946,7.327 0.648,2.444 1.297,4.889 1.945,7.331 0.648,2.441 1.297,4.878 1.945,7.306 0.649,2.429 1.297,4.848 1.946,7.254 0.648,2.406 1.297,4.798 1.945,7.171 0.649,2.374 1.297,4.729 1.945,7.061 0.649,2.332 1.297,4.641 1.946,6.922 0.648,2.281 1.297,4.535 1.945,6.756 0.649,2.221 1.297,4.41 1.946,6.563 0.648,2.152 1.296,4.268 1.945,6.344 0.648,2.075 1.297,4.109 1.945,6.099 0.649,1.99 1.297,3.935 1.946,5.831 0.648,1.897 1.297,3.744 1.945,5.539 0.648,1.796 1.297,3.539 1.945,5.226 0.649,1.687 1.297,3.319 1.946,4.891 0.648,1.573 1.297,3.086 1.945,4.538 0.649,1.451 1.297,2.84 1.945,4.165 0.649,1.325 1.297,2.584 1.946,3.777 0.648,1.193 1.297,2.318 1.945,3.374 0.649,1.055 1.297,2.041 1.946,2.956 0.648,0.915 1.296,1.758 1.945,2.528 0.648,0.77 1.297,1.467 1.945,2.09 0.649,0.622 1.297,1.17 1.946,1.642 0.648,0.472 1.297,0.869 1.945,1.189 0.648,0.32 1.297,0.564 1.945,0.731 0.649,0.166 1.297,0.256 1.946,0.269 0.648,0.013 1.297,-0.051 1.945,-0.192 0.649,-0.142 1.297,-0.36 1.945,-0.654 0.649,-0.295 1.297,-0.666 1.946,-1.113 0.648,-0.447 1.297,-0.97 1.945,-1.568 0.649,-0.597 1.297,-1.269 1.946,-2.015 0.648,-0.745 1.296,-1.565 1.945,-2.455 0.648,-0.891 1.297,-1.854 1.945,-2.886 0.649,-1.033 1.297,-2.135 1.946,-3.305 0.648,-1.17 1.297,-2.408 1.945,-3.711 0.648,-1.303 1.297,-2.671 1.945,-4.102 0.649,-1.43 1.297,-2.924 1.946,-4.476 0.648,-1.553 1.297,-3.165 1.945,-4.834 0.649,-1.668 1.297,-3.393 1.946,-5.171 0.648,-1.778 1.296,-3.609 1.945,-5.489 0.648,-1.88 1.297,-3.809 1.945,-5.784 0.649,-1.974 1.297,-3.995 1.946,-6.056 0.648,-2.062 1.297,-4.165 1.945,-6.305 0.648,-2.14 1.297,-4.318 1.945,-6.528 0.649,-2.211 1.297,-4.454 1.946,-6.726 0.648,-2.272 1.297,-4.572 1.945,-6.896 0.649,-2.324 1.297,-4.672 1.945,-7.04 0.649,-2.367 1.297,-4.753 1.946,-7.154 0.648,-2.401 1.297,-4.817 1.945,-7.242 0.649,-2.425 1.297,-4.86 1.946,-7.3 0.648,-2.44 1.296,-4.884 1.945,-7.329 v 0"
         title="sin(x)"
         id="path39" /><text
         xml:space="preserve"
         style="font-size:8.20793px;line-height:13.5722px;font-family:sans-serif;-inkscape-font-specification:sans-serif;text-align:center;letter-spacing:0px;word-spacing:0px;text-anchor:middle;fill:#000000;fill-opacity:1;fill-rule:evenodd;stroke:none;stroke-width:0.969438;stroke-linejoin:round;stroke-miterlimit:0;stroke-dasharray:none;stroke-opacity:1"
         x="473.85696"
         y="127.57829"
         id="text42"><tspan
           sodipodi:role="line"
           id="tspan42"
           style="stroke-width:0.96944"
           x="473.85696"
           y="127.57829">80</tspan><tspan
           sodipodi:role="line"
           style="stroke-width:0.96944"
           x="473.85696"
           y="141.15048"
           id="tspan43" /></text><path
         style="fill:none;fill-opacity:1;fill-rule:evenodd;stroke:#000000;stroke-width:0.969438;stroke-linejoin:round;stroke-miterlimit:0;stroke-dasharray:none;stroke-opacity:1"
         d="m -107.83324,68.815583 c 9.075018,2.887926 18.642673,4.63495 29.083208,4.360461 6.764519,-0.512995 9.575312,-31.953408 23.26657,-31.953408 C 58.910488,62.55032 19.486586,55.947942 76.360413,66.42808"
         id="path43"
         sodipodi:nodetypes="cccc" /><path
         style="fill:none;fill-opacity:1;fill-rule:evenodd;stroke:#000000;stroke-width:0.969438;stroke-linejoin:round;stroke-miterlimit:0;stroke-dasharray:none;stroke-opacity:1"
         d="m 76.219642,66.402139 c 0,0 37.442738,7.260903 38.777608,6.747964 6.76452,-0.512995 9.71608,-31.927467 23.40734,-31.927467 114.39395,21.327684 74.97004,14.725306 131.84387,25.205444"
         id="path43-9"
         sodipodi:nodetypes="cccc" /><path
         style="fill:none;fill-opacity:1;fill-rule:evenodd;stroke:#000000;stroke-width:0.969438;stroke-linejoin:round;stroke-miterlimit:0;stroke-dasharray:none;stroke-opacity:1"
         d="m 270.10769,66.402138 c 0,0 37.44274,7.260904 38.77761,6.747964 6.76452,-0.512994 9.71608,-31.927466 23.40734,-31.927466 114.39395,21.327683 113.74765,20.960275 170.62148,31.440412"
         id="path43-9-2"
         sodipodi:nodetypes="cccc" /></g><text
       xml:space="preserve"
       style="font-size:4.23333px;line-height:7px;font-family:sans-serif;-inkscape-font-specification:sans-serif;text-align:center;letter-spacing:0px;word-spacing:0px;text-anchor:middle;fill:#000000;fill-opacity:1;fill-rule:evenodd;stroke:none;stroke-width:0.499999;stroke-linejoin:round;stroke-miterlimit:0;stroke-dasharray:none;stroke-opacity:1"
       x="17.587748"
       y="71.538918"
       id="text39"><tspan
         sodipodi:role="line"
         id="tspan39"
         style="fill:#000000;fill-opacity:1;stroke:none;stroke-width:0.5"
         x="17.587748"
         y="71.538918">20</tspan></text><text
       xml:space="preserve"
       style="font-size:4.23333px;line-height:7px;font-family:sans-serif;-inkscape-font-specification:sans-serif;text-align:center;letter-spacing:0px;word-spacing:0px;text-anchor:middle;fill:#000000;fill-opacity:1;fill-rule:evenodd;stroke:none;stroke-width:0.499999;stroke-linejoin:round;stroke-miterlimit:0;stroke-dasharray:none;stroke-opacity:1"
       x="117.54641"
       y="71.537888"
       id="text40"><tspan
         sodipodi:role="line"
         id="tspan40"
         style="stroke-width:0.5"
         x="117.54641"
         y="71.537888">40</tspan></text><text
       xml:space="preserve"
       style="font-size:4.23333px;line-height:7px;font-family:sans-serif;-inkscape-font-specification:sans-serif;text-align:center;letter-spacing:0px;word-spacing:0px;text-anchor:middle;fill:#000000;fill-opacity:1;fill-rule:evenodd;stroke:none;stroke-width:0.499999;stroke-linejoin:round;stroke-miterlimit:0;stroke-dasharray:none;stroke-opacity:1"
       x="217.58777"
       y="71.139854"
       id="text41"><tspan
         sodipodi:role="line"
         id="tspan41"
         style="stroke-width:0.5"
         x="217.58777"
         y="71.139854">60</tspan></text></g></svg>
