#
mtllib PowerTransformer_1ph_GET_IT_digital_2D.mtl
usemtl ff0080ff
v 1.200000e+03 5.500000e+02 0.000000e+00
v 1.200000e+03 -5.500000e+02 0.000000e+00
v 1.300000e+03 5.500000e+02 0.000000e+00
v 1.300000e+03 -5.500000e+02 0.000000e+00
vn 0.000000 -0.000000 1.000000
vn 0.000000 -0.000000 1.000000
vn 0.000000 -0.000000 1.000000
vn 0.000000 -0.000000 1.000000
f -4//-4 -3//-3 -2//-2
f -2//-2 -3//-3 -1//-1
v 3.000000e+02 5.500000e+02 0.000000e+00
v 3.000000e+02 -5.500000e+02 0.000000e+00
v 4.000000e+02 5.500000e+02 0.000000e+00
v 4.000000e+02 -5.500000e+02 0.000000e+00
vn 0.000000 -0.000000 1.000000
vn 0.000000 -0.000000 1.000000
vn 0.000000 -0.000000 1.000000
vn 0.000000 -0.000000 1.000000
f -4//-4 -3//-3 -2//-2
f -2//-2 -3//-3 -1//-1
v -4.000000e+02 5.500000e+02 0.000000e+00
v -4.000000e+02 -5.500000e+02 0.000000e+00
v -3.000000e+02 5.500000e+02 0.000000e+00
v -3.000000e+02 -5.500000e+02 0.000000e+00
vn 0.000000 -0.000000 1.000000
vn 0.000000 -0.000000 1.000000
vn 0.000000 -0.000000 1.000000
vn 0.000000 -0.000000 1.000000
f -4//-4 -3//-3 -2//-2
f -2//-2 -3//-3 -1//-1
v -1.300000e+03 5.500000e+02 0.000000e+00
v -1.300000e+03 -5.500000e+02 0.000000e+00
v -1.200000e+03 5.500000e+02 0.000000e+00
v -1.200000e+03 -5.500000e+02 0.000000e+00
vn 0.000000 -0.000000 1.000000
vn 0.000000 -0.000000 1.000000
vn 0.000000 -0.000000 1.000000
vn 0.000000 -0.000000 1.000000
f -4//-4 -3//-3 -2//-2
f -2//-2 -3//-3 -1//-1
usemtl ffc18484
v -1.132325e+03 1.482325e+03 0.000000e+00
v -4.676750e+02 8.176750e+02 0.000000e+00
v 1.132325e+03 1.482325e+03 0.000000e+00
v 4.676750e+02 8.176750e+02 0.000000e+00
v 1.132325e+03 -1.482325e+03 0.000000e+00
v 4.676750e+02 -8.176750e+02 0.000000e+00
v -1.132325e+03 -1.482325e+03 0.000000e+00
v -4.676750e+02 -8.176750e+02 0.000000e+00
v -1.132325e+03 1.482325e+03 0.000000e+00
v -4.676750e+02 8.176750e+02 0.000000e+00
vn 0.000000 -0.000000 1.000000
vn 0.000000 -0.000000 1.000000
vn 0.000000 -0.000000 1.000000
vn 0.000000 -0.000000 1.000000
vn 0.000000 -0.000000 1.000000
vn 0.000000 -0.000000 1.000000
vn 0.000000 -0.000000 1.000000
vn 0.000000 -0.000000 1.000000
vn 0.000000 -0.000000 1.000000
vn 0.000000 -0.000000 1.000000
f -10//-10 -9//-9 -8//-8
f -8//-8 -9//-9 -7//-7
f -8//-8 -7//-7 -6//-6
f -6//-6 -7//-7 -5//-5
f -6//-6 -5//-5 -4//-4
f -4//-4 -5//-5 -3//-3
f -4//-4 -3//-3 -2//-2
f -2//-2 -3//-3 -1//-1
