<?xml version="1.0" encoding="UTF-8" standalone="no"?>
<svg
   version="1.0"
   width="289.27777mm"
   height="310.017mm"
   viewBox="0 0 819.99998 878.78819"
   preserveAspectRatio="xMidYMid"
   id="svg4"
   sodipodi:docname="Glühbirne.svg"
   inkscape:version="1.3.2 (091e20e, 2023-11-25, custom)"
   xmlns:inkscape="http://www.inkscape.org/namespaces/inkscape"
   xmlns:sodipodi="http://sodipodi.sourceforge.net/DTD/sodipodi-0.dtd"
   xmlns="http://www.w3.org/2000/svg"
   xmlns:svg="http://www.w3.org/2000/svg">
  <defs
     id="defs4" />
  <sodipodi:namedview
     id="namedview4"
     pagecolor="#ffffff"
     bordercolor="#999999"
     borderopacity="1"
     inkscape:showpageshadow="2"
     inkscape:pageopacity="0"
     inkscape:pagecheckerboard="0"
     inkscape:deskcolor="#d1d1d1"
     inkscape:document-units="pt"
     inkscape:zoom="0.5"
     inkscape:cx="687"
     inkscape:cy="742"
     inkscape:window-width="1440"
     inkscape:window-height="830"
     inkscape:window-x="-6"
     inkscape:window-y="1073"
     inkscape:window-maximized="1"
     inkscape:current-layer="g4" />
  <metadata
     id="metadata1">
Created by potrace 1.15, written by Peter Selinger 2001-2017
</metadata>
  <g
     transform="matrix(0.04772678,0,0,-0.05437966,364.13537,833.44757)"
     fill="#000000"
     stroke="none"
     id="g4">
    <path
       d="m 3850,12794 c -513,-38 -971,-147 -1415,-336 C 1535,12075 794,11375 379,10515 185,10112 71,9710 18,9245 -1,9072 1,8678 23,8545 91,8133 248,7723 538,7204 c 108,-195 205,-357 494,-834 372,-613 534,-930 647,-1266 88,-258 115,-416 126,-719 16,-436 114,-682 403,-1008 l 92,-105 v -181 -180 l 30,-34 c 16,-19 75,-58 130,-87 124,-65 160,-103 160,-167 0,-40 -5,-51 -38,-82 -21,-20 -79,-57 -129,-84 -112,-58 -153,-101 -153,-159 0,-58 33,-97 122,-143 157,-82 198,-120 198,-185 0,-67 -36,-103 -178,-174 -39,-20 -87,-52 -107,-71 -29,-30 -35,-43 -35,-78 0,-41 18,-79 50,-104 8,-7 58,-36 110,-65 52,-28 110,-67 128,-85 27,-29 32,-42 32,-83 0,-60 -23,-90 -128,-167 -40,-30 -82,-69 -93,-86 -27,-45 -24,-96 7,-143 14,-21 148,-160 298,-309 274,-272 371,-386 456,-536 l 36,-64 902,-3 903,-2 17,31 c 97,179 230,337 515,612 124,120 240,239 256,264 58,88 38,148 -81,236 -105,77 -128,107 -128,167 0,65 34,100 162,168 120,65 158,105 158,167 0,37 -6,50 -35,80 -20,19 -68,51 -107,71 -142,71 -178,107 -178,174 0,65 41,103 198,185 89,46 122,85 122,143 0,58 -41,101 -153,159 -50,27 -108,64 -129,84 -33,31 -38,42 -38,82 0,64 36,102 160,167 55,29 114,68 130,87 l 30,34 v 182 182 l 90,100 c 116,128 188,229 249,346 104,198 145,375 156,664 11,304 38,461 126,719 121,360 267,639 734,1411 309,509 414,692 540,940 207,408 325,743 382,1090 22,134 24,527 4,705 -52,466 -178,899 -376,1297 -569,1145 -1663,1952 -2965,2187 -80,14 -208,33 -285,42 -134,14 -591,26 -705,18 z m 615,-585 c 1016,-85 1960,-561 2574,-1297 468,-561 723,-1226 748,-1947 15,-436 -88,-822 -377,-1410 -109,-221 -182,-355 -460,-840 -455,-796 -623,-1139 -748,-1525 -88,-273 -119,-444 -132,-735 -11,-242 -27,-351 -74,-487 -43,-127 -85,-196 -173,-285 l -72,-73 H 4100 2449 l -72,73 c -87,88 -138,172 -177,294 -44,136 -59,243 -70,478 -13,296 -44,463 -137,750 -123,377 -284,705 -738,1500 -284,498 -356,629 -465,850 -288,585 -392,974 -377,1410 48,1384 969,2565 2377,3046 524,180 1095,247 1675,198 z"
       id="path1" />
    <path
       d="m 2371,9813 c -42,-160 -149,-598 -147,-601 2,-1 54,72 116,163 61,91 115,165 118,165 4,0 61,-152 127,-338 l 120,-337 81,-3 c 81,-3 81,-3 92,25 7,15 61,167 122,337 60,170 112,311 115,314 2,3 7,-1 10,-9 39,-108 235,-663 235,-666 0,-1 37,-3 83,-3 h 82 l 119,333 c 65,182 121,335 125,339 4,5 61,-144 127,-330 l 121,-337 h 83 83 l 120,338 c 67,185 124,334 128,330 4,-5 60,-158 125,-340 l 119,-333 h 82 c 46,0 83,2 83,3 0,3 196,558 235,666 3,8 8,12 10,9 3,-3 55,-144 115,-314 61,-170 115,-322 122,-337 11,-28 11,-28 92,-25 l 81,3 120,337 c 66,186 123,338 127,338 3,0 57,-74 118,-165 62,-91 114,-164 116,-163 2,3 -105,441 -147,601 l -10,38 -81,-3 -81,-3 -120,-338 c -66,-186 -124,-334 -128,-330 -4,4 -55,143 -114,308 -59,165 -113,315 -120,333 l -14,32 h -79 -79 l -113,-317 c -62,-175 -117,-329 -122,-343 -8,-20 -11,-22 -18,-10 -4,8 -58,157 -120,330 -62,173 -115,321 -117,328 -4,9 -27,12 -86,10 l -81,-3 -121,-337 c -66,-186 -122,-338 -125,-338 -3,0 -59,152 -125,338 l -121,337 -81,3 c -59,2 -82,-1 -86,-10 -2,-7 -55,-155 -117,-328 -62,-173 -116,-322 -120,-330 -7,-12 -10,-10 -18,10 -5,14 -60,168 -122,343 l -113,317 h -79 -79 l -14,-32 c -7,-18 -61,-168 -120,-333 -59,-165 -110,-304 -114,-308 -4,-4 -62,144 -128,330 l -120,338 -81,3 -81,3 z"
       id="path2"
       style="fill:#000000;fill-opacity:1" />
    <path
       d="m 1903,9242 c -51,-26 -93,-51 -93,-56 0,-5 294,-635 654,-1400 l 653,-1391 37,-1145 c 20,-630 39,-1182 42,-1227 l 6,-83 h 180 180 l -6,93 c -4,50 -16,306 -27,567 -11,261 -35,810 -53,1220 l -32,745 -718,1355 c -395,745 -721,1358 -724,1361 -4,4 -49,-14 -99,-39 z"
       id="path3" />
    <path
       d="m 6162,9217 c -22,-40 -347,-652 -723,-1362 l -683,-1290 -32,-745 c -18,-410 -42,-959 -53,-1220 -11,-261 -23,-517 -27,-568 l -6,-92 h 180 180 l 6,88 c 3,48 22,600 42,1227 l 37,1140 585,1245 c 741,1578 722,1537 722,1547 0,5 -43,30 -94,55 l -95,47 z"
       id="path4" />
    <path
       style="fill:#b3b3b3;fill-opacity:1;stroke:none;stroke-width:14.8071;stroke-linecap:round;stroke-linejoin:round;stroke-dasharray:none;paint-order:stroke fill markers"
       d="M 2977.405,320.37548 5222.5461,321.5718 5003.423,-0.62227964 3176.0129,-3.0771304 Z"
       id="path5"
       sodipodi:nodetypes="ccccc" />
  </g>
</svg>
