<?xml version="1.0" encoding="UTF-8" standalone="no"?>
<!-- Created with Inkscape (http://www.inkscape.org/) -->

<svg
   width="210mm"
   height="297mm"
   viewBox="0 0 210 297"
   version="1.1"
   id="svg1"
   inkscape:version="1.3.2 (091e20e, 2023-11-25, custom)"
   sodipodi:docname="Spule.svg"
   xmlns:inkscape="http://www.inkscape.org/namespaces/inkscape"
   xmlns:sodipodi="http://sodipodi.sourceforge.net/DTD/sodipodi-0.dtd"
   xmlns="http://www.w3.org/2000/svg"
   xmlns:svg="http://www.w3.org/2000/svg">
  <sodipodi:namedview
     id="namedview1"
     pagecolor="#ffffff"
     bordercolor="#999999"
     borderopacity="1"
     inkscape:showpageshadow="2"
     inkscape:pageopacity="0"
     inkscape:pagecheckerboard="true"
     inkscape:deskcolor="#d1d1d1"
     inkscape:document-units="mm"
     inkscape:zoom="1.4916699"
     inkscape:cx="425.69741"
     inkscape:cy="197.76494"
     inkscape:window-width="1440"
     inkscape:window-height="830"
     inkscape:window-x="-6"
     inkscape:window-y="1073"
     inkscape:window-maximized="1"
     inkscape:current-layer="layer1" />
  <defs
     id="defs1">
    <marker
       style="overflow:visible"
       id="ConcaveTriangle"
       refX="0"
       refY="0"
       orient="auto-start-reverse"
       inkscape:stockid="Concave triangle arrow"
       markerWidth="1"
       markerHeight="1"
       viewBox="0 0 1 1"
       inkscape:isstock="true"
       inkscape:collect="always"
       preserveAspectRatio="xMidYMid">
      <path
         transform="scale(0.7)"
         d="M -2,-4 9,0 -2,4 c 2,-2.33 2,-5.66 0,-8 z"
         style="fill:context-stroke;fill-rule:evenodd;stroke:none"
         id="path7" />
    </marker>
    <marker
       style="overflow:visible"
       id="ConcaveTriangle-9"
       refX="0"
       refY="0"
       orient="auto-start-reverse"
       inkscape:stockid="Concave triangle arrow"
       markerWidth="1"
       markerHeight="1"
       viewBox="0 0 1 1"
       inkscape:isstock="true"
       inkscape:collect="always"
       preserveAspectRatio="xMidYMid">
      <path
         transform="scale(0.7)"
         d="M -2,-4 9,0 -2,4 c 2,-2.33 2,-5.66 0,-8 z"
         style="fill:context-stroke;fill-rule:evenodd;stroke:none"
         id="path7-9" />
    </marker>
    <marker
       style="overflow:visible"
       id="ConcaveTriangle-9-0"
       refX="0"
       refY="0"
       orient="auto-start-reverse"
       inkscape:stockid="Concave triangle arrow"
       markerWidth="1"
       markerHeight="1"
       viewBox="0 0 1 1"
       inkscape:isstock="true"
       inkscape:collect="always"
       preserveAspectRatio="xMidYMid">
      <path
         transform="scale(0.7)"
         d="M -2,-4 9,0 -2,4 c 2,-2.33 2,-5.66 0,-8 z"
         style="fill:context-stroke;fill-rule:evenodd;stroke:none"
         id="path7-9-5" />
    </marker>
  </defs>
  <g
     inkscape:label="Layer 1"
     inkscape:groupmode="layer"
     id="layer1">
    <rect
       style="fill:none;stroke:#ffffff;stroke-width:0.600001;stroke-linejoin:round;stroke-dasharray:none;paint-order:stroke markers fill"
       id="rect6"
       width="189.39999"
       height="63.852707"
       x="12.416176"
       y="26.244587" />
    <g
       id="g18"
       transform="matrix(0.9680072,0,0,0.88461538,11.6366,13.881428)"
       style="display:inline;stroke-width:1.08065">
      <ellipse
         style="fill:none;stroke:#000000;stroke-width:0.540323;stroke-linejoin:round;stroke-dasharray:none;paint-order:stroke markers fill"
         id="ellipse8"
         cx="71.647491"
         cy="49.918072"
         rx="6.9295816"
         ry="9.782939" />
      <ellipse
         style="fill:none;stroke:#000000;stroke-width:0.540323;stroke-linejoin:round;stroke-dasharray:none;paint-order:stroke markers fill"
         id="ellipse9"
         cx="76.939156"
         cy="49.918072"
         rx="6.9295816"
         ry="9.782939" />
      <ellipse
         style="fill:none;stroke:#000000;stroke-width:0.540323;stroke-linejoin:round;stroke-dasharray:none;paint-order:stroke markers fill"
         id="ellipse10"
         cx="83.289154"
         cy="49.918072"
         rx="6.9295816"
         ry="9.782939" />
      <ellipse
         style="fill:none;stroke:#000000;stroke-width:0.540323;stroke-linejoin:round;stroke-dasharray:none;paint-order:stroke markers fill"
         id="ellipse11"
         cx="88.580818"
         cy="49.918072"
         rx="6.9295816"
         ry="9.782939" />
      <ellipse
         style="fill:none;stroke:#000000;stroke-width:0.540323;stroke-linejoin:round;stroke-dasharray:none;paint-order:stroke markers fill"
         id="ellipse12"
         cx="93.872482"
         cy="49.918072"
         rx="6.9295816"
         ry="9.782939" />
      <ellipse
         style="fill:none;stroke:#000000;stroke-width:0.540323;stroke-linejoin:round;stroke-dasharray:none;paint-order:stroke markers fill"
         id="ellipse13"
         cx="99.164146"
         cy="49.918072"
         rx="6.9295816"
         ry="9.782939" />
      <ellipse
         style="fill:#000000;fill-opacity:0;stroke:#000000;stroke-width:0.540323;stroke-linejoin:round;stroke-dasharray:none;paint-order:stroke markers fill"
         id="ellipse14"
         cx="104.45581"
         cy="49.918072"
         rx="6.9295816"
         ry="9.782939" />
      <ellipse
         style="fill:#000000;fill-opacity:0;stroke:#000000;stroke-width:0.540323;stroke-linejoin:round;stroke-dasharray:none;paint-order:stroke markers fill"
         id="ellipse15"
         cx="109.74747"
         cy="49.918072"
         rx="6.9295816"
         ry="9.782939" />
      <ellipse
         style="fill:#000000;fill-opacity:0;stroke:#000000;stroke-width:0.540323;stroke-linejoin:round;stroke-dasharray:none;paint-order:stroke markers fill"
         id="ellipse16"
         cx="115.03912"
         cy="49.918072"
         rx="6.9295816"
         ry="9.782939" />
      <ellipse
         style="fill:#000000;fill-opacity:0;stroke:#000000;stroke-width:0.540323;stroke-linejoin:round;stroke-dasharray:none;paint-order:stroke markers fill"
         id="ellipse17"
         cx="120.3308"
         cy="49.918072"
         rx="6.9295816"
         ry="9.782939" />
      <ellipse
         style="fill:#000000;fill-opacity:0;stroke:#000000;stroke-width:0.540323;stroke-linejoin:round;stroke-dasharray:none;paint-order:stroke markers fill"
         id="ellipse18"
         cx="125.62247"
         cy="49.918072"
         rx="6.9295816"
         ry="9.782939" />
    </g>
    <g
       id="g26"
       style="display:inline;stroke:#ff9600;stroke-opacity:1"
       transform="translate(8.5296062,10.041846)">
      <g
         id="g25"
         style="display:inline;stroke:#ff9600;stroke-opacity:1">
        <g
           id="g24"
           style="stroke:#ff9600;stroke-opacity:1">
          <g
             id="g29"
             transform="matrix(0,-0.5745927,0.58468821,0,37.269388,167.71968)"
             style="display:inline;fill:none;stroke:#ff9600;stroke-width:0.862636;stroke-dasharray:none;stroke-opacity:1">
            <path
               id="path27"
               style="display:inline;fill:none;fill-opacity:0.15;stroke:#ff9600;stroke-width:0.862637;stroke-linecap:round;stroke-linejoin:round;stroke-dasharray:none;stroke-opacity:1;marker-end:url(#ConcaveTriangle);paint-order:markers stroke fill"
               d="m 231.73354,106.80783 c -0.04,5.40221 -0.87937,48.19217 -9.59535,54.1868 -2.43469,1.67451 -5.71252,0.35821 -5.7778,-8.41794 -0.0612,-8.24047 0.0326,-21.98592 -0.0202,-47.82117 -0.0532,-26.122215 -0.12956,-40.233252 -0.13391,-47.670631 -0.005,-8.434101 3.64671,-9.764694 6.01412,-8.086278 8.46501,6.001378 9.5267,47.836135 9.51535,54.682469"
               sodipodi:nodetypes="csssssc" />
            <path
               id="path28"
               style="fill:none;fill-opacity:0.15;stroke:#ff9600;stroke-width:0.862636;stroke-linecap:round;stroke-linejoin:round;stroke-dasharray:none;stroke-opacity:1;marker-end:url(#ConcaveTriangle-9);paint-order:markers stroke fill"
               d="m 244.85669,106.80783 c -0.0477,5.2982 -1.5864,54.97825 -18.83114,59.32049 -4.98624,1.25554 -11.21097,0.39214 -11.33907,-9.21546 -0.12021,-9.02118 0.064,-24.06888 -0.0394,-52.35177 -0.10437,-28.597052 -0.25427,-44.044976 -0.2628,-52.186976 -0.008,-9.233152 6.95664,-10.159346 11.80289,-8.852376 16.61279,4.480241 18.68925,53.411633 18.67411,59.863112"
               sodipodi:nodetypes="csssssc" />
            <path
               id="path29"
               style="display:inline;fill:none;fill-opacity:0.1;stroke:#ff9600;stroke-width:0.862636;stroke-linecap:round;stroke-linejoin:round;stroke-dasharray:none;stroke-opacity:1;marker-end:url(#ConcaveTriangle-9-0);paint-order:markers stroke fill"
               d="m 258.4934,107.14382 c 0.0285,5.07445 0.41382,57.23798 -25.46222,64.35782 -7.22816,1.98881 -19.90918,0.68665 -20.10297,-9.73681 -0.18185,-9.78722 0.0221,-26.37394 -0.13447,-57.05853 -0.1579,-31.025436 -0.0113,-47.785152 -0.0241,-56.618547 -0.0122,-10.017204 12.87263,-11.336338 19.90104,-9.342879 25.13093,7.127852 25.76783,58.230635 25.82959,64.685296"
               sodipodi:nodetypes="csssssc" />
          </g>
          <g
             id="g20"
             transform="matrix(0,0.5745927,0.58468821,0,37.269373,-71.703453)"
             style="display:inline;fill:none;stroke:#ff9600;stroke-width:0.862636;stroke-dasharray:none;stroke-opacity:1">
            <path
               id="path18"
               style="display:inline;fill:none;fill-opacity:0.15;stroke:#ff9600;stroke-width:0.862637;stroke-linecap:round;stroke-linejoin:round;stroke-dasharray:none;stroke-opacity:1;marker-end:url(#ConcaveTriangle);paint-order:markers stroke fill"
               d="m 231.73354,106.80783 c -0.04,5.40221 -0.87937,48.19217 -9.59535,54.1868 -2.43469,1.67451 -5.71252,0.35821 -5.7778,-8.41794 -0.0612,-8.24047 0.0326,-21.98592 -0.0202,-47.82117 -0.0532,-26.122215 -0.12956,-40.233252 -0.13391,-47.670631 -0.005,-8.434101 3.64671,-9.764694 6.01412,-8.086278 8.46501,6.001378 9.5267,47.836135 9.51535,54.682469"
               sodipodi:nodetypes="csssssc" />
            <path
               id="path19"
               style="fill:none;fill-opacity:0.15;stroke:#ff9600;stroke-width:0.862636;stroke-linecap:round;stroke-linejoin:round;stroke-dasharray:none;stroke-opacity:1;marker-end:url(#ConcaveTriangle-9);paint-order:markers stroke fill"
               d="m 244.85669,106.80783 c -0.0477,5.2982 -1.5864,54.97825 -18.83114,59.32049 -4.98624,1.25554 -11.21097,0.39214 -11.33907,-9.21546 -0.12021,-9.02118 0.064,-24.06888 -0.0394,-52.35177 -0.10437,-28.597052 -0.25427,-44.044976 -0.2628,-52.186976 -0.008,-9.233152 6.95664,-10.159346 11.80289,-8.852376 16.61279,4.480241 18.68925,53.411633 18.67411,59.863112"
               sodipodi:nodetypes="csssssc" />
            <path
               id="path20"
               style="display:inline;fill:none;fill-opacity:0.1;stroke:#ff9600;stroke-width:0.862636;stroke-linecap:round;stroke-linejoin:round;stroke-dasharray:none;stroke-opacity:1;marker-end:url(#ConcaveTriangle-9-0);paint-order:markers stroke fill"
               d="m 258.91453,107.14382 c 0.0288,5.07445 0.41766,57.23798 -25.69839,64.35782 -7.29521,1.98881 -20.09385,0.68665 -20.28944,-9.73681 -0.18354,-9.78722 0.0223,-26.37394 -0.13571,-57.05853 -0.15937,-31.025436 -0.0114,-47.785152 -0.0243,-56.618547 -0.0124,-10.017204 12.99202,-11.336338 20.08563,-9.342879 25.36402,7.127852 26.00683,58.230635 26.06916,64.685296"
               sodipodi:nodetypes="csssssc" />
          </g>
        </g>
      </g>
      <path
         id="path21"
         style="display:inline;fill:none;fill-opacity:0.15;stroke:#ff9600;stroke-width:0.5;stroke-linecap:round;stroke-linejoin:round;stroke-dasharray:none;stroke-opacity:1;paint-order:markers stroke fill"
         d="m 148.99721,50.482687 c -1.57013,3.834395 -3.47767,5.974684 -8.35942,5.974684 -0.8228,0 -46.659189,0.02517 -66.749066,0.02517 -5.259343,0 -7.534325,-2.989002 -8.443367,-5.982193"
         sodipodi:nodetypes="cssc"
         transform="translate(-8.5296062,-10.041846)" />
      <path
         id="path22"
         style="display:inline;fill:none;fill-opacity:0.15;stroke:#ff9600;stroke-width:0.5;stroke-linecap:round;stroke-linejoin:round;stroke-dasharray:none;stroke-opacity:1;paint-order:markers stroke fill"
         d="m 148.99755,65.590798 c -1.57013,-3.83439 -3.51314,-6.030115 -8.61438,-6.030115 -0.8228,0 -46.368927,0.03028 -66.458781,0.03028 -5.353408,0 -7.569555,2.989008 -8.478596,5.982194"
         sodipodi:nodetypes="cssc"
         transform="translate(-8.5296062,-10.041846)" />
      <path
         style="display:inline;fill:none;fill-opacity:1;stroke:#ff9600;stroke-width:0.5;stroke-linecap:round;stroke-linejoin:miter;stroke-dasharray:none;stroke-opacity:1"
         d="m 65.234794,56.035838 c 0.986514,0.498827 3.746086,1.488529 8.601657,1.488529 10.506552,0 51.053679,0.0027 66.680429,-0.02028 5.85019,-0.0086 8.37205,-1.51473 8.37205,-1.51473"
         id="path23"
         sodipodi:nodetypes="cssc"
         transform="translate(-8.5296062,-10.041846)" />
      <path
         style="display:inline;fill:none;fill-opacity:1;stroke:#ff9600;stroke-width:0.5;stroke-linecap:round;stroke-linejoin:miter;stroke-dasharray:none;stroke-opacity:1"
         d="m 65.23439,60.023431 c 0.986514,-0.498827 3.36982,-1.488528 8.695724,-1.488528 10.506552,0 50.959606,0.02028 66.586366,0.02028 6.11297,0 8.37204,1.51473 8.37204,1.51473"
         id="path24"
         sodipodi:nodetypes="cssc"
         inkscape:label="path24"
         transform="translate(-8.5296062,-10.041846)" />
    </g>
    <text
       xml:space="preserve"
       style="font-size:2.221px;font-family:Sans;-inkscape-font-specification:'Sans, Normal';font-variant-position:super;fill:#ff9600;fill-opacity:1;stroke:#ff9600;stroke-width:0.1;stroke-linecap:round;stroke-opacity:1"
       x="103.45697"
       y="35.355064"
       id="text1"
       transform="scale(1.0104795,0.98962918)"><tspan
         sodipodi:role="line"
         id="tspan1"
         style="fill:#ff9600;fill-opacity:1;stroke:#ff9600;stroke-width:0.1;stroke-opacity:1"
         x="103.45697"
         y="35.355064">$\vec{B}$</tspan></text>
  </g>
</svg>
