#
mtllib PowerTransformer_3ph_GET_IT_digital_2D.mtl
usemtl ff0080ff
v -9.900000e-01 5.500000e-01 0.000000e+00
v -9.900000e-01 -5.600000e-01 -0.000000e+00
v -1.100000e+00 5.500000e-01 0.000000e+00
v -1.100000e+00 -5.600000e-01 -0.000000e+00
vn 0.000000 0.000000 -1.000000
vn 0.000000 0.000000 -1.000000
vn 0.000000 0.000000 -1.000000
vn 0.000000 0.000000 -1.000000
f -4//-4 -3//-3 -2//-2
f -2//-2 -3//-3 -1//-1
usemtl ff0000ff
v -8.400000e-01 5.500000e-01 0.000000e+00
v -8.400000e-01 -5.600000e-01 -0.000000e+00
v -9.500000e-01 5.500000e-01 0.000000e+00
v -9.500000e-01 -5.600000e-01 -0.000000e+00
vn 0.000000 0.000000 -1.000000
vn 0.000000 0.000000 -1.000000
vn 0.000000 0.000000 -1.000000
vn 0.000000 0.000000 -1.000000
f -4//-4 -3//-3 -2//-2
f -2//-2 -3//-3 -1//-1
v -5.500000e-01 5.500000e-01 0.000000e+00
v -5.500000e-01 -5.600000e-01 -0.000000e+00
v -6.600000e-01 5.500000e-01 0.000000e+00
v -6.600000e-01 -5.600000e-01 -0.000000e+00
vn 0.000000 0.000000 -1.000000
vn 0.000000 0.000000 -1.000000
vn 0.000000 0.000000 -1.000000
vn 0.000000 0.000000 -1.000000
f -4//-4 -3//-3 -2//-2
f -2//-2 -3//-3 -1//-1
usemtl ff0080ff
v -4.000000e-01 5.500000e-01 0.000000e+00
v -4.000000e-01 -5.600000e-01 -0.000000e+00
v -5.100000e-01 5.500000e-01 0.000000e+00
v -5.100000e-01 -5.600000e-01 -0.000000e+00
vn 0.000000 0.000000 -1.000000
vn 0.000000 0.000000 -1.000000
vn 0.000000 0.000000 -1.000000
vn 0.000000 0.000000 -1.000000
f -4//-4 -3//-3 -2//-2
f -2//-2 -3//-3 -1//-1
v 5.100000e-01 5.500000e-01 0.000000e+00
v 5.100000e-01 -5.600000e-01 0.000000e+00
v 4.000000e-01 5.500000e-01 0.000000e+00
v 4.000000e-01 -5.600000e-01 0.000000e+00
vn 0.000000 0.000000 -1.000000
vn 0.000000 0.000000 -1.000000
vn 0.000000 0.000000 -1.000000
vn 0.000000 0.000000 -1.000000
f -4//-4 -3//-3 -2//-2
f -2//-2 -3//-3 -1//-1
usemtl ff0000ff
v 6.600000e-01 5.500000e-01 0.000000e+00
v 6.600000e-01 -5.600000e-01 0.000000e+00
v 5.500000e-01 5.500000e-01 0.000000e+00
v 5.500000e-01 -5.600000e-01 0.000000e+00
vn 0.000000 0.000000 -1.000000
vn 0.000000 0.000000 -1.000000
vn 0.000000 0.000000 -1.000000
vn 0.000000 0.000000 -1.000000
f -4//-4 -3//-3 -2//-2
f -2//-2 -3//-3 -1//-1
v 9.500000e-01 5.500000e-01 0.000000e+00
v 9.500000e-01 -5.600000e-01 0.000000e+00
v 8.400000e-01 5.500000e-01 0.000000e+00
v 8.400000e-01 -5.600000e-01 0.000000e+00
vn 0.000000 0.000000 -1.000000
vn 0.000000 0.000000 -1.000000
vn 0.000000 0.000000 -1.000000
vn 0.000000 0.000000 -1.000000
f -4//-4 -3//-3 -2//-2
f -2//-2 -3//-3 -1//-1
usemtl ff0080ff
v 1.100000e+00 5.500000e-01 0.000000e+00
v 1.100000e+00 -5.600000e-01 0.000000e+00
v 9.900000e-01 5.500000e-01 0.000000e+00
v 9.900000e-01 -5.600000e-01 0.000000e+00
vn 0.000000 0.000000 -1.000000
vn 0.000000 0.000000 -1.000000
vn 0.000000 0.000000 -1.000000
vn 0.000000 0.000000 -1.000000
f -4//-4 -3//-3 -2//-2
f -2//-2 -3//-3 -1//-1
usemtl ff0000ff
v -2.050000e+00 5.500000e-01 0.000000e+00
v -2.050000e+00 -5.600000e-01 -0.000000e+00
v -2.160000e+00 5.500000e-01 0.000000e+00
v -2.160000e+00 -5.600000e-01 -0.000000e+00
vn 0.000000 0.000000 -1.000000
vn 0.000000 0.000000 -1.000000
vn 0.000000 0.000000 -1.000000
vn 0.000000 0.000000 -1.000000
f -4//-4 -3//-3 -2//-2
f -2//-2 -3//-3 -1//-1
usemtl ff0080ff
v -1.900000e+00 5.500000e-01 0.000000e+00
v -1.900000e+00 -5.600000e-01 -0.000000e+00
v -2.010000e+00 5.500000e-01 0.000000e+00
v -2.010000e+00 -5.600000e-01 -0.000000e+00
vn 0.000000 0.000000 -1.000000
vn 0.000000 0.000000 -1.000000
vn 0.000000 0.000000 -1.000000
vn 0.000000 0.000000 -1.000000
f -4//-4 -3//-3 -2//-2
f -2//-2 -3//-3 -1//-1
v 2.010000e+00 5.500000e-01 0.000000e+00
v 2.010000e+00 -5.600000e-01 0.000000e+00
v 1.900000e+00 5.500000e-01 0.000000e+00
v 1.900000e+00 -5.600000e-01 0.000000e+00
vn 0.000000 0.000000 -1.000000
vn 0.000000 0.000000 -1.000000
vn 0.000000 0.000000 -1.000000
vn 0.000000 0.000000 -1.000000
f -4//-4 -3//-3 -2//-2
f -2//-2 -3//-3 -1//-1
usemtl ff0000ff
v 2.160000e+00 5.500000e-01 0.000000e+00
v 2.160000e+00 -5.600000e-01 0.000000e+00
v 2.050000e+00 5.500000e-01 0.000000e+00
v 2.050000e+00 -5.600000e-01 0.000000e+00
vn 0.000000 0.000000 -1.000000
vn 0.000000 0.000000 -1.000000
vn 0.000000 0.000000 -1.000000
vn 0.000000 0.000000 -1.000000
f -4//-4 -3//-3 -2//-2
f -2//-2 -3//-3 -1//-1
usemtl ffc18484
v 1.847072e+00 -1.492072e+00 0.000000e+00
v -1.847072e+00 -1.492072e+00 -0.000000e+00
v 3.370725e-01 -8.179275e-01 0.000000e+00
v -3.370725e-01 -8.179275e-01 -0.000000e+00
v 3.370725e-01 8.179275e-01 0.000000e+00
v -3.370725e-01 8.179275e-01 0.000000e+00
v -1.847072e+00 1.492072e+00 0.000000e+00
v -1.172927e+00 8.179275e-01 0.000000e+00
v -1.847072e+00 -1.492072e+00 -0.000000e+00
v -1.172927e+00 -8.179275e-01 -0.000000e+00
v -3.370725e-01 -8.179275e-01 -0.000000e+00
vn 0.000000 0.000000 -1.000000
vn 0.000000 0.000000 -1.000000
vn 0.000000 0.000000 -1.000000
vn 0.000000 0.000000 -1.000000
vn 0.000000 0.000000 -1.000000
vn 0.000000 0.000000 -1.000000
vn 0.000000 0.000000 -1.000000
vn 0.000000 0.000000 -1.000000
vn 0.000000 0.000000 -1.000000
vn 0.000000 0.000000 -1.000000
vn 0.000000 0.000000 -1.000000
f -11//-11 -10//-10 -9//-9
f -9//-9 -10//-10 -8//-8
f -9//-9 -8//-8 -7//-7
f -7//-7 -8//-8 -6//-6
f -7//-7 -6//-6 -5//-5
f -5//-5 -6//-6 -4//-4
f -5//-5 -4//-4 -3//-3
f -3//-3 -4//-4 -2//-2
f -3//-3 -2//-2 -1//-1
v 1.172927e+00 -8.179275e-01 0.000000e+00
v 1.172927e+00 8.179275e-01 0.000000e+00
v 1.847072e+00 1.492072e+00 0.000000e+00
v 3.370725e-01 8.179275e-01 0.000000e+00
v -1.847072e+00 1.492072e+00 0.000000e+00
vn 0.000000 0.000000 -1.000000
vn 0.000000 0.000000 -1.000000
vn 0.000000 0.000000 -1.000000
vn 0.000000 0.000000 -1.000000
vn 0.000000 0.000000 -1.000000
f -5//-5 -4//-4 -3//-3
f -3//-3 -4//-4 -2//-2
f -3//-3 -2//-2 -1//-1
v 1.847072e+00 1.492072e+00 0.000000e+00
v 1.847072e+00 -1.492072e+00 0.000000e+00
v 1.172927e+00 -8.179275e-01 0.000000e+00
v 3.370725e-01 -8.179275e-01 0.000000e+00
vn 0.000000 0.000000 -1.000000
vn 0.000000 0.000000 -1.000000
vn 0.000000 0.000000 -1.000000
vn 0.000000 0.000000 -1.000000
f -4//-4 -3//-3 -2//-2
f -2//-2 -3//-3 -1//-1
