<?xml version="1.0" encoding="UTF-8" standalone="no"?>
<!-- Created with Inkscape (http://www.inkscape.org/) -->

<svg
   width="340mm"
   height="340mm"
   viewBox="0 0 340 340"
   version="1.1"
   id="svg1"
   xml:space="preserve"
   sodipodi:docname="Magnetfeldline_Ringspule.svg"
   inkscape:version="1.3.2 (091e20e, 2023-11-25, custom)"
   inkscape:export-filename="Magnetfeldline_Ringspule.png"
   inkscape:export-xdpi="72"
   inkscape:export-ydpi="72"
   xmlns:inkscape="http://www.inkscape.org/namespaces/inkscape"
   xmlns:sodipodi="http://sodipodi.sourceforge.net/DTD/sodipodi-0.dtd"
   xmlns="http://www.w3.org/2000/svg"
   xmlns:svg="http://www.w3.org/2000/svg"><sodipodi:namedview
     id="namedview1"
     pagecolor="#ffffff"
     bordercolor="#000000"
     borderopacity="0.25"
     inkscape:showpageshadow="2"
     inkscape:pageopacity="0.0"
     inkscape:pagecheckerboard="0"
     inkscape:deskcolor="#d1d1d1"
     inkscape:document-units="mm"
     showgrid="true"
     inkscape:zoom="2"
     inkscape:cx="594.50001"
     inkscape:cy="288.5"
     inkscape:window-width="1440"
     inkscape:window-height="830"
     inkscape:window-x="-6"
     inkscape:window-y="-6"
     inkscape:window-maximized="1"
     inkscape:current-layer="g1"
     showguides="true"><inkscape:grid
       type="axonomgrid"
       id="grid1"
       units="mm"
       originx="-20.499999"
       originy="-3.9999998"
       spacingx="0"
       spacingy="8"
       empcolor="#0099e5"
       empopacity="0.30196078"
       color="#0099e5"
       opacity="0.14901961"
       empspacing="5"
       dotted="false"
       gridanglex="30"
       gridanglez="30"
       visible="true" /><sodipodi:guide
       position="170.10748,111.04728"
       orientation="1,0"
       id="guide30"
       inkscape:locked="false" /><sodipodi:guide
       position="173.48969,49"
       orientation="0,-1"
       id="guide31"
       inkscape:locked="false" /></sodipodi:namedview><defs
     id="defs1"><inkscape:path-effect
       effect="knot"
       id="path-effect30"
       is_visible="true"
       lpeversion="1"
       switcher_size="15"
       interruption_width="3.7"
       prop_to_stroke_width="true"
       add_stroke_width="inkscape_1.0_and_up"
       both="false"
       inverse_width="false"
       add_other_stroke_width="inkscape_1.0_and_up"
       crossing_points_vector="" /><inkscape:path-effect
       effect="copy_rotate"
       starting_point="459.90768,190.5"
       origin="190.5,190.5"
       id="path-effect5"
       is_visible="true"
       lpeversion="1.2"
       lpesatellites=""
       method="normal"
       num_copies="24"
       starting_angle="0"
       rotation_angle="13.846154"
       gap="-0.01"
       copies_to_360="false"
       mirror_copies="false"
       split_items="false"
       link_styles="false" /><clipPath
       clipPathUnits="userSpaceOnUse"
       id="clipPath14"><path
         d="M 0.11319206,85.622688 H 282.71299 V -295.37731 H 0.11319206 Z M 27.191124,-89.861692 v -30.364558 h 96.878326 v 30.364558 z"
         style="display:inline;fill:#000000;fill-opacity:1;stroke-width:2;stroke-linecap:round;stroke-linejoin:round;paint-order:markers stroke fill"
         id="path14"
         sodipodi:nodetypes="cccccccccc" /></clipPath><clipPath
       clipPathUnits="userSpaceOnUse"
       id="clipPath15"><path
         d="M 0.11319206,85.622688 H 282.71299 V -295.37731 H 0.11319206 Z M 27.191124,-89.861692 v -30.364558 h 96.878326 v 30.364558 z"
         style="display:inline;fill:#000000;fill-opacity:1;stroke-width:2;stroke-linecap:round;stroke-linejoin:round;paint-order:markers stroke fill"
         id="path15"
         sodipodi:nodetypes="cccccccccc" /></clipPath><clipPath
       clipPathUnits="userSpaceOnUse"
       id="clipPath16"><path
         d="M 0.11319206,85.622688 H 282.71299 V -295.37731 H 0.11319206 Z M 27.191124,-89.861692 v -30.364558 h 96.878326 v 30.364558 z"
         style="display:inline;fill:#000000;fill-opacity:1;stroke-width:2;stroke-linecap:round;stroke-linejoin:round;paint-order:markers stroke fill"
         id="path16"
         sodipodi:nodetypes="cccccccccc" /></clipPath><marker
       style="overflow:visible"
       id="ConcaveTriangle-0"
       refX="0"
       refY="0"
       orient="auto-start-reverse"
       inkscape:stockid="Concave triangle arrow"
       markerWidth="1"
       markerHeight="1"
       viewBox="0 0 1 1"
       inkscape:isstock="true"
       inkscape:collect="always"
       preserveAspectRatio="xMidYMid"><path
         transform="scale(0.7)"
         d="M -2,-4 9,0 -2,4 c 2,-2.33 2,-5.66 0,-8 z"
         style="fill:context-stroke;fill-rule:evenodd;stroke:none"
         id="path7-9" /></marker><clipPath
       clipPathUnits="userSpaceOnUse"
       id="clipPath49"><path
         d="M -83.406286,-25.745695 V 252.05183 H 292.65499 V -25.745695 Z M 29.936149,13.066406 c 2.976216,-0.0487 4.361294,1.730666 1.175123,7.548893 -8.496458,15.515273 -8.588618,27.5213 -7.295679,41.374219 1.29294,13.852922 -13.391142,15.977124 -14.4993728,4.24832 -1.1082337,-11.72881 -2.6785041,-25.859119 6.2797188,-47.931441 0,0 9.379855,-5.158822 14.34021,-5.239991 z m 148.182171,48.335552 11.98687,25.022244 -14.29991,5.093229 -8.21552,-18.297075 z m 16.12614,49.895142 c 2.39662,-0.0502 4.44357,1.20048 5.11702,5.12889 1.9591,11.42808 3.85302,23.379 0.84902,42.96999 -3.00392,19.59098 -18.35055,16.71743 -15.08538,-1.69809 3.26517,-18.41553 1.82872,-26.12149 -1.30585,-41.46775 0,0 5.8498,-4.83724 10.42519,-4.93304 z"
         style="display:inline;stroke-width:2.5;stroke-linecap:round;stroke-linejoin:round;paint-order:markers stroke fill"
         id="path50" /></clipPath><clipPath
       clipPathUnits="userSpaceOnUse"
       id="clipPath50"><path
         d="M -25.745695,83.406286 H 252.05183 V -292.65499 H -25.745695 Z M 13.066406,-29.936149 c -0.0487,-2.976216 1.730666,-4.361294 7.548893,-1.175123 15.515273,8.496458 27.5213,8.588618 41.374219,7.295679 13.852922,-1.29294 15.977124,13.391142 4.24832,14.4993728 -11.72881,1.1082337 -25.859119,2.6785041 -47.931441,-6.2797188 0,0 -5.158822,-9.379855 -5.239991,-14.34021 z m 48.335552,-148.182171 25.022244,-11.98687 5.093229,14.29991 -18.297075,8.21552 z m 49.895142,-16.12614 c -0.0502,-2.39662 1.20048,-4.44357 5.12889,-5.11702 11.42808,-1.9591 23.379,-3.85302 42.96999,-0.84902 19.59098,3.00392 16.71743,18.35055 -1.69809,15.08538 -18.41553,-3.26517 -26.12149,-1.82872 -41.46775,1.30585 0,0 -4.83724,-5.8498 -4.93304,-10.42519 z"
         style="display:inline;stroke-width:2.5;stroke-linecap:round;stroke-linejoin:round;paint-order:markers stroke fill"
         id="path51" /></clipPath><clipPath
       clipPathUnits="userSpaceOnUse"
       id="clipPath51"><path
         d="M -25.745695,83.406286 H 252.05183 V -292.65499 H -25.745695 Z M 13.066406,-29.936149 c -0.0487,-2.976216 1.730666,-4.361294 7.548893,-1.175123 15.515273,8.496458 27.5213,8.588618 41.374219,7.295679 13.852922,-1.29294 15.977124,13.391142 4.24832,14.4993728 -11.72881,1.1082337 -25.859119,2.6785041 -47.931441,-6.2797188 0,0 -5.158822,-9.379855 -5.239991,-14.34021 z m 48.335552,-148.182171 25.022244,-11.98687 5.093229,14.29991 -18.297075,8.21552 z m 49.895142,-16.12614 c -0.0502,-2.39662 1.20048,-4.44357 5.12889,-5.11702 11.42808,-1.9591 23.379,-3.85302 42.96999,-0.84902 19.59098,3.00392 16.71743,18.35055 -1.69809,15.08538 -18.41553,-3.26517 -26.12149,-1.82872 -41.46775,1.30585 0,0 -4.83724,-5.8498 -4.93304,-10.42519 z"
         style="display:inline;stroke-width:2.5;stroke-linecap:round;stroke-linejoin:round;paint-order:markers stroke fill"
         id="path52" /></clipPath><clipPath
       clipPathUnits="userSpaceOnUse"
       id="clipPath52"><path
         d="M -25.745695,83.406286 H 252.05183 V -292.65499 H -25.745695 Z M 13.066406,-29.936149 c -0.0487,-2.976216 1.730666,-4.361294 7.548893,-1.175123 15.515273,8.496458 27.5213,8.588618 41.374219,7.295679 13.852922,-1.29294 15.977124,13.391142 4.24832,14.4993728 -11.72881,1.1082337 -25.859119,2.6785041 -47.931441,-6.2797188 0,0 -5.158822,-9.379855 -5.239991,-14.34021 z m 48.335552,-148.182171 25.022244,-11.98687 5.093229,14.29991 -18.297075,8.21552 z m 49.895142,-16.12614 c -0.0502,-2.39662 1.20048,-4.44357 5.12889,-5.11702 11.42808,-1.9591 23.379,-3.85302 42.96999,-0.84902 19.59098,3.00392 16.71743,18.35055 -1.69809,15.08538 -18.41553,-3.26517 -26.12149,-1.82872 -41.46775,1.30585 0,0 -4.83724,-5.8498 -4.93304,-10.42519 z"
         style="display:inline;stroke-width:2.5;stroke-linecap:round;stroke-linejoin:round;paint-order:markers stroke fill"
         id="path53" /></clipPath><clipPath
       clipPathUnits="userSpaceOnUse"
       id="clipPath53"><path
         d="M -25.745695,83.406286 H 252.05183 V -292.65499 H -25.745695 Z M 13.066406,-29.936149 c -0.0487,-2.976216 1.730666,-4.361294 7.548893,-1.175123 15.515273,8.496458 27.5213,8.588618 41.374219,7.295679 13.852922,-1.29294 15.977124,13.391142 4.24832,14.4993728 -11.72881,1.1082337 -25.859119,2.6785041 -47.931441,-6.2797188 0,0 -5.158822,-9.379855 -5.239991,-14.34021 z m 48.335552,-148.182171 25.022244,-11.98687 5.093229,14.29991 -18.297075,8.21552 z m 49.895142,-16.12614 c -0.0502,-2.39662 1.20048,-4.44357 5.12889,-5.11702 11.42808,-1.9591 23.379,-3.85302 42.96999,-0.84902 19.59098,3.00392 16.71743,18.35055 -1.69809,15.08538 -18.41553,-3.26517 -26.12149,-1.82872 -41.46775,1.30585 0,0 -4.83724,-5.8498 -4.93304,-10.42519 z"
         style="display:inline;stroke-width:2.5;stroke-linecap:round;stroke-linejoin:round;paint-order:markers stroke fill"
         id="path54" /></clipPath><clipPath
       clipPathUnits="userSpaceOnUse"
       id="clipPath54"><path
         d="M -25.745695,83.406286 H 252.05183 V -292.65499 H -25.745695 Z M 13.066406,-29.936149 c -0.0487,-2.976216 1.730666,-4.361294 7.548893,-1.175123 15.515273,8.496458 27.5213,8.588618 41.374219,7.295679 13.852922,-1.29294 15.977124,13.391142 4.24832,14.4993728 -11.72881,1.1082337 -25.859119,2.6785041 -47.931441,-6.2797188 0,0 -5.158822,-9.379855 -5.239991,-14.34021 z m 48.335552,-148.182171 25.022244,-11.98687 5.093229,14.29991 -18.297075,8.21552 z m 49.895142,-16.12614 c -0.0502,-2.39662 1.20048,-4.44357 5.12889,-5.11702 11.42808,-1.9591 23.379,-3.85302 42.96999,-0.84902 19.59098,3.00392 16.71743,18.35055 -1.69809,15.08538 -18.41553,-3.26517 -26.12149,-1.82872 -41.46775,1.30585 0,0 -4.83724,-5.8498 -4.93304,-10.42519 z"
         style="display:inline;stroke-width:2.5;stroke-linecap:round;stroke-linejoin:round;paint-order:markers stroke fill"
         id="path55" /></clipPath><clipPath
       clipPathUnits="userSpaceOnUse"
       id="clipPath55"><path
         d="M -25.745695,83.406286 H 252.05183 V -292.65499 H -25.745695 Z M 13.066406,-29.936149 c -0.0487,-2.976216 1.730666,-4.361294 7.548893,-1.175123 15.515273,8.496458 27.5213,8.588618 41.374219,7.295679 13.852922,-1.29294 15.977124,13.391142 4.24832,14.4993728 -11.72881,1.1082337 -25.859119,2.6785041 -47.931441,-6.2797188 0,0 -5.158822,-9.379855 -5.239991,-14.34021 z m 48.335552,-148.182171 25.022244,-11.98687 5.093229,14.29991 -18.297075,8.21552 z m 49.895142,-16.12614 c -0.0502,-2.39662 1.20048,-4.44357 5.12889,-5.11702 11.42808,-1.9591 23.379,-3.85302 42.96999,-0.84902 19.59098,3.00392 16.71743,18.35055 -1.69809,15.08538 -18.41553,-3.26517 -26.12149,-1.82872 -41.46775,1.30585 0,0 -4.83724,-5.8498 -4.93304,-10.42519 z"
         style="display:inline;stroke-width:2.5;stroke-linecap:round;stroke-linejoin:round;paint-order:markers stroke fill"
         id="path56" /></clipPath><inkscape:path-effect
       effect="copy_rotate"
       starting_point="0,0"
       origin="190.5,190.5"
       id="path-effect5-4"
       is_visible="false"
       lpeversion="1.2"
       lpesatellites=""
       method="normal"
       num_copies="22"
       starting_angle="0"
       rotation_angle="13.846154"
       gap="-0.01"
       copies_to_360="false"
       mirror_copies="false"
       split_items="false"
       link_styles="false" /><inkscape:path-effect
       effect="copy_rotate"
       starting_point="0,0"
       origin="190.5,190.5"
       id="path-effect5-4-3"
       is_visible="false"
       lpeversion="1.2"
       lpesatellites=""
       method="normal"
       num_copies="22"
       starting_angle="0"
       rotation_angle="13.846154"
       gap="-0.01"
       copies_to_360="false"
       mirror_copies="false"
       split_items="false"
       link_styles="false" /><inkscape:path-effect
       effect="copy_rotate"
       starting_point="0,0"
       origin="190.5,190.5"
       id="path-effect5-4-6"
       is_visible="false"
       lpeversion="1.2"
       lpesatellites=""
       method="normal"
       num_copies="22"
       starting_angle="0"
       rotation_angle="13.846154"
       gap="-0.01"
       copies_to_360="false"
       mirror_copies="false"
       split_items="false"
       link_styles="false" /><marker
       style="overflow:visible"
       id="ConcaveTriangle-0-2"
       refX="0"
       refY="0"
       orient="auto-start-reverse"
       inkscape:stockid="Concave triangle arrow"
       markerWidth="1"
       markerHeight="1"
       viewBox="0 0 1 1"
       inkscape:isstock="true"
       inkscape:collect="always"
       preserveAspectRatio="xMidYMid"><path
         transform="scale(0.7)"
         d="M -2,-4 9,0 -2,4 c 2,-2.33 2,-5.66 0,-8 z"
         style="fill:context-stroke;fill-rule:evenodd;stroke:none"
         id="path7-9-8" /></marker><marker
       style="overflow:visible"
       id="ConcaveTriangle-6"
       refX="0"
       refY="0"
       orient="auto-start-reverse"
       inkscape:stockid="Concave triangle arrow"
       markerWidth="1"
       markerHeight="1"
       viewBox="0 0 1 1"
       inkscape:isstock="true"
       inkscape:collect="always"
       preserveAspectRatio="xMidYMid"><path
         transform="scale(0.7)"
         d="M -2,-4 9,0 -2,4 c 2,-2.33 2,-5.66 0,-8 z"
         style="fill:context-stroke;fill-rule:evenodd;stroke:none"
         id="path7-4" /></marker></defs><g
     inkscape:groupmode="layer"
     id="layer2"
     inkscape:label="Ebene 2"
     transform="translate(-20.5,-4)"><g
       id="g1"
       transform="matrix(0.20570728,0,0,0.20570728,137.45643,46.785176)"><path
         style="fill:none;stroke:#cea072;stroke-width:5;stroke-linecap:round;stroke-linejoin:round;stroke-dasharray:none;stroke-opacity:1;paint-order:normal"
         d="m 114.12729,366.9944 c 13.96081,-62.89528 25.43417,-70.4661 28.26563,-77.56984"
         id="path5-9-8"
         sodipodi:nodetypes="cc"
         inkscape:path-effect="#path-effect5-4-6"
         inkscape:original-d="m 114.12729,366.9944 c 13.96081,-62.89528 25.43417,-70.4661 28.26563,-77.56984"
         transform="matrix(-0.97623937,-0.21669493,-0.21669493,0.97623937,405.71568,2.4564266)" /><path
         style="fill:none;stroke:#808080;stroke-width:34.9;stroke-linecap:round;stroke-linejoin:round;stroke-dasharray:none;stroke-opacity:1;paint-order:normal"
         id="path4"
         sodipodi:type="arc"
         sodipodi:cx="235.73218"
         sodipodi:cy="-33.676071"
         sodipodi:rx="112.55007"
         sodipodi:ry="112.55007"
         sodipodi:start="0.79020394"
         sodipodi:end="0.74091389"
         sodipodi:open="true"
         sodipodi:arc-type="arc"
         d="m 314.93371,46.290395 a 112.55007,112.55007 0 0 1 -158.18599,0.214418 112.55007,112.55007 0 0 1 -2.1636,-158.171343 112.55007,112.55007 0 0 1 158.13267,-4.11245 112.55007,112.55007 0 0 1 6.06069,158.069988"
         transform="matrix(0.7071041,0.70710947,-0.70710397,0.70710959,0,0)" /><path
         style="display:inline;fill:none;stroke:#ff9600;stroke-width:2.4987;stroke-linecap:round;stroke-linejoin:round;stroke-dasharray:none;stroke-opacity:1;marker-mid:url(#ConcaveTriangle-0);marker-end:url(#ConcaveTriangle-0);paint-order:normal"
         id="path31"
         sodipodi:type="arc"
         sodipodi:cx="235.78896"
         sodipodi:cy="-33.201645"
         sodipodi:rx="112.55007"
         sodipodi:ry="112.55007"
         sodipodi:start="0.79020394"
         sodipodi:end="0.74091389"
         sodipodi:open="true"
         sodipodi:arc-type="arc"
         d="m 314.99049,46.764821 a 112.55007,112.55007 0 0 1 -158.18599,0.214418 112.55007,112.55007 0 0 1 -2.1636,-158.171339 112.55007,112.55007 0 0 1 158.13267,-4.11246 112.55007,112.55007 0 0 1 6.06068,158.069994"
         transform="matrix(0.70840841,0.70580275,-0.70579724,0.7084139,0,0)" /><path
         style="fill:none;stroke:#cea072;stroke-width:5;stroke-linecap:round;stroke-linejoin:round;stroke-dasharray:none;stroke-opacity:1;paint-order:normal"
         d="m 135.04749,310.19129 c -6.79156,-2.48153 -2.69493,-15.35906 0.13653,-22.4628 3.01956,-7.57566 8.87196,-17.45217 2.26577,-20.92108 m 27.85305,53.17652 c -7.18808,-0.78409 -6.29228,-14.26781 -5.24314,-21.84274 1.11885,-8.07816 4.43758,-19.06824 -2.80681,-20.85539 m 39.76967,44.96564 c -7.16685,0.95891 -9.52396,-12.34738 -10.31809,-19.95327 -0.8469,-8.11117 -0.2547,-19.57613 -7.71628,-19.57765 m 49.37502,34.14151 c -6.72912,2.64619 -12.20213,-9.70935 -14.7934,-16.90418 -2.76342,-7.6728 -4.93217,-18.94634 -12.17729,-17.16214 m 56.11087,21.33321 c -5.90031,4.17968 -14.17116,-6.50705 -18.40897,-12.87268 -4.51934,-6.78852 -9.32301,-17.21545 -15.93061,-13.74922 m 59.58576,7.28509 c -4.72859,5.47026 -15.31661,-2.92659 -20.95467,-8.09307 -6.01261,-5.50971 -13.17202,-14.48405 -18.75809,-9.53725 m 59.59774,-7.1864 c -3.28207,6.44292 -15.57192,0.82395 -22.28257,-2.84313 -7.15646,-3.91069 -16.25553,-10.9109 -20.49543,-4.771 m 56.14612,-21.24025 c -1.64481,7.04115 -14.92224,4.52661 -22.31548,2.57205 -7.88439,-2.0844 -18.39432,-6.70364 -21.04165,0.27251 m 49.43149,-34.05969 c 0.0881,7.23018 -13.40533,7.9662 -21.0515,7.83776 -8.15411,-0.13697 -19.4641,-2.1068 -20.365,5.30019 m 39.84409,-44.89971 c 1.81578,6.99901 -11.10937,10.94282 -18.56408,12.64796 -7.94995,1.81842 -19.40271,2.61248 -18.50482,10.01984 M 311.3768,137.6816 c 3.438,6.36108 -8.16775,13.28349 -14.99778,16.72311 -7.28377,3.66812 -18.21369,7.17994 -15.5692,14.15717 m 14.41425,-58.27319 c 4.86041,5.35348 -4.75147,14.85217 -10.55987,19.82637 -6.19427,5.30466 -15.96616,11.33013 -11.72875,17.47174 m 0.0497,-60.029427 c 6.00034,4.034748 -1.05904,15.557697 -5.50826,21.777397 -4.74479,6.6329 -12.79074,14.82184 -7.20668,19.77092 M 245.95251,70.80871 c 6.79156,2.48153 2.69493,15.35906 -0.13653,22.4628 -3.01956,7.57566 -8.87196,17.45217 -2.26577,20.92108 M 215.69716,61.016066 c 7.18807,0.784094 6.29228,14.267815 5.24313,21.842746 -1.11884,8.078153 -4.43758,19.068238 2.80682,20.855388 M 183.97744,58.74856 c 7.16685,-0.95891 9.52395,12.347375 10.31809,19.95327 0.8469,8.111173 0.2547,19.576134 7.71627,19.577652 M 152.63679,64.137969 c 6.72911,-2.646186 12.20212,9.709352 14.7934,16.904182 2.76342,7.672802 4.93217,18.946335 12.17729,17.162137 M 123.49661,76.87108 c 5.90031,-4.179675 14.17115,6.507056 18.40896,12.872686 4.51935,6.788514 9.32301,17.215444 15.93061,13.749224 M 98.250426,96.207891 c 4.728594,-5.470257 15.316604,2.926593 20.954674,8.093079 6.01261,5.5097 13.17202,14.48405 18.75809,9.53724 m -59.597738,7.18641 c 3.282069,-6.44293 15.571913,-0.82396 22.282568,2.84312 7.15645,3.91069 16.25552,10.9109 20.49543,4.77101 M 64.997331,149.879 c 1.644804,-7.04116 14.922237,-4.52661 22.315477,-2.57206 7.884393,2.0844 18.394322,6.70365 21.041652,-0.27251 m -49.431492,34.0597 c -0.08805,-7.23019 13.405335,-7.96621 21.051497,-7.83777 8.154116,0.13698 19.464103,2.10681 20.365005,-5.30018 m -39.844085,44.89971 c -1.815787,-6.99901 11.109363,-10.94283 18.564079,-12.64796 7.949951,-1.81842 19.402702,-2.61249 18.504815,-10.01984 m -27.941082,53.13032 c -3.437997,-6.36109 8.167756,-13.28349 14.997785,-16.72311 7.283765,-3.66813 18.213688,-7.17994 15.569198,-14.15717"
         id="path5"
         sodipodi:nodetypes="csc"
         inkscape:path-effect="#path-effect5"
         inkscape:original-d="m 135.04749,310.19129 c -6.79156,-2.48153 -2.69493,-15.35906 0.13653,-22.4628 3.01956,-7.57566 8.87196,-17.45217 2.26577,-20.92108"
         transform="rotate(-45,133.01151,166.68753)" /><path
         style="fill:none;stroke:#cea072;stroke-width:5;stroke-linecap:round;stroke-linejoin:round;stroke-dasharray:none;stroke-opacity:1;paint-order:normal"
         d="m 114.07626,367.22429 c 7.97664,-35.93585 18.2763,-72.39206 21.10776,-79.4958 3.01956,-7.57566 8.87196,-17.45217 2.26577,-20.92108"
         id="path5-9"
         sodipodi:nodetypes="csc"
         inkscape:path-effect="#path-effect5-4"
         inkscape:original-d="m 114.07626,367.22429 c 7.97664,-35.93585 18.2763,-72.39206 21.10776,-79.4958 3.01956,-7.57566 8.87196,-17.45217 2.26577,-20.92108"
         transform="rotate(-12.514984,-2.2048797,113.57956)" /><path
         style="display:inline;fill:none;stroke:#c80000;stroke-width:2.5;stroke-linecap:round;stroke-linejoin:round;stroke-dasharray:none;stroke-opacity:1;marker-end:url(#ConcaveTriangle-0-2);paint-order:markers stroke fill"
         d="m 235.63072,285.25001 v 34.31532"
         id="path1-4" /><path
         style="display:inline;fill:none;stroke:#c80000;stroke-width:2.5;stroke-linecap:round;stroke-linejoin:round;stroke-dasharray:none;stroke-opacity:1;marker-start:url(#ConcaveTriangle-6);paint-order:markers stroke fill"
         d="m 145.49228,298.45615 v 35.08772"
         id="path1-8-9" /><text
         xml:space="preserve"
         style="font-size:3.65472px;font-family:Sans;-inkscape-font-specification:'Sans, ';word-spacing:0px;fill:#c80000;fill-opacity:1;stroke:#c80000;stroke-width:0;stroke-linecap:square;stroke-dasharray:none;stroke-opacity:1;paint-order:stroke fill markers"
         x="188.72131"
         y="118.8945"
         id="text1"
         transform="matrix(4.2818576,0,0,4.2818576,-565.86302,-200.43629)"><tspan
           sodipodi:role="line"
           id="tspan1"
           style="fill:#c80000;fill-opacity:1;stroke:#c80000;stroke-width:0;stroke-dasharray:none;stroke-opacity:1"
           x="188.72131"
           y="118.8945">$I$</tspan></text><text
         xml:space="preserve"
         style="font-size:3.23918px;font-family:Sans;-inkscape-font-specification:'Sans, ';word-spacing:0px;fill:#ff9600;fill-opacity:1;stroke:none;stroke-width:0;stroke-linecap:square;stroke-dasharray:none;stroke-opacity:1;paint-order:stroke fill markers"
         x="157.37407"
         y="80.510872"
         id="text2"
         transform="matrix(4.2818576,0,0,4.2818576,-565.86302,-200.43629)"><tspan
           sodipodi:role="line"
           id="tspan2"
           style="fill:#ff9600;fill-opacity:1;stroke:none;stroke-width:0"
           x="157.37407"
           y="80.510872">$\vec{B}$</tspan></text></g><rect
       style="fill:none;stroke:#ffffff;stroke-width:0.0478171;stroke-linecap:square;stroke-dasharray:none;stroke-opacity:1;paint-order:stroke fill markers"
       id="rect1"
       width="189.95219"
       height="72.487045"
       x="81.667564"
       y="46.300625" /></g></svg>
