<?xml version="1.0" encoding="UTF-8" standalone="no"?>
<svg
   width="250mm"
   height="250mm"
   version="1.1"
   id="svg4"
   sodipodi:docname="Rechte-Faust-Regel.svg"
   inkscape:version="1.3.2 (091e20e, 2023-11-25, custom)"
   xmlns:inkscape="http://www.inkscape.org/namespaces/inkscape"
   xmlns:sodipodi="http://sodipodi.sourceforge.net/DTD/sodipodi-0.dtd"
   xmlns="http://www.w3.org/2000/svg"
   xmlns:svg="http://www.w3.org/2000/svg">
  <sodipodi:namedview
     id="namedview4"
     pagecolor="#ffffff"
     bordercolor="#000000"
     borderopacity="0.25"
     inkscape:showpageshadow="2"
     inkscape:pageopacity="0.0"
     inkscape:pagecheckerboard="true"
     inkscape:deskcolor="#d1d1d1"
     showgrid="false"
     inkscape:zoom="4.6914283"
     inkscape:cx="365.134"
     inkscape:cy="204.2022"
     inkscape:window-width="1440"
     inkscape:window-height="830"
     inkscape:window-x="-6"
     inkscape:window-y="1073"
     inkscape:window-maximized="1"
     inkscape:current-layer="g8"
     inkscape:document-units="mm">
    <inkscape:grid
       id="grid6"
       units="px"
       originx="0"
       originy="0"
       spacingx="1"
       spacingy="1"
       empcolor="#0099e5"
       empopacity="0.30196078"
       color="#0099e5"
       opacity="0.14901961"
       empspacing="5"
       dotted="false"
       gridanglex="30"
       gridanglez="30"
       visible="false" />
  </sodipodi:namedview>
  <defs
     id="defs1">
    <marker
       style="overflow:visible"
       id="ConcaveTriangle"
       refX="0"
       refY="0"
       orient="auto-start-reverse"
       inkscape:stockid="Concave triangle arrow"
       markerWidth="1"
       markerHeight="1"
       viewBox="0 0 1 1"
       inkscape:isstock="true"
       inkscape:collect="always"
       preserveAspectRatio="xMidYMid">
      <path
         transform="scale(0.7)"
         d="M -2,-4 9,0 -2,4 c 2,-2.33 2,-5.66 0,-8 z"
         style="fill:context-stroke;fill-rule:evenodd;stroke:none"
         id="path7" />
    </marker>
    <marker
       style="overflow:visible"
       id="marker8"
       refX="0"
       refY="0"
       orient="auto-start-reverse"
       inkscape:stockid="Concave triangle arrow"
       markerWidth="1"
       markerHeight="1"
       viewBox="0 0 1 1"
       inkscape:isstock="true"
       inkscape:collect="always"
       preserveAspectRatio="xMidYMid">
      <path
         transform="scale(0.7)"
         d="M -2,-4 9,0 -2,4 c 2,-2.33 2,-5.66 0,-8 z"
         style="fill:context-stroke;fill-rule:evenodd;stroke:none"
         id="path8" />
    </marker>
    <marker
       orient="auto"
       refY="0"
       refX="0"
       id="a"
       overflow="visible"
       viewBox="0 0 3.5 2"
       markerWidth="3.5"
       markerHeight="2"
       preserveAspectRatio="xMidYMid">
      <path
         d="M -0.5,0 -1.5,-1 2,0 -1.5,1 Z"
         id="path1" />
    </marker>
    <marker
       style="overflow:visible"
       id="Arrow2Mend"
       refX="0"
       refY="0"
       orient="auto"
       inkscape:stockid="Arrow2Mend"
       inkscape:isstock="true"
       viewBox="0 0 6.93045877 5.19622555"
       markerWidth="6.93045855"
       markerHeight="5.19622538"
       preserveAspectRatio="xMidYMid">
      <path
         transform="scale(-0.6)"
         d="M 8.7185878,4.0337352 -2.2072895,0.01601326 8.7185884,-4.0017078 c -1.7454984,2.3720609 -1.7354408,5.6174519 -6e-7,8.035443 z"
         style="fill:context-stroke;fill-rule:evenodd;stroke:context-stroke;stroke-width:0.625;stroke-linejoin:round"
         id="path28079" />
    </marker>
    <marker
       style="overflow:visible"
       id="Arrow2Mend-9"
       refX="0"
       refY="0"
       orient="auto"
       inkscape:stockid="Arrow2Mend"
       inkscape:isstock="true"
       viewBox="0 0 6.93045877 5.19622555"
       markerWidth="6.93045877"
       markerHeight="5.19622555"
       preserveAspectRatio="xMidYMid">
      <path
         transform="scale(-0.6)"
         d="M 8.7185878,4.0337352 -2.2072895,0.01601326 8.7185884,-4.0017078 c -1.7454984,2.3720609 -1.7354408,5.6174519 -6e-7,8.035443 z"
         style="fill:context-stroke;fill-rule:evenodd;stroke:context-stroke;stroke-width:0.625;stroke-linejoin:round"
         id="path28079-5" />
    </marker>
    <rect
       x="409.5"
       y="457.5"
       width="71.5"
       height="26.999998"
       id="rect15-0-4" />
    <rect
       x="409.5"
       y="457.5"
       width="124.53301"
       height="90.63961"
       id="rect15-0-4-2" />
    <marker
       orient="auto"
       refY="0"
       refX="0"
       id="a-2"
       overflow="visible">
      <path
         d="M -0.5,0 -1.5,-1 2,0 -1.5,1 Z"
         id="path1-3" />
    </marker>
  </defs>
  <rect
     style="fill:none;stroke:#ffffff;stroke-width:1.88976;stroke-dasharray:none"
     id="rect4"
     width="716.22046"
     height="241.29109"
     x="88.071602"
     y="68.743752" />
  <g
     id="g8"
     transform="matrix(0.87057171,0,0,0.87057171,-6.780935,11.854029)"
     style="stroke-width:1.14867">
    <path
       d="M 408.00126,309.50868 A 68,28 30.178317 1 0 369.4469,287.51865"
       id="path3"
       style="fill:none;stroke:#ff9600;stroke-width:2.17071;stroke-dasharray:none;stroke-opacity:1;marker-end:url(#marker8)" />
    <path
       d="m 553.65189,285.37405 -9.56422,-5.86667 c -1.02973,-0.98483 -2.25393,-1.80014 -3.48435,-2.52443 -1.06714,-0.43883 -3.99674,-4.38817 -8.69159,-11.93282 -4.60588,-6.86962 -6.44991,-15.22427 -5.1636,-23.39441 0.64202,-2.69898 1.46605,-5.38549 1.855,-5.72457 0.38895,-0.33908 0.10222,-2.82738 -0.71807,-5.53508 -2.62418,-8.40857 -1.85127,-13.01865 3.33473,-21.98946 2.58678,-4.3944 4.65869,-9.28122 4.66742,-10.74353 0.18076,-2.63913 0.35528,-5.18726 0.80906,-7.8077 1.01351,-6.78795 5.03142,-10.71861 13.52477,-13.24554 l 5.88289,-1.79143 0.58466,-4.53153 c 0.49741,-3.25746 1.80138,-6.27683 3.72371,-8.97954 2.74385,-4.01792 3.70376,-4.68363 8.85237,-6.43392 8.98577,-3.0418 31.96631,5.84672 50.7382,13.44122 1.95847,0.77416 16.8209,9.38095 21.19287,10.96043 4.73597,1.60442 7.63191,0.70559 9.71379,-2.99194 1.15066,-2.11555 4.85261,-11.51595 9.79924,-29.0063 2.03876,-3.8353 9.01431,-24.04854 20.14679,-27.82146 7.99188,-2.70853 20.0224,-2.09232 20.12992,16.788 0.038,6.68028 -3.41055,14.68399 -4.07251,21.15564 -0.278,2.72391 -1.00727,6.69694 -1.70914,8.93465 -1.23415,4.66992 -0.56662,10.38377 -0.96762,24.76198 -0.3331,11.9434 -0.48995,15.9953 -0.56195,25.60348 -0.0654,8.72689 -1.65302,28.13911 0.23939,41.89203 0.67693,4.80081 2.45589,10.86571 6.02502,20.16189 4.39192,10.63257 7.08966,21.972 7.94859,33.45977 l -6.9126,0.80658 -1.68671,-10.08157 c -1.09697,-7.22986 -3.1342,-14.28534 -6.05993,-20.98715 -2.35615,-5.64727 -4.16004,-11.34815 -5.76946,-17.21857 -2.13235,-18.09519 -2.18571,-33.79226 -0.67073,-51.61333 1.40869,-7.21803 0.19906,-15.71323 0.89936,-30.84361 0.3476,-7.51016 -0.66144,-13.60858 0.96662,-19.96466 0.65448,-2.88098 1.02906,-5.59733 1.61916,-8.38068 1.35974,-6.41362 4.01328,-12.62086 4.42613,-19.16402 0.30894,-4.89645 -0.11893,-8.12158 -3.04943,-10.01808 -2.83614,-1.83544 -7.26366,-0.62558 -10.05367,1.27924 -9.49765,6.48432 -10.68499,13.1719 -16.51838,30.28875 -5.78314,20.35886 -7.22799,24.10002 -10.26106,27.00095 -4.2124,4.1002 -10.41566,5.22965 -16.38831,2.99194 -7.41047,-3.38997 -14.66035,-7.12056 -21.72642,-11.17983 -11.1836,-6.25188 -37.06383,-15.52187 -41.79856,-14.47469 -4.45549,0.97489 -8.4896,3.80725 -9.79359,6.82661 -3.56039,9.26502 -0.26801,17.2622 5.63483,24.52387 5.66348,5.41664 23.90057,16.81463 29.02551,18.07997 5.03391,1.2591 6.13844,1.15189 8.27767,-0.71309 1.26409,-1.10202 1.34513,-2.28508 0.41761,-6.0973 -0.81777,-4.07901 -2.13673,-6.18084 -8.20911,-13.63697 -7.93114,-9.68638 -11.54015,-17.06523 -8.01591,-16.45813 l 3.9132,0.26804 c 1.09206,0.0748 2.23772,0.70185 2.46087,1.44858 0.21687,0.83776 1.28154,2.64787 2.46834,4.0092 l 10.54657,12.88274 c 3.47938,5.26705 5.76822,14.56697 4.39567,18.58738 -0.57346,1.69792 -1.49845,3.1889 -2.77501,4.47294 -1.26409,1.10203 -1.60567,2.08439 -0.9275,2.86229 0.5024,0.67443 1.52339,3.12157 2.28385,5.36801 1.04967,3.36344 1.10706,5.19599 -0.0175,9.59912 -1.79141,7.46613 -3.54792,9.08302 -10.74601,10.05291 l -5.54131,0.80907 1.45857,5.40293 c 2.62793,9.68888 -1.44858,15.80987 -11.93779,18.10868 -4.83197,1.13196 -5.96143,1.60319 -5.67221,2.72017 0.47504,2.40975 -1.61189,8.84989 -3.92316,11.8917 -1.39873,1.73282 -3.05177,3.17394 -5.03766,4.1351 l -2.82364,1.17808 7.48857,9.47319 c 7.86131,8.03583 13.67688,9.89705 24.33565,14.46722 17.14626,7.30031 22.12132,5.79725 31.72994,11.68994 3.67035,2.25092 10.36844,7.47925 9.47522,8.77858 l -1.3575,1.49234 c -0.49242,0.51486 0.22325,-0.3146 -1.76514,2.01787 0,0 -6.78977,-6.68612 -13.49615,-9.45815 -2.97729,-1.23063 -12.09754,-1.96195 -27.7117,-7.60298 -13.74668,-4.87309 -18.38667,-9.21389 -26.33524,-15.97565 -6.64584,-5.75822 -8.47092,-9.81477 -13.02241,-12.77802 l -6.05491,-3.70627 m 19.76793,-9.61782 c 3.16645,-6.18333 0.34656,-10.39946 -9.95442,-14.85369 -8.44598,-3.50429 -16.25867,-8.24525 -23.27475,-13.9374 -3.55667,-2.80369 -5.848,-4.05781 -6.25564,-3.4457 -1.52713,2.27262 0.7617,11.57255 4.29469,17.39184 5.06883,8.75888 7.29159,11.01405 14.78389,15.09304 9.42584,5.21717 17.56889,5.1349 20.40623,-0.24809 z m 18.94764,-19.00004 c 1.74654,-2.80619 0.71183,-7.72293 -2.82988,-12.07992 -2.10059,-2.70397 -4.0279,-3.93314 -9.04935,-5.37425 -3.58409,-1.06838 -6.70068,-2.28758 -7.13078,-2.68276 -0.43008,-0.39519 -4.06154,-2.10682 -8.06949,-3.66137 -8.86262,-3.1496 -16.70282,-8.64828 -22.6826,-15.90833 l -4.89182,-6.00382 -2.02827,4.24979 c -1.82134,3.89824 -1.8899,4.89929 -0.71058,10.37454 0.97488,4.45548 3.47439,8.00965 5.57872,11.99389 3.22131,3.69504 17.22108,12.88276 24.50892,15.94199 4.3595,1.76151 9.76742,4.23483 12.06498,5.39794 3.54045,1.7054 4.89929,1.8899 8.98452,0.9811 3.70876,-0.75168 5.13616,-1.56827 6.25563,-3.2288 z m 14.7153,-23.95292 c 1.43238,-3.55916 0.99107,-7.79523 -1.2666,-10.87568 -1.40994,-2.10806 -3.70126,-3.36217 -8.71026,-4.9853 -4.4692,-1.49472 -10.64006,-4.84318 -18.60359,-10.05163 -12.07246,-7.95853 -17.04531,-12.77927 -19.64331,-18.90026 -2.05446,-4.7123 -3.73369,-5.55877 -7.95978,-3.92817 -6.8615,2.73015 -8.04954,5.39173 -7.3539,16.59402 0.31664,6.05617 0.31664,6.05617 5.378,12.25446 5.73952,6.97618 8.10316,8.50955 23.02418,14.92598 11.55011,4.9055 16.82589,6.63834 24.53634,7.53217 6.61841,0.81903 9.40465,0.18698 10.59892,-2.56559 z"
       id="path2"
       style="display:inline;stroke:none;stroke-width:0.434143;stroke-dasharray:none;stroke-opacity:1"
       sodipodi:nodetypes="cccccscccccccccccccssccssccccccccscasaaccccccccscccsccccccccccccccccccacccsccccccccccccccsccccccccccccccccccccc" />
    <path
       style="fill:#000000;stroke:#b3b3b3;stroke-width:7.81458;stroke-linecap:round;stroke-dasharray:none"
       d="M 400.61137,273.54981 529.69309,75.832414"
       id="path5"
       sodipodi:nodetypes="cc" />
    <path
       style="fill:#ad2917;fill-opacity:1;stroke:#ad2917;stroke-width:2.17071;stroke-linecap:butt;stroke-linejoin:miter;stroke-miterlimit:4;stroke-dasharray:none;stroke-opacity:1;marker-end:url(#ConcaveTriangle)"
       d="m 463.43322,177.00693 0.23116,-0.34671"
       id="path2286-5"
       sodipodi:nodetypes="cc" />
    <text
       xml:space="preserve"
       transform="matrix(0.69293887,0,0,0.69293887,46.079386,-99.539762)"
       id="text14-6-1-3"
       style="font-style:normal;font-variant:normal;font-weight:normal;font-stretch:normal;font-size:13.3333px;font-family:Sans;-inkscape-font-specification:'Sans, Normal';font-variant-ligatures:normal;font-variant-caps:normal;font-variant-numeric:normal;font-variant-east-asian:normal;white-space:pre;shape-inside:url(#rect15-0-4-2);display:inline;fill:#ff9600;fill-opacity:1;stroke:none;stroke-width:0;stroke-dasharray:none;stroke-opacity:1"><tspan
         x="409.5"
         y="469.63156"
         id="tspan4">$\vec{B}$
</tspan><tspan
         x="409.5"
         y="486.29818"
         id="tspan5">
</tspan></text>
    <text
       xml:space="preserve"
       transform="translate(46.287189,-305.94712)"
       id="text14-6-1"
       style="font-style:normal;font-variant:normal;font-weight:normal;font-stretch:normal;font-size:13.3333px;font-family:Sans;-inkscape-font-specification:'Sans, Normal';font-variant-ligatures:normal;font-variant-caps:normal;font-variant-numeric:normal;font-variant-east-asian:normal;white-space:pre;shape-inside:url(#rect15-0-4);display:inline;fill:#ad2917;fill-opacity:1;stroke:#999999;stroke-width:0;stroke-dasharray:none;stroke-opacity:1"><tspan
         x="409.5"
         y="469.63156"
         id="tspan6">$\vec{I}$</tspan></text>
  </g>
</svg>
