<?xml version="1.0" encoding="UTF-8" standalone="no"?>
<!-- Created with Inkscape (http://www.inkscape.org/) -->

<svg
   width="210mm"
   height="297mm"
   viewBox="0 0 210 297"
   version="1.1"
   id="svg1"
   inkscape:version="1.1.1 (3bf5ae0d25, 2021-09-20)"
   sodipodi:docname="def_e.svg"
   xmlns:inkscape="http://www.inkscape.org/namespaces/inkscape"
   xmlns:sodipodi="http://sodipodi.sourceforge.net/DTD/sodipodi-0.dtd"
   xmlns="http://www.w3.org/2000/svg"
   xmlns:svg="http://www.w3.org/2000/svg">
  <sodipodi:namedview
     id="namedview1"
     pagecolor="#ffffff"
     bordercolor="#000000"
     borderopacity="0.25"
     inkscape:showpageshadow="2"
     inkscape:pageopacity="0.0"
     inkscape:pagecheckerboard="0"
     inkscape:deskcolor="#d1d1d1"
     inkscape:document-units="mm"
     inkscape:zoom="2.9708045"
     inkscape:cx="351.08335"
     inkscape:cy="520.06115"
     inkscape:window-width="2400"
     inkscape:window-height="1272"
     inkscape:window-x="-2408"
     inkscape:window-y="-8"
     inkscape:window-maximized="1"
     inkscape:current-layer="layer1"
     inkscape:pageshadow="2"
     showgrid="false" />
  <defs
     id="defs1">
    <marker
       style="overflow:visible"
       id="marker55306-5-6-0"
       refX="0"
       refY="0"
       orient="auto"
       inkscape:stockid="Arrow1Mend"
       inkscape:isstock="true">
      <path
         transform="matrix(-0.4,0,0,-0.4,-4,0)"
         style="fill:context-stroke;fill-rule:evenodd;stroke:context-stroke;stroke-width:1pt"
         d="M 0,0 5,-5 -12.5,0 5,5 Z"
         id="path55304-0-5-9" />
    </marker>
    <marker
       style="overflow:visible"
       id="Arrow1Send-3-5-5-4-6"
       refX="0"
       refY="0"
       orient="auto"
       inkscape:stockid="Arrow1Send"
       inkscape:isstock="true">
      <path
         transform="matrix(-0.2,0,0,-0.2,-1.2,0)"
         style="fill:context-stroke;fill-rule:evenodd;stroke:context-stroke;stroke-width:1pt"
         d="M 0,0 5,-5 -12.5,0 5,5 Z"
         id="path1129-3-0-3-8-1" />
    </marker>
    <marker
       style="overflow:visible"
       id="marker55306-5-6-0-5"
       refX="0"
       refY="0"
       orient="auto"
       inkscape:stockid="Arrow1Mend"
       inkscape:isstock="true">
      <path
         transform="matrix(-0.4,0,0,-0.4,-4,0)"
         style="fill:context-stroke;fill-rule:evenodd;stroke:context-stroke;stroke-width:1pt"
         d="M 0,0 5,-5 -12.5,0 5,5 Z"
         id="path55304-0-5-9-9" />
    </marker>
    <marker
       style="overflow:visible"
       id="marker55306-5-6-0-8"
       refX="0"
       refY="0"
       orient="auto"
       inkscape:stockid="Arrow1Mend"
       inkscape:isstock="true">
      <path
         transform="matrix(-0.4,0,0,-0.4,-4,0)"
         style="fill:context-stroke;fill-rule:evenodd;stroke:context-stroke;stroke-width:1pt"
         d="M 0,0 5,-5 -12.5,0 5,5 Z"
         id="path55304-0-5-9-94" />
    </marker>
    <marker
       style="overflow:visible"
       id="marker55306-5-6-0-9"
       refX="0"
       refY="0"
       orient="auto"
       inkscape:stockid="Arrow1Mend"
       inkscape:isstock="true">
      <path
         transform="matrix(-0.4,0,0,-0.4,-4,0)"
         style="fill:context-stroke;fill-rule:evenodd;stroke:context-stroke;stroke-width:1pt"
         d="M 0,0 5,-5 -12.5,0 5,5 Z"
         id="path55304-0-5-9-5" />
    </marker>
    <rect
       x="409.5"
       y="457.5"
       width="71.5"
       height="26.999998"
       id="rect15" />
    <marker
       style="overflow:visible"
       id="marker55306-2"
       refX="0"
       refY="0"
       orient="auto"
       inkscape:stockid="Arrow1Mend"
       inkscape:isstock="true">
      <path
         transform="matrix(-0.4,0,0,-0.4,-4,0)"
         style="fill:context-stroke;fill-rule:evenodd;stroke:context-stroke;stroke-width:1pt"
         d="M 0,0 5,-5 -12.5,0 5,5 Z"
         id="path55304-99" />
    </marker>
    <marker
       style="overflow:visible"
       id="Arrow1Send-3-5-55"
       refX="0"
       refY="0"
       orient="auto"
       inkscape:stockid="Arrow1Send"
       inkscape:isstock="true">
      <path
         transform="matrix(-0.2,0,0,-0.2,-1.2,0)"
         style="fill:context-stroke;fill-rule:evenodd;stroke:context-stroke;stroke-width:1pt"
         d="M 0,0 5,-5 -12.5,0 5,5 Z"
         id="path1129-3-0-9" />
    </marker>
    <marker
       style="overflow:visible"
       id="marker55306-7-6"
       refX="0"
       refY="0"
       orient="auto"
       inkscape:stockid="Arrow1Mend"
       inkscape:isstock="true">
      <path
         transform="matrix(-0.4,0,0,-0.4,-4,0)"
         style="fill:context-stroke;fill-rule:evenodd;stroke:context-stroke;stroke-width:1pt"
         d="M 0,0 5,-5 -12.5,0 5,5 Z"
         id="path55304-9-1" />
    </marker>
    <marker
       style="overflow:visible"
       id="Arrow1Send-3-5-3-0"
       refX="0"
       refY="0"
       orient="auto"
       inkscape:stockid="Arrow1Send"
       inkscape:isstock="true">
      <path
         transform="matrix(-0.2,0,0,-0.2,-1.2,0)"
         style="fill:context-stroke;fill-rule:evenodd;stroke:context-stroke;stroke-width:1pt"
         d="M 0,0 5,-5 -12.5,0 5,5 Z"
         id="path1129-3-0-8-7" />
    </marker>
    <marker
       style="overflow:visible"
       id="marker55306-5-6"
       refX="0"
       refY="0"
       orient="auto"
       inkscape:stockid="Arrow1Mend"
       inkscape:isstock="true">
      <path
         transform="matrix(-0.4,0,0,-0.4,-4,0)"
         style="fill:context-stroke;fill-rule:evenodd;stroke:context-stroke;stroke-width:1pt"
         d="M 0,0 5,-5 -12.5,0 5,5 Z"
         id="path55304-0-5" />
    </marker>
    <marker
       style="overflow:visible"
       id="Arrow1Send-3-5-5-4"
       refX="0"
       refY="0"
       orient="auto"
       inkscape:stockid="Arrow1Send"
       inkscape:isstock="true">
      <path
         transform="matrix(-0.2,0,0,-0.2,-1.2,0)"
         style="fill:context-stroke;fill-rule:evenodd;stroke:context-stroke;stroke-width:1pt"
         d="M 0,0 5,-5 -12.5,0 5,5 Z"
         id="path1129-3-0-3-8" />
    </marker>
    <rect
       x="409.5"
       y="457.5"
       width="71.5"
       height="26.999998"
       id="rect15-4" />
    <rect
       x="409.5"
       y="457.5"
       width="71.5"
       height="26.999998"
       id="rect15-43" />
    <marker
       style="overflow:visible"
       id="marker55306-5"
       refX="0"
       refY="0"
       orient="auto"
       inkscape:stockid="Arrow1Mend"
       inkscape:isstock="true">
      <path
         transform="matrix(-0.4,0,0,-0.4,-4,0)"
         style="fill:context-stroke;fill-rule:evenodd;stroke:context-stroke;stroke-width:1pt"
         d="M 0,0 5,-5 -12.5,0 5,5 Z"
         id="path55304-0" />
    </marker>
    <marker
       style="overflow:visible"
       id="Arrow1Send-3-5-5"
       refX="0"
       refY="0"
       orient="auto"
       inkscape:stockid="Arrow1Send"
       inkscape:isstock="true">
      <path
         transform="matrix(-0.2,0,0,-0.2,-1.2,0)"
         style="fill:context-stroke;fill-rule:evenodd;stroke:context-stroke;stroke-width:1pt"
         d="M 0,0 5,-5 -12.5,0 5,5 Z"
         id="path1129-3-0-3" />
    </marker>
    <marker
       style="overflow:visible"
       id="marker55306-7"
       refX="0"
       refY="0"
       orient="auto"
       inkscape:stockid="Arrow1Mend"
       inkscape:isstock="true">
      <path
         transform="matrix(-0.4,0,0,-0.4,-4,0)"
         style="fill:context-stroke;fill-rule:evenodd;stroke:context-stroke;stroke-width:1pt"
         d="M 0,0 5,-5 -12.5,0 5,5 Z"
         id="path55304-9" />
    </marker>
    <marker
       style="overflow:visible"
       id="Arrow1Send-3-5-3"
       refX="0"
       refY="0"
       orient="auto"
       inkscape:stockid="Arrow1Send"
       inkscape:isstock="true">
      <path
         transform="matrix(-0.2,0,0,-0.2,-1.2,0)"
         style="fill:context-stroke;fill-rule:evenodd;stroke:context-stroke;stroke-width:1pt"
         d="M 0,0 5,-5 -12.5,0 5,5 Z"
         id="path1129-3-0-8" />
    </marker>
    <marker
       style="overflow:visible"
       id="marker55306"
       refX="0"
       refY="0"
       orient="auto"
       inkscape:stockid="Arrow1Mend"
       inkscape:isstock="true">
      <path
         transform="matrix(-0.4,0,0,-0.4,-4,0)"
         style="fill:context-stroke;fill-rule:evenodd;stroke:context-stroke;stroke-width:1pt"
         d="M 0,0 5,-5 -12.5,0 5,5 Z"
         id="path55304" />
    </marker>
    <marker
       style="overflow:visible"
       id="Arrow1Send-3-5"
       refX="0"
       refY="0"
       orient="auto"
       inkscape:stockid="Arrow1Send"
       inkscape:isstock="true">
      <path
         transform="matrix(-0.2,0,0,-0.2,-1.2,0)"
         style="fill:context-stroke;fill-rule:evenodd;stroke:context-stroke;stroke-width:1pt"
         d="M 0,0 5,-5 -12.5,0 5,5 Z"
         id="path1129-3-0" />
    </marker>
    <rect
       x="409.5"
       y="457.5"
       width="71.5"
       height="26.999998"
       id="rect15-9" />
    <rect
       x="409.5"
       y="457.5"
       width="280.86608"
       height="38.366633"
       id="rect15-0" />
    <marker
       style="overflow:visible"
       id="Arrow2Mend"
       refX="0"
       refY="0"
       orient="auto"
       inkscape:stockid="Arrow2Mend"
       inkscape:isstock="true">
      <path
         transform="scale(-0.6)"
         d="M 8.7185878,4.0337352 -2.2072895,0.01601326 8.7185884,-4.0017078 c -1.7454984,2.3720609 -1.7354408,5.6174519 -6e-7,8.035443 z"
         style="fill:context-stroke;fill-rule:evenodd;stroke:context-stroke;stroke-width:0.625;stroke-linejoin:round"
         id="path28079" />
    </marker>
    <marker
       style="overflow:visible"
       id="Arrow2Mend-6"
       refX="0"
       refY="0"
       orient="auto"
       inkscape:stockid="Arrow2Mend"
       inkscape:isstock="true">
      <path
         transform="scale(-0.6)"
         d="M 8.7185878,4.0337352 -2.2072895,0.01601326 8.7185884,-4.0017078 c -1.7454984,2.3720609 -1.7354408,5.6174519 -6e-7,8.035443 z"
         style="fill:context-stroke;fill-rule:evenodd;stroke:context-stroke;stroke-width:0.625;stroke-linejoin:round"
         id="path28079-0" />
    </marker>
    <marker
       style="overflow:visible"
       id="Arrow2Mend-1"
       refX="0"
       refY="0"
       orient="auto"
       inkscape:stockid="Arrow2Mend"
       inkscape:isstock="true">
      <path
         transform="scale(-0.6)"
         d="M 8.7185878,4.0337352 -2.2072895,0.01601326 8.7185884,-4.0017078 c -1.7454984,2.3720609 -1.7354408,5.6174519 -6e-7,8.035443 z"
         style="fill:context-stroke;fill-rule:evenodd;stroke:context-stroke;stroke-width:0.625;stroke-linejoin:round"
         id="path28079-5" />
    </marker>
    <marker
       style="overflow:visible"
       id="Arrow2Mend-5"
       refX="0"
       refY="0"
       orient="auto"
       inkscape:stockid="Arrow2Mend"
       inkscape:isstock="true">
      <path
         transform="scale(-0.6)"
         d="M 8.7185878,4.0337352 -2.2072895,0.01601326 8.7185884,-4.0017078 c -1.7454984,2.3720609 -1.7354408,5.6174519 -6e-7,8.035443 z"
         style="fill:context-stroke;fill-rule:evenodd;stroke:context-stroke;stroke-width:0.625;stroke-linejoin:round"
         id="path28079-7" />
    </marker>
    <rect
       x="409.5"
       y="457.5"
       width="71.5"
       height="26.999998"
       id="rect15-7" />
  </defs>
  <g
     inkscape:label="Ebene 1"
     inkscape:groupmode="layer"
     id="layer1">
    <path
       style="fill:#e6e6e6;stroke:#000000;stroke-width:0.0823509px;stroke-linecap:butt;stroke-linejoin:miter;stroke-opacity:1"
       d="m 57.553002,146.79289 -1.744289,3.00826 0.327197,4.06677 -0.722872,6.46478 2.292816,1.7331 4.127079,0.10832 8.559864,2.05805 8.407,-1.08318 7.948439,-0.43328 2.598536,0.43328 3.515651,0.54159 1.987113,-2.59965 3.668513,-2.16637 6.572751,-3.14124 -0.45857,-2.92459 0.45857,-6.06584 z"
       id="path4577-2-9-15"
       inkscape:export-filename="C:\Users\hbode\Desktop\TD Allgemein\get it digital\GitLab\modul-1-elektrische-grundgroessen\Bilder\felddef2.png"
       inkscape:export-xdpi="300"
       inkscape:export-ydpi="300"
       sodipodi:nodetypes="ccccccccccccccccc" />
    <text
       xml:space="preserve"
       style="font-size:3.52777px;line-height:1.25;font-family:sans-serif;-inkscape-font-specification:'sans-serif, Normal';letter-spacing:0px;stroke-width:0.264583"
       x="85.669815"
       y="152.77913"
       id="text20906-6"><tspan
         sodipodi:role="line"
         id="tspan20904-6"
         style="stroke-width:0.264583"
         x="85.669815"
         y="152.77913">$Q_1$</tspan></text>
    <g
       id="use8"
       transform="matrix(1.1630525,0,0,1.1630525,26.041572,-14.564932)">
      <g
         id="g33"
         transform="matrix(0.4200411,0,0,0.4200411,-9.01868,114.37249)"
         inkscape:export-filename="C:\Users\hbode\Desktop\TD Allgemein\get it digital\GitLab\modul-1-elektrische-grundgroessen\Bilder\felddef1.png"
         inkscape:export-xdpi="300"
         inkscape:export-ydpi="300"
         style="opacity:1;fill:#4e9dde;fill-opacity:1">
        <path
           id="path33"
           style="stroke-width:0.365001;paint-order:stroke markers fill"
           d="m 141.49007,72.036949 a 11.162109,11.162109 0 0 1 -11.16211,11.16211 11.162109,11.162109 0 0 1 -11.16211,-11.16211 11.162109,11.162109 0 0 1 11.16211,-11.162109 11.162109,11.162109 0 0 1 11.16211,11.162109 z" />
      </g>
      <path
         id="path34"
         style="stroke-width:1.1"
         d="m 43.409313,144.2341 h 4.630208 v 0.79375 h -4.630208 z" />
    </g>
    <path
       id="path846-18-0"
       style="fill:none;stroke:#000000;stroke-width:0.468754;stroke-dasharray:2.81252, 2.81252;paint-order:stroke markers fill"
       d="m 88.986166,113.79749 a 9.7288472,9.7288472 0 0 1 -9.72885,9.72885 9.7288472,9.7288472 0 0 1 -9.72885,-9.72885 9.7288472,9.7288472 0 0 1 9.72885,-9.72885 9.7288472,9.7288472 0 0 1 9.72885,9.72885 z" />
    <path
       style="display:inline;fill:#ff0000;stroke:#f02d2d;stroke-width:0.447802;stroke-linecap:butt;stroke-linejoin:miter;stroke-miterlimit:4;stroke-dasharray:none;stroke-opacity:1;marker-end:url(#Arrow2Mend-5)"
       d="m 79.145001,123.90119 0,20.12364"
       id="use29"
       inkscape:export-filename="C:\Users\hbode\Desktop\TD Allgemein\get it digital\Materialsammlung\Kapitel 1\Inkscape_Bilder\kraft1.png"
       inkscape:export-xdpi="300"
       inkscape:export-ydpi="300"
       sodipodi:nodetypes="cc" />
    <text
       xml:space="preserve"
       transform="matrix(0.19907612,0,0,0.19907612,0.25859103,40.305834)"
       id="text14"
       style="font-style:normal;font-variant:normal;font-weight:normal;font-stretch:normal;font-size:13.3333px;font-family:Sans;-inkscape-font-specification:'Sans, Normal';font-variant-ligatures:normal;font-variant-caps:normal;font-variant-numeric:normal;font-variant-east-asian:normal;white-space:pre;shape-inside:url(#rect15-7);display:inline;fill:#f02d2d;fill-opacity:1;stroke:#000000;stroke-width:0;stroke-dasharray:none;stroke-opacity:1"><tspan
         x="409.5"
         y="469.66437"
         id="tspan45112"><tspan
           style="stroke:none"
           id="tspan45110">$\vec{E}$</tspan></tspan></text>
  </g>
</svg>
