<?xml version="1.0" encoding="UTF-8"?>
<svg version="1.1" xmlns="http://www.w3.org/2000/svg" width="997" height="1135">
<path d="M0 0 C4.42977671 2.1357852 7.19613671 4.39012714 9 9 C10.80543494 16.26472632 8.01048175 21.73737317 4.38427734 27.86645508 C3.47012167 29.37159212 2.54898584 30.8725022 1.62255859 32.37011719 C-0.22836435 35.37013854 -2.04242749 38.39100077 -3.85546875 41.4140625 C-7.8565676 48.07422988 -11.90941648 54.70204929 -15.97320557 61.32409668 C-16.91375935 62.85924058 -17.85038967 64.39678653 -18.78662109 65.93457031 C-27.54614749 80.31511438 -36.80127947 94.35650654 -46.125 108.375 C-46.71415192 109.26270081 -47.30330383 110.15040161 -47.91030884 111.06500244 C-59.02998064 127.80209944 -70.55132234 144.21910054 -83 160 C-83.72445312 160.91910156 -84.44890625 161.83820313 -85.1953125 162.78515625 C-121.95372023 208.56847771 -168.71708763 215.52779116 -224.16943359 222.52685547 C-243.62129694 224.71462966 -243.62129694 224.71462966 -262 231 C-263.37889404 231.66032227 -263.37889404 231.66032227 -264.78564453 232.33398438 C-275.79167268 237.65393362 -286.6484686 243.25472782 -297.4375 249 C-326.78957856 264.59952607 -353.77738948 275.76403609 -386.59579468 280.68954468 C-414.8129431 284.95308083 -444.32290004 290.84133897 -466.5234375 309.8984375 C-499.33808413 337.74430483 -552.13696759 330.9280709 -592 328 C-596.02363121 327.6523508 -600.04275921 327.26463792 -604.0625 326.875 C-612.12322554 326.12387867 -620.1545169 325.73151164 -628.25 325.625 C-629.76799194 325.58608643 -629.76799194 325.58608643 -631.31665039 325.54638672 C-639.33023959 325.52648377 -648.12739987 326.8134217 -654.125 332.625 C-656.55624609 335.70457838 -657.4848005 337.7894781 -657.39453125 341.76953125 C-655.55223449 352.18489214 -647.35189796 361.80493727 -641 370 C-640.53819336 370.59635254 -640.07638672 371.19270508 -639.60058594 371.80712891 C-622.77816236 393.19068382 -600.25495902 406.50687065 -573.28125 410.55859375 C-553.12820147 412.93473823 -533.12874034 409.80074775 -513.32421875 406.3125 C-512.0272683 406.08416222 -512.0272683 406.08416222 -510.70411682 405.85121155 C-506.37494675 405.08631646 -502.04827343 404.31019733 -497.72485352 403.51342773 C-489.45905178 402.00597785 -481.21078593 400.68335633 -472.85546875 399.77734375 C-472.10460999 399.69407333 -471.35375122 399.61080292 -470.58013916 399.52500916 C-455.31884002 397.99258203 -439.81694485 399.04221087 -427.02734375 408.31640625 C-414.10739749 419.04568725 -410.69491936 434.275887 -409.19628906 450.39526367 C-403.61369995 524.47566567 -431.75976594 599.61190091 -454.12329102 668.68847656 C-454.45152359 669.70539581 -454.77975616 670.72231506 -455.11793518 671.77005005 C-455.73252979 673.67341389 -456.34946207 675.57602502 -456.96910095 677.47775269 C-457.37304832 678.73037399 -457.37304832 678.73037399 -457.78515625 680.00830078 C-458.02113525 680.73526154 -458.25711426 681.46222229 -458.50024414 682.21121216 C-459.08969277 684.01149147 -459.08969277 684.01149147 -459 686 C-454.82235559 683.85108865 -450.64556344 681.70053198 -446.46948242 679.54858398 C-445.05499007 678.81996432 -443.64028386 678.09175964 -442.2253418 677.36401367 C-441.5444751 677.0137915 -440.8636084 676.66356934 -440.16210938 676.30273438 C-439.48220947 675.9532222 -438.80230957 675.60371002 -438.10180664 675.24360657 C-436.73346328 674.5364181 -435.3675651 673.82447841 -434.00415039 673.10783386 C-430.74241378 671.39449518 -427.47997465 669.74465753 -424.11914062 668.23364258 C-418.05464741 665.66223899 -418.05464741 665.66223899 -413.94555664 660.86743164 C-413.59298378 658.41357692 -413.65238088 656.27967577 -413.875 653.8125 C-413.9024705 652.11469322 -413.92202284 650.41673957 -413.93359375 648.71875 C-413.95405762 647.9040625 -413.97452148 647.089375 -413.99560547 646.25 C-414.02313081 632.15702701 -404.90828141 618.47269801 -397.19384766 607.25390625 C-382.31398787 585.48553038 -369.82133559 561.9596331 -356.76196289 539.07226562 C-331.62771878 495.02704546 -307.97901976 457.22925666 -256 443 C-228.38952869 435.46604517 -195.85515651 440.88681522 -171.01171875 454.65625 C-158.60599625 462.20606729 -148.25251643 471.8151818 -144.421875 486.296875 C-143.60786272 491.51258329 -143.77740513 496.74016568 -144 502 C-143.319375 502.268125 -142.63875 502.53625 -141.9375 502.8125 C-123.712879 510.17989998 -107.91832105 517.17625457 -99.2421875 535.8984375 C-94.93512526 546.65254887 -95.97196488 560.28229524 -100 571 C-108.21734271 589.19706125 -121.18701956 599.60238196 -139.55859375 607.03515625 C-145.87759169 609.20889154 -152.37197603 610.14662018 -159 609 C-163.15206874 606.89869217 -165.37042935 604.20667708 -167.5 600.125 C-168.40842329 594.44735445 -168.00862791 590.61991756 -164.9375 585.6875 C-161.52893819 582.56902856 -158.3235676 581.31395348 -154 580 C-143.73842415 576.68052421 -134.38891073 572.87212217 -129 563 C-126.51167587 557.78636849 -126.02474449 551.67797067 -127 546 C-134.68858846 533.89226958 -154.49380386 530.79425627 -167.25830078 527.08984375 C-170.53591832 526.13517295 -173.80772083 525.16391662 -177.07771301 524.18362427 C-179.83502873 523.35811075 -182.59448936 522.53994795 -185.35452271 521.72357178 C-186.68048625 521.33075155 -188.00592556 520.93615649 -189.33078003 520.53961182 C-204.76977399 515.93195039 -219.39071091 512.34909616 -235 518 C-245.18967515 523.56273082 -250.99784195 533.13524708 -255.8125 543.3125 C-256.85903245 545.4643423 -257.90722941 547.61537582 -258.95703125 549.765625 C-259.47088379 550.82458984 -259.98473633 551.88355469 -260.51416016 552.97460938 C-262.59617145 557.21389362 -264.7831259 561.39254768 -267 565.5625 C-267.39936768 566.31716553 -267.79873535 567.07183105 -268.21020508 567.84936523 C-269.03534104 569.40821072 -269.86111664 570.96671778 -270.6875 572.52490234 C-285.59651336 600.30343508 -285.59651336 600.30343508 -298 629.25 C-298.27884033 629.99991211 -298.55768066 630.74982422 -298.8449707 631.52246094 C-303.05254435 643.28523021 -305.71590933 655.87242584 -300.25390625 667.671875 C-295.8979062 675.7596508 -290.29220688 682.33963208 -284 689 C-283.45859375 689.59425781 -282.9171875 690.18851563 -282.359375 690.80078125 C-277.13228033 696.3314698 -271.01724454 700.84697979 -264.99609375 705.46582031 C-262.94908912 707.03912964 -260.91163511 708.62423444 -258.875 710.2109375 C-249.4793412 717.50200351 -239.87959114 724.38292394 -230 731 C-229.08766602 731.61278809 -228.17533203 732.22557617 -227.23535156 732.85693359 C-217.16040049 739.61927776 -207.06381731 746.3476588 -196.875 752.9375 C-195.8555127 753.59903076 -195.8555127 753.59903076 -194.81542969 754.27392578 C-191.68244225 756.29957741 -188.53662555 758.29126149 -185.33984375 760.21484375 C-177.40546088 765.0416296 -170.83852439 770.59298387 -164.1484375 777.02734375 C-157.06516112 784.00391448 -157.06516112 784.00391448 -148.0625 787.3125 C-124.43838598 786.77779783 -97.5794152 760.19867756 -82.0625 744.25390625 C-78.16937713 739.99948979 -74.59056553 735.50975031 -71 731 C-70.05216599 729.84131379 -69.10288028 728.68381397 -68.15234375 727.52734375 C-61.44305589 719.32188142 -55.32886091 710.84562805 -49.40185547 702.06347656 C-40.81535134 689.42447745 -31.72525456 677.16847517 -22.48388672 665.00439453 C-15.03177104 655.19040612 -7.85084391 645.24395057 -1 635 C-0.56365234 634.35015137 -0.12730469 633.70030273 0.32226562 633.03076172 C23.1461815 598.88787423 40.94704413 563.05003539 54.0625 524.1875 C63.01019291 497.68692344 74.71219145 475.06083471 92 453 C92.45874512 452.41299316 92.91749023 451.82598633 93.39013672 451.22119141 C95.63970088 448.34625326 97.89835956 445.47859975 100.16015625 442.61328125 C109.53547406 430.71118895 118.55912296 418.57496991 127.37939453 406.25732422 C128.98427261 404.02190651 130.59782975 401.79305764 132.21484375 399.56640625 C139.69949876 389.25613221 147.03371036 378.84714591 154.32421875 368.39892578 C162.55603846 356.6148552 170.9119825 344.92393067 179.34570312 333.28369141 C182.12918209 329.44120878 184.90867136 325.59584647 187.6875 321.75 C188.23212891 320.99654297 188.77675781 320.24308594 189.33789062 319.46679688 C192.15591963 315.56517268 194.96202096 311.65563777 197.75024414 307.73266602 C203.79270458 299.23246617 209.985177 290.84538095 216.18554688 282.45996094 C217.96839055 280.0428548 219.74329585 277.62013601 221.515625 275.1953125 C227.91473881 266.45060329 234.42198796 257.8097821 241.1015625 249.27709961 C244.27975878 245.21691799 247.42155403 241.1368396 250.5 237 C260.6483167 223.39373835 271.18587109 210.08223182 282 197 C283.10214844 195.66195312 283.10214844 195.66195312 284.2265625 194.296875 C285.13535156 193.22179687 285.13535156 193.22179687 286.0625 192.125 C286.79146484 191.26261719 286.79146484 191.26261719 287.53515625 190.3828125 C290.92901914 187.17900593 294.26646169 186.55374893 298.90625 186.68359375 C303.49227511 187.37663113 306.77201408 189.69278919 309.9375 193.0625 C311.66645773 197.84255961 311.99648907 201.99762486 311 207 C309.20018453 210.49964118 306.88955267 213.41488976 304.34814453 216.41015625 C302.87276637 218.15004444 301.43282469 219.91557732 299.99609375 221.6875 C298.35476015 223.7115942 296.71181937 225.7340678 295.05957031 227.74926758 C290.75079385 233.01548134 286.63866445 238.40366627 282.58422852 243.86694336 C278.85518027 248.88417513 275.04041362 253.82739942 271.1875 258.75 C254.81877706 279.70042606 239.14012495 301.19048924 223.60888672 322.76611328 C220.90987861 326.51359798 218.20453723 330.25650489 215.5 334 C214.96439453 334.74185547 214.42878906 335.48371094 213.87695312 336.24804688 C211.15909879 340.01248772 208.43905269 343.775311 205.71484375 347.53515625 C198.39959622 357.6367501 191.17291485 367.79694291 184 378 C177.34396858 387.46782027 170.64583222 396.90082697 163.85351562 406.27148438 C160.21471314 411.29814955 156.62684185 416.35785377 153.0625 421.4375 C144.49769326 433.60630256 135.82550862 445.68654318 126.375 457.1875 C104.9482568 483.2709628 89.86738717 509.83547322 79.40527344 541.94799805 C75.28726857 554.58554419 70.83368734 566.83189989 65.04394531 578.81640625 C64.03505906 580.92666787 63.0696428 583.05126446 62.1171875 585.1875 C56.54983074 597.56981688 49.82747431 609.2770899 43 621 C42.48888672 621.88155762 41.97777344 622.76311523 41.45117188 623.67138672 C34.17831511 636.17131297 26.34993591 648.19431852 18 660 C17.4622998 660.76054688 16.92459961 661.52109375 16.37060547 662.3046875 C10.03045389 671.23845083 3.49772518 680.00292078 -3.19311523 688.67626953 C-9.03474427 696.28368572 -14.51726683 704.13221476 -20 712 C-31.0603952 727.83409499 -42.22867126 743.48628389 -55 758 C-55.43634766 758.49951172 -55.87269531 758.99902344 -56.32226562 759.51367188 C-78.22164701 784.46274489 -109.80634363 812.96809494 -144 817 C-157.1214594 817.36364322 -167.2176057 813.57611932 -177 805 C-177.886875 804.15566406 -178.77375 803.31132813 -179.6875 802.44140625 C-184.27895333 797.84051532 -184.27895333 797.84051532 -190.171875 795.921875 C-192.58605287 796.7387021 -194.73096043 797.83772438 -197 799 C-220.87768233 808.0580071 -243.8280669 807.96817834 -267.36328125 797.7578125 C-273.57064075 794.8386461 -279.60918106 791.54038683 -285.640625 788.27734375 C-295.10903062 782.94043167 -295.10903062 782.94043167 -305.60546875 781.05859375 C-309.03147263 782.40552187 -312.15480545 784.19046063 -315.3125 786.0625 C-326.24282351 792.5091839 -337.66318817 797.95417534 -349.19166565 803.23408508 C-353.69504188 805.30332934 -358.18154887 807.40783755 -362.66699219 809.515625 C-364.98299053 810.5935028 -367.30640443 811.65558069 -369.63671875 812.70214844 C-384.82008704 818.70217299 -384.82008704 818.70217299 -395.06640625 830.43359375 C-395.57286301 832.24943871 -396.07509293 834.06829057 -396.4822998 835.90893555 C-397.29513132 839.19207722 -398.51826341 842.31041341 -399.69458008 845.47801208 C-400.73110042 848.2799069 -401.72584802 851.09360282 -402.70996094 853.91430664 C-404.9018643 860.19389196 -407.10689275 866.46877771 -409.31640625 872.7421875 C-409.69924774 873.83018143 -410.08208923 874.91817535 -410.47653198 876.03913879 C-415.34830516 889.86183613 -420.36120817 903.63352492 -425.37817383 917.40405273 C-434.87292992 943.50236394 -441.4556217 968.11932693 -441.3125 996.0625 C-441.31034485 996.83412476 -441.3081897 997.60574951 -441.30596924 998.40075684 C-441.19438005 1023.67151513 -438.05344826 1048.4483888 -433.98193359 1073.35058594 C-431.31660754 1089.8799585 -430.01183458 1105.04078816 -439.99609375 1119.52734375 C-446.75115459 1127.86253579 -456.57335689 1132.77626883 -467 1135 C-487.14529549 1136.53208216 -505.48436767 1134.20736303 -521.3125 1120.6875 C-529.49658994 1113.39268299 -533.53055119 1104.12253728 -537.375 1094.0625 C-537.84760254 1092.83829346 -538.32020508 1091.61408691 -538.80712891 1090.3527832 C-562.53529473 1028.24028935 -564.44576533 958.447804 -554 893 C-554.66829834 893.24645264 -555.33659668 893.49290527 -556.02514648 893.74682617 C-616.6801389 916.04301237 -616.6801389 916.04301237 -642.33984375 906.26953125 C-649.0902443 903.04797445 -655.01461353 899.67780126 -660 894 C-660.71929688 893.26716797 -660.71929688 893.26716797 -661.453125 892.51953125 C-671.78015214 881.54054532 -673.62103728 867.40425082 -673.30859375 852.98046875 C-672.12535065 827.5824748 -658.38302684 805.65579902 -641 788 C-640.45923828 787.43877441 -639.91847656 786.87754883 -639.36132812 786.29931641 C-616.42519694 762.79298532 -584.24405822 748.69067324 -554.62988281 735.81152344 C-545.11116127 731.61539252 -535.8588581 726.97263825 -526.625 722.1875 C-525.93671112 721.8308728 -525.24842224 721.47424561 -524.53927612 721.10681152 C-520.56330354 719.04360859 -520.56330354 719.04360859 -516.60818481 716.94085693 C-513.54712593 715.29514116 -510.5454845 713.80837004 -507.33569336 712.45507812 C-500.79762752 709.5478345 -497.43053314 707.20427683 -494.73828125 700.4453125 C-493.84051843 697.6942778 -493.07589635 694.9157561 -492.3125 692.125 C-491.84551027 690.5672539 -491.37330774 689.01106305 -490.89648438 687.45629883 C-489.83068168 683.96017923 -488.79221784 680.45726773 -487.76806641 676.94873047 C-485.83302612 670.3730808 -483.75544022 663.84499496 -481.66796875 657.31640625 C-477.41028448 643.98871279 -473.2115891 630.643282 -469.03167725 617.29101562 C-468.06910163 614.22043187 -467.10308439 611.15096214 -466.13525391 608.08203125 C-454.13232856 570.00814989 -444.25161367 531.7896432 -440 492 C-439.9057373 491.15687256 -439.81147461 490.31374512 -439.71435547 489.44506836 C-438.91786227 481.69457685 -438.78147959 473.9747629 -438.75 466.1875 C-438.729375 464.92357422 -438.70875 463.65964844 -438.6875 462.35742188 C-438.64844777 452.82379556 -438.93245744 441.78470293 -443.75 433.25 C-447.91996214 429.08003786 -453.6177346 428.69320078 -459.3125 428.625 C-473.87883585 428.69563818 -488.394922 432.00361207 -502.6875 434.53125 C-548.88195731 442.68426333 -593.50434213 445.81507335 -633.984375 417.9453125 C-645.46104097 409.59053753 -655.39861783 400.32613509 -664 389 C-664.43699219 388.43265137 -664.87398437 387.86530273 -665.32421875 387.28076172 C-676.14868631 373.1854554 -686.65038023 359.00765025 -686.4375 340.5625 C-686.42920166 339.63598633 -686.42090332 338.70947266 -686.41235352 337.75488281 C-686.24867034 331.15396547 -685.62070801 325.66813218 -682 320 C-681.2884375 318.85917969 -681.2884375 318.85917969 -680.5625 317.6953125 C-671.82184124 305.21466033 -658.35190731 299.27344722 -643.79377747 296.42745972 C-639.15322363 295.71743544 -634.56899648 295.70552526 -629.8828125 295.75 C-628.32471359 295.75797607 -628.32471359 295.75797607 -626.73513794 295.76611328 C-616.43696357 295.88864481 -606.23669789 296.7453043 -595.98898315 297.71063232 C-579.30627864 299.26087688 -562.69648356 300.40597381 -545.9375 300.375 C-545.18764832 300.3764502 -544.43779663 300.37790039 -543.66522217 300.37939453 C-524.59716322 300.37516036 -499.70743346 300.20668237 -485.125 286.4375 C-458.16895369 261.65086152 -418.36133145 255.13453911 -383.5625 250.05078125 C-360.98720817 246.69422461 -342.34312829 238.10580917 -322 228 C-320.20195268 227.1114144 -318.40390527 226.22282898 -316.60585022 225.33425903 C-301.66058471 217.9553377 -301.66058471 217.9553377 -286.92114258 210.17724609 C-274.73731961 203.53945399 -262.61167166 198.36364203 -248.87890625 195.984375 C-247.93071014 195.81622787 -246.98251404 195.64808075 -246.00558472 195.47483826 C-236.2519029 193.79215277 -226.44902099 192.58389175 -216.62234497 191.4201355 C-199.58312449 189.38705951 -182.63579634 187.33575551 -166 183 C-165.25991699 182.81115234 -164.51983398 182.62230469 -163.75732422 182.42773438 C-149.73938596 178.75193349 -135.82390196 172.82963957 -125 163 C-124.12021484 162.20529297 -124.12021484 162.20529297 -123.22265625 161.39453125 C-117.96959127 156.3797005 -113.50209267 150.68128847 -109 145 C-108.49049805 144.3615918 -107.98099609 143.72318359 -107.45605469 143.06542969 C-77.75743773 105.77970301 -52.21275263 64.72220056 -28.2421875 23.57421875 C-27.66025635 22.57712891 -27.0783252 21.58003906 -26.47875977 20.55273438 C-25.40732121 18.71033102 -24.3421682 16.86425023 -23.28491211 15.01367188 C-17.05425992 4.28409304 -13.0611613 -1.32825369 0 0 Z M-296 498 C-296.58910156 498.5775 -297.17820312 499.155 -297.78515625 499.75 C-310.47900633 513.19407762 -318.9491524 531.34127237 -328.00531006 547.253479 C-329.66310164 550.16430346 -331.32580895 553.07231591 -332.98828125 555.98046875 C-333.65634128 557.1494084 -334.3243914 558.31835372 -334.99243164 559.48730469 C-335.32356964 560.066698 -335.65470764 560.64609131 -335.99588013 561.24304199 C-337.33512922 563.58639211 -338.67423638 565.92982332 -340.01329041 568.27328491 C-340.68074724 569.44131658 -341.3482784 570.60930578 -342.0158844 571.7772522 C-343.66914222 574.66973915 -345.32092275 577.56304608 -346.97070312 580.45751953 C-355.77001982 595.88715219 -364.7708374 611.12720308 -374.6015625 625.92578125 C-382.82896738 638.35692186 -387.54226503 648.50277003 -384.66894531 663.56274414 C-381.59587666 677.72452298 -373.39233846 690.11460488 -363 700 C-362.52046875 700.53496094 -362.0409375 701.06992187 -361.546875 701.62109375 C-357.16940909 706.36334849 -352.28409774 710.12072963 -347.05859375 713.859375 C-346.27550842 714.42199036 -345.4924231 714.98460571 -344.68560791 715.56427002 C-335.91381597 721.83020493 -326.98826185 727.86712291 -318.03955078 733.87646484 C-315.23625749 735.75922983 -312.4362721 737.64683581 -309.63671875 739.53515625 C-290.01934704 752.93417706 -290.01934704 752.93417706 -269.4375 764.75 C-268.5412793 765.21462646 -267.64505859 765.67925293 -266.72167969 766.15795898 C-252.73826213 773.30461915 -236.73549438 780.53030205 -220.75 776 C-219.8425 775.67 -218.935 775.34 -218 775 C-221.26067095 771.44868854 -224.96184356 768.86763382 -228.9765625 766.25390625 C-229.65501724 765.80629944 -230.33347198 765.35869263 -231.03248596 764.89752197 C-232.47973332 763.94271329 -233.92819888 762.98974894 -235.3777771 762.03848267 C-319.77480992 706.60626119 -319.77480992 706.60626119 -331 668 C-338.87473049 629.81013056 -312.85436506 588.99051821 -295.53125 556.74609375 C-293.49116204 552.94601187 -291.50582228 549.11968605 -289.53125 545.28515625 C-289.22491135 544.69060638 -288.91857269 544.09605652 -288.60295105 543.48348999 C-287.0930754 540.55251574 -285.58600265 537.62018581 -284.08325195 534.68554688 C-278.08489987 523.05132805 -272.2935152 512.32700534 -263 503 C-262.45988281 502.43667969 -261.91976562 501.87335938 -261.36328125 501.29296875 C-247.97484106 488.51156111 -229.7573659 486.24735861 -212.12890625 486.64453125 C-203.49357974 487.01787064 -195.31756953 488.7389868 -187 491 C-186.28440918 491.19207031 -185.56881836 491.38414062 -184.83154297 491.58203125 C-180.86745419 492.65741035 -176.92716188 493.79558494 -173 495 C-173.42214513 490.21568848 -175.63160217 487.24733728 -179 484 C-215.3598585 457.71633758 -265.51971284 467.5740449 -296 498 Z M-395 708 C-394.44877159 718.58376052 -393.5088622 729.04688085 -392.15234375 739.5625 C-391.97397433 740.9744729 -391.79605086 742.3865022 -391.61854553 743.79858398 C-391.15771617 747.45515964 -390.6909724 751.11095478 -390.22283936 754.76660156 C-389.74317459 758.52101718 -389.26931886 762.27616579 -388.79492188 766.03125 C-387.86885074 773.35488133 -386.93650786 780.67769513 -386 788 C-381.36417318 786.49386978 -376.97806778 784.70066575 -372.57421875 782.62109375 C-371.52236641 782.12845787 -371.52236641 782.12845787 -370.44926453 781.62586975 C-368.19339116 780.56717244 -365.94025811 779.50280832 -363.6875 778.4375 C-362.92487854 778.07817383 -362.16225708 777.71884766 -361.37652588 777.34863281 C-350.42707742 772.1860278 -339.57817547 766.89495847 -329 761 C-332.39231193 758.22300552 -335.8564668 755.67892545 -339.5 753.2421875 C-340.54599365 752.53900391 -341.5919873 751.83582031 -342.66967773 751.11132812 C-343.214216 750.74595947 -343.75875427 750.38059082 -344.3197937 750.00415039 C-361.95798038 738.15074561 -378.69216804 725.86855889 -392.546875 709.57421875 C-393.02640625 709.05472656 -393.5059375 708.53523437 -394 708 C-394.33 708 -394.66 708 -395 708 Z M-436.95703125 844.17578125 C-438.02783936 844.66481934 -439.09864746 845.15385742 -440.2019043 845.65771484 C-441.39340088 846.20379395 -442.58489746 846.74987305 -443.8125 847.3125 C-457.17820104 853.3860083 -470.66317385 859.16472275 -484.1875 864.875 C-485.60985458 865.47726913 -485.60985458 865.47726913 -487.0609436 866.09170532 C-499.29697041 871.2697323 -511.58705849 876.26115623 -524 881 C-525.51734351 892.79499762 -526.57966645 904.58096815 -527.37768555 916.44555664 C-527.56117594 919.16785605 -527.75177046 921.88958797 -527.94335938 924.61132812 C-532.29412937 979.58029297 -532.29412937 979.58029297 -526 1034 C-525.76394043 1035.03962891 -525.52788086 1036.07925781 -525.28466797 1037.15039062 C-518.00092854 1073.35235301 -518.00092854 1073.35235301 -498 1102 C-489.01848514 1106.24528194 -479.433918 1109.09578528 -469.6875 1105.75 C-465.70903577 1104.07777699 -462.95814164 1101.91628329 -461 1098 C-460.07053216 1088.84503047 -461.95523585 1079.71046556 -463.39373779 1070.70559692 C-472.37147201 1014.04092833 -472.74951755 961.90995565 -452.67773438 907.55419922 C-450.96690511 902.92009973 -449.28492704 898.27586057 -447.609375 893.62890625 C-447.33018723 892.85474365 -447.05099945 892.08058105 -446.76335144 891.28295898 C-446.20301069 889.72889537 -445.64276342 888.17479804 -445.08261108 886.6206665 C-444.25810288 884.33496283 -443.43173539 882.04994023 -442.60473633 879.76513672 C-439.42652411 870.98200237 -436.27199667 862.19159045 -433.1875 853.375 C-432.85588867 852.43309814 -432.52427734 851.49119629 -432.18261719 850.52075195 C-431.8890332 849.67601318 -431.59544922 848.83127441 -431.29296875 847.9609375 C-430.91434692 846.87498291 -430.91434692 846.87498291 -430.52807617 845.76708984 C-429.90455747 843.98800736 -429.90455747 843.98800736 -430 842 C-432.73096954 842 -434.47183921 843.02881987 -436.95703125 844.17578125 Z " fill="#7E7E7E" transform="translate(686,0)"/>
<path d="M0 0 C1.12840628 2.06069917 2.25278771 4.12343096 3.375 6.1875 C4.00148438 7.33605469 4.62796875 8.48460937 5.2734375 9.66796875 C8.00045508 14.9307425 9.33333113 19.30668748 10.05322266 25.21777344 C10.14129684 25.92581116 10.22937103 26.63384888 10.32011414 27.36334229 C10.60823691 29.69457629 10.88641429 32.0268721 11.1640625 34.359375 C11.36254271 35.98982049 11.56147354 37.62021119 11.76083374 39.25054932 C12.17695988 42.66619517 12.58828036 46.08237537 12.99609375 49.49902344 C13.51675039 53.85862262 14.04824276 58.2168155 14.58326149 62.5746727 C14.99566429 65.94240301 15.40275406 69.31075931 15.80823898 72.67932892 C16.00209365 74.28532282 16.19744308 75.89113708 16.39436722 77.49675751 C17.35417346 85.3485674 18.27310693 93.07203172 18 101 C17.22833496 101.28045166 16.45666992 101.56090332 15.66162109 101.84985352 C7.72504637 104.80870073 0.13154987 108.22461922 -7.45462036 111.9866333 C-23.78519901 120.07264041 -40.3361445 127.63033145 -57 135 C-58.20382324 135.53302734 -59.40764648 136.06605469 -60.64794922 136.61523438 C-101.06113367 154.44990337 -142.01225479 170.69748713 -183.875 184.8125 C-184.63807465 185.07188354 -185.40114929 185.33126709 -186.18734741 185.59851074 C-188.34871716 186.33071992 -190.5134225 187.05195268 -192.6796875 187.76953125 C-193.90413574 188.17792236 -195.12858398 188.58631348 -196.39013672 189.00708008 C-205.86596293 191.61347702 -220.40063617 193.64083875 -229.6875 189.4375 C-234.60891081 186.29664456 -238.03561794 182.19177741 -240.375 176.875 C-243.04113665 160.3449528 -238.10589116 145.70657306 -228.96484375 131.93359375 C-207.82230417 102.73675337 -173.68361326 86.80717308 -141.56866455 72.61141968 C-125.22354325 65.38609963 -109.38381812 57.3952613 -93.74047852 48.76147461 C-86.0628536 44.53739651 -78.29393348 40.50333462 -70.5 36.5 C-61.06987065 31.65475334 -51.71104332 26.70435829 -42.4284668 21.58056641 C-33.19614275 16.50898868 -23.82957044 11.70044638 -14.45507812 6.8984375 C-13.84907272 6.58730011 -13.24306732 6.27616272 -12.61869812 5.95559692 C-10.96448786 5.10662843 -9.30906497 4.26002394 -7.65356445 3.41357422 C-1.24559585 0 -1.24559585 0 0 0 Z " fill="#FEFEFE" transform="translate(282,690)"/>
</svg>
