<?xml version="1.0" encoding="UTF-8" standalone="no"?>
<!-- Created with Inkscape (http://www.inkscape.org/) -->

<svg
   width="340mm"
   height="340mm"
   viewBox="0 0 340 340"
   version="1.1"
   id="svg1"
   xml:space="preserve"
   sodipodi:docname="Ringspule_MagFeld.svg"
   inkscape:version="1.3.2 (091e20e, 2023-11-25, custom)"
   inkscape:export-filename="Magnetfeldline_Ringspule.png"
   inkscape:export-xdpi="72"
   inkscape:export-ydpi="72"
   xmlns:inkscape="http://www.inkscape.org/namespaces/inkscape"
   xmlns:sodipodi="http://sodipodi.sourceforge.net/DTD/sodipodi-0.dtd"
   xmlns="http://www.w3.org/2000/svg"
   xmlns:svg="http://www.w3.org/2000/svg"><sodipodi:namedview
     id="namedview1"
     pagecolor="#ffffff"
     bordercolor="#000000"
     borderopacity="0.25"
     inkscape:showpageshadow="2"
     inkscape:pageopacity="0.0"
     inkscape:pagecheckerboard="0"
     inkscape:deskcolor="#d1d1d1"
     inkscape:document-units="mm"
     showgrid="true"
     inkscape:zoom="0.50644992"
     inkscape:cx="224.10903"
     inkscape:cy="775.0026"
     inkscape:window-width="2560"
     inkscape:window-height="1351"
     inkscape:window-x="-9"
     inkscape:window-y="-9"
     inkscape:window-maximized="1"
     inkscape:current-layer="layer2"
     showguides="true"><inkscape:grid
       type="axonomgrid"
       id="grid1"
       units="mm"
       originx="-20.499999"
       originy="-3.9999998"
       spacingx="0"
       spacingy="8"
       empcolor="#0099e5"
       empopacity="0.30196078"
       color="#0099e5"
       opacity="0.14901961"
       empspacing="5"
       dotted="false"
       gridanglex="30"
       gridanglez="30"
       visible="true" /><sodipodi:guide
       position="170.10748,111.04728"
       orientation="1,0"
       id="guide30"
       inkscape:locked="false" /><sodipodi:guide
       position="173.48969,49"
       orientation="0,-1"
       id="guide31"
       inkscape:locked="false" /></sodipodi:namedview><defs
     id="defs1"><inkscape:path-effect
       effect="knot"
       id="path-effect30"
       is_visible="true"
       lpeversion="1"
       switcher_size="15"
       interruption_width="3.7"
       prop_to_stroke_width="true"
       add_stroke_width="inkscape_1.0_and_up"
       both="false"
       inverse_width="false"
       add_other_stroke_width="inkscape_1.0_and_up"
       crossing_points_vector="" /><inkscape:path-effect
       effect="copy_rotate"
       starting_point="459.90768,190.5"
       origin="190.5,190.5"
       id="path-effect5"
       is_visible="true"
       lpeversion="1.2"
       lpesatellites=""
       method="normal"
       num_copies="4"
       starting_angle="0"
       rotation_angle="10"
       gap="-0.01"
       copies_to_360="false"
       mirror_copies="false"
       split_items="false"
       link_styles="false" /><clipPath
       clipPathUnits="userSpaceOnUse"
       id="clipPath14"><path
         d="M 0.11319206,85.622688 H 282.71299 V -295.37731 H 0.11319206 Z M 27.191124,-89.861692 v -30.364558 h 96.878326 v 30.364558 z"
         style="display:inline;fill:#000000;fill-opacity:1;stroke-width:2;stroke-linecap:round;stroke-linejoin:round;paint-order:markers stroke fill"
         id="path14"
         sodipodi:nodetypes="cccccccccc" /></clipPath><clipPath
       clipPathUnits="userSpaceOnUse"
       id="clipPath15"><path
         d="M 0.11319206,85.622688 H 282.71299 V -295.37731 H 0.11319206 Z M 27.191124,-89.861692 v -30.364558 h 96.878326 v 30.364558 z"
         style="display:inline;fill:#000000;fill-opacity:1;stroke-width:2;stroke-linecap:round;stroke-linejoin:round;paint-order:markers stroke fill"
         id="path15"
         sodipodi:nodetypes="cccccccccc" /></clipPath><clipPath
       clipPathUnits="userSpaceOnUse"
       id="clipPath16"><path
         d="M 0.11319206,85.622688 H 282.71299 V -295.37731 H 0.11319206 Z M 27.191124,-89.861692 v -30.364558 h 96.878326 v 30.364558 z"
         style="display:inline;fill:#000000;fill-opacity:1;stroke-width:2;stroke-linecap:round;stroke-linejoin:round;paint-order:markers stroke fill"
         id="path16"
         sodipodi:nodetypes="cccccccccc" /></clipPath><marker
       style="overflow:visible"
       id="ConcaveTriangle-0"
       refX="0"
       refY="0"
       orient="auto-start-reverse"
       inkscape:stockid="Concave triangle arrow"
       markerWidth="1"
       markerHeight="1"
       viewBox="0 0 1 1"
       inkscape:isstock="true"
       inkscape:collect="always"
       preserveAspectRatio="xMidYMid"><path
         transform="scale(0.7)"
         d="M -2,-4 9,0 -2,4 c 2,-2.33 2,-5.66 0,-8 z"
         style="fill:context-stroke;fill-rule:evenodd;stroke:none"
         id="path7-9" /></marker><clipPath
       clipPathUnits="userSpaceOnUse"
       id="clipPath49"><path
         d="M -83.406286,-25.745695 V 252.05183 H 292.65499 V -25.745695 Z M 29.936149,13.066406 c 2.976216,-0.0487 4.361294,1.730666 1.175123,7.548893 -8.496458,15.515273 -8.588618,27.5213 -7.295679,41.374219 1.29294,13.852922 -13.391142,15.977124 -14.4993728,4.24832 -1.1082337,-11.72881 -2.6785041,-25.859119 6.2797188,-47.931441 0,0 9.379855,-5.158822 14.34021,-5.239991 z m 148.182171,48.335552 11.98687,25.022244 -14.29991,5.093229 -8.21552,-18.297075 z m 16.12614,49.895142 c 2.39662,-0.0502 4.44357,1.20048 5.11702,5.12889 1.9591,11.42808 3.85302,23.379 0.84902,42.96999 -3.00392,19.59098 -18.35055,16.71743 -15.08538,-1.69809 3.26517,-18.41553 1.82872,-26.12149 -1.30585,-41.46775 0,0 5.8498,-4.83724 10.42519,-4.93304 z"
         style="display:inline;stroke-width:2.5;stroke-linecap:round;stroke-linejoin:round;paint-order:markers stroke fill"
         id="path50" /></clipPath><clipPath
       clipPathUnits="userSpaceOnUse"
       id="clipPath50"><path
         d="M -25.745695,83.406286 H 252.05183 V -292.65499 H -25.745695 Z M 13.066406,-29.936149 c -0.0487,-2.976216 1.730666,-4.361294 7.548893,-1.175123 15.515273,8.496458 27.5213,8.588618 41.374219,7.295679 13.852922,-1.29294 15.977124,13.391142 4.24832,14.4993728 -11.72881,1.1082337 -25.859119,2.6785041 -47.931441,-6.2797188 0,0 -5.158822,-9.379855 -5.239991,-14.34021 z m 48.335552,-148.182171 25.022244,-11.98687 5.093229,14.29991 -18.297075,8.21552 z m 49.895142,-16.12614 c -0.0502,-2.39662 1.20048,-4.44357 5.12889,-5.11702 11.42808,-1.9591 23.379,-3.85302 42.96999,-0.84902 19.59098,3.00392 16.71743,18.35055 -1.69809,15.08538 -18.41553,-3.26517 -26.12149,-1.82872 -41.46775,1.30585 0,0 -4.83724,-5.8498 -4.93304,-10.42519 z"
         style="display:inline;stroke-width:2.5;stroke-linecap:round;stroke-linejoin:round;paint-order:markers stroke fill"
         id="path51" /></clipPath><clipPath
       clipPathUnits="userSpaceOnUse"
       id="clipPath51"><path
         d="M -25.745695,83.406286 H 252.05183 V -292.65499 H -25.745695 Z M 13.066406,-29.936149 c -0.0487,-2.976216 1.730666,-4.361294 7.548893,-1.175123 15.515273,8.496458 27.5213,8.588618 41.374219,7.295679 13.852922,-1.29294 15.977124,13.391142 4.24832,14.4993728 -11.72881,1.1082337 -25.859119,2.6785041 -47.931441,-6.2797188 0,0 -5.158822,-9.379855 -5.239991,-14.34021 z m 48.335552,-148.182171 25.022244,-11.98687 5.093229,14.29991 -18.297075,8.21552 z m 49.895142,-16.12614 c -0.0502,-2.39662 1.20048,-4.44357 5.12889,-5.11702 11.42808,-1.9591 23.379,-3.85302 42.96999,-0.84902 19.59098,3.00392 16.71743,18.35055 -1.69809,15.08538 -18.41553,-3.26517 -26.12149,-1.82872 -41.46775,1.30585 0,0 -4.83724,-5.8498 -4.93304,-10.42519 z"
         style="display:inline;stroke-width:2.5;stroke-linecap:round;stroke-linejoin:round;paint-order:markers stroke fill"
         id="path52" /></clipPath><clipPath
       clipPathUnits="userSpaceOnUse"
       id="clipPath52"><path
         d="M -25.745695,83.406286 H 252.05183 V -292.65499 H -25.745695 Z M 13.066406,-29.936149 c -0.0487,-2.976216 1.730666,-4.361294 7.548893,-1.175123 15.515273,8.496458 27.5213,8.588618 41.374219,7.295679 13.852922,-1.29294 15.977124,13.391142 4.24832,14.4993728 -11.72881,1.1082337 -25.859119,2.6785041 -47.931441,-6.2797188 0,0 -5.158822,-9.379855 -5.239991,-14.34021 z m 48.335552,-148.182171 25.022244,-11.98687 5.093229,14.29991 -18.297075,8.21552 z m 49.895142,-16.12614 c -0.0502,-2.39662 1.20048,-4.44357 5.12889,-5.11702 11.42808,-1.9591 23.379,-3.85302 42.96999,-0.84902 19.59098,3.00392 16.71743,18.35055 -1.69809,15.08538 -18.41553,-3.26517 -26.12149,-1.82872 -41.46775,1.30585 0,0 -4.83724,-5.8498 -4.93304,-10.42519 z"
         style="display:inline;stroke-width:2.5;stroke-linecap:round;stroke-linejoin:round;paint-order:markers stroke fill"
         id="path53" /></clipPath><clipPath
       clipPathUnits="userSpaceOnUse"
       id="clipPath53"><path
         d="M -25.745695,83.406286 H 252.05183 V -292.65499 H -25.745695 Z M 13.066406,-29.936149 c -0.0487,-2.976216 1.730666,-4.361294 7.548893,-1.175123 15.515273,8.496458 27.5213,8.588618 41.374219,7.295679 13.852922,-1.29294 15.977124,13.391142 4.24832,14.4993728 -11.72881,1.1082337 -25.859119,2.6785041 -47.931441,-6.2797188 0,0 -5.158822,-9.379855 -5.239991,-14.34021 z m 48.335552,-148.182171 25.022244,-11.98687 5.093229,14.29991 -18.297075,8.21552 z m 49.895142,-16.12614 c -0.0502,-2.39662 1.20048,-4.44357 5.12889,-5.11702 11.42808,-1.9591 23.379,-3.85302 42.96999,-0.84902 19.59098,3.00392 16.71743,18.35055 -1.69809,15.08538 -18.41553,-3.26517 -26.12149,-1.82872 -41.46775,1.30585 0,0 -4.83724,-5.8498 -4.93304,-10.42519 z"
         style="display:inline;stroke-width:2.5;stroke-linecap:round;stroke-linejoin:round;paint-order:markers stroke fill"
         id="path54" /></clipPath><clipPath
       clipPathUnits="userSpaceOnUse"
       id="clipPath54"><path
         d="M -25.745695,83.406286 H 252.05183 V -292.65499 H -25.745695 Z M 13.066406,-29.936149 c -0.0487,-2.976216 1.730666,-4.361294 7.548893,-1.175123 15.515273,8.496458 27.5213,8.588618 41.374219,7.295679 13.852922,-1.29294 15.977124,13.391142 4.24832,14.4993728 -11.72881,1.1082337 -25.859119,2.6785041 -47.931441,-6.2797188 0,0 -5.158822,-9.379855 -5.239991,-14.34021 z m 48.335552,-148.182171 25.022244,-11.98687 5.093229,14.29991 -18.297075,8.21552 z m 49.895142,-16.12614 c -0.0502,-2.39662 1.20048,-4.44357 5.12889,-5.11702 11.42808,-1.9591 23.379,-3.85302 42.96999,-0.84902 19.59098,3.00392 16.71743,18.35055 -1.69809,15.08538 -18.41553,-3.26517 -26.12149,-1.82872 -41.46775,1.30585 0,0 -4.83724,-5.8498 -4.93304,-10.42519 z"
         style="display:inline;stroke-width:2.5;stroke-linecap:round;stroke-linejoin:round;paint-order:markers stroke fill"
         id="path55" /></clipPath><clipPath
       clipPathUnits="userSpaceOnUse"
       id="clipPath55"><path
         d="M -25.745695,83.406286 H 252.05183 V -292.65499 H -25.745695 Z M 13.066406,-29.936149 c -0.0487,-2.976216 1.730666,-4.361294 7.548893,-1.175123 15.515273,8.496458 27.5213,8.588618 41.374219,7.295679 13.852922,-1.29294 15.977124,13.391142 4.24832,14.4993728 -11.72881,1.1082337 -25.859119,2.6785041 -47.931441,-6.2797188 0,0 -5.158822,-9.379855 -5.239991,-14.34021 z m 48.335552,-148.182171 25.022244,-11.98687 5.093229,14.29991 -18.297075,8.21552 z m 49.895142,-16.12614 c -0.0502,-2.39662 1.20048,-4.44357 5.12889,-5.11702 11.42808,-1.9591 23.379,-3.85302 42.96999,-0.84902 19.59098,3.00392 16.71743,18.35055 -1.69809,15.08538 -18.41553,-3.26517 -26.12149,-1.82872 -41.46775,1.30585 0,0 -4.83724,-5.8498 -4.93304,-10.42519 z"
         style="display:inline;stroke-width:2.5;stroke-linecap:round;stroke-linejoin:round;paint-order:markers stroke fill"
         id="path56" /></clipPath><inkscape:path-effect
       effect="copy_rotate"
       starting_point="0,0"
       origin="190.5,190.5"
       id="path-effect5-4"
       is_visible="false"
       lpeversion="1.2"
       lpesatellites=""
       method="normal"
       num_copies="22"
       starting_angle="0"
       rotation_angle="13.846154"
       gap="-0.01"
       copies_to_360="false"
       mirror_copies="false"
       split_items="false"
       link_styles="false" /><inkscape:path-effect
       effect="copy_rotate"
       starting_point="0,0"
       origin="190.5,190.5"
       id="path-effect5-4-3"
       is_visible="false"
       lpeversion="1.2"
       lpesatellites=""
       method="normal"
       num_copies="22"
       starting_angle="0"
       rotation_angle="13.846154"
       gap="-0.01"
       copies_to_360="false"
       mirror_copies="false"
       split_items="false"
       link_styles="false" /><inkscape:path-effect
       effect="copy_rotate"
       starting_point="0,0"
       origin="190.5,190.5"
       id="path-effect5-4-6"
       is_visible="false"
       lpeversion="1.2"
       lpesatellites=""
       method="normal"
       num_copies="22"
       starting_angle="0"
       rotation_angle="13.846154"
       gap="-0.01"
       copies_to_360="false"
       mirror_copies="false"
       split_items="false"
       link_styles="false" /><marker
       style="overflow:visible"
       id="ConcaveTriangle-0-2"
       refX="0"
       refY="0"
       orient="auto-start-reverse"
       inkscape:stockid="Concave triangle arrow"
       markerWidth="1"
       markerHeight="1"
       viewBox="0 0 1 1"
       inkscape:isstock="true"
       inkscape:collect="always"
       preserveAspectRatio="xMidYMid"><path
         transform="scale(0.7)"
         d="M -2,-4 9,0 -2,4 c 2,-2.33 2,-5.66 0,-8 z"
         style="fill:context-stroke;fill-rule:evenodd;stroke:none"
         id="path7-9-8" /></marker><marker
       style="overflow:visible"
       id="ConcaveTriangle-6"
       refX="0"
       refY="0"
       orient="auto-start-reverse"
       inkscape:stockid="Concave triangle arrow"
       markerWidth="1"
       markerHeight="1"
       viewBox="0 0 1 1"
       inkscape:isstock="true"
       inkscape:collect="always"
       preserveAspectRatio="xMidYMid"><path
         transform="scale(0.7)"
         d="M -2,-4 9,0 -2,4 c 2,-2.33 2,-5.66 0,-8 z"
         style="fill:context-stroke;fill-rule:evenodd;stroke:none"
         id="path7-4" /></marker><inkscape:path-effect
       effect="copy_rotate"
       starting_point="0,0"
       origin="190.5,190.5"
       id="path-effect5-4-8"
       is_visible="false"
       lpeversion="1.2"
       lpesatellites=""
       method="normal"
       num_copies="22"
       starting_angle="0"
       rotation_angle="13.846154"
       gap="-0.01"
       copies_to_360="false"
       mirror_copies="false"
       split_items="false"
       link_styles="false" /></defs><g
     inkscape:groupmode="layer"
     id="layer2"
     inkscape:label="Ebene 2"
     transform="translate(-20.5,-4)"><path
       style="fill:none;stroke:#cea072;stroke-width:4.82602;stroke-linecap:round;stroke-linejoin:round;stroke-dasharray:none;stroke-opacity:1;paint-order:normal"
       d="m 114.12729,366.9944 c 13.96081,-62.89528 25.43417,-70.4661 28.26563,-77.56984"
       id="path5-9-8"
       sodipodi:nodetypes="cc"
       inkscape:path-effect="#path-effect5-4-6"
       inkscape:original-d="m 114.12729,366.9944 c 13.96081,-62.89528 25.43417,-70.4661 28.26563,-77.56984"
       transform="matrix(0.23260033,0.97623937,-1.0478953,0.21669493,386.3599,-79.25897)" /><path
       style="display:inline;fill:none;stroke:#808080;stroke-width:34.9;stroke-linecap:round;stroke-linejoin:round;stroke-dasharray:none;stroke-opacity:1;paint-order:normal"
       id="path4"
       sodipodi:type="arc"
       sodipodi:cx="-183.68199"
       sodipodi:cy="-213.10152"
       sodipodi:rx="112.55007"
       sodipodi:ry="112.55007"
       sodipodi:start="0.79020394"
       sodipodi:end="0.74091389"
       sodipodi:open="true"
       sodipodi:arc-type="arc"
       d="m -104.48046,-133.13505 a 112.55007,112.55007 0 0 1 -158.18599,0.21442 112.55007,112.55007 0 0 1 -2.1636,-158.17134 112.55007,112.55007 0 0 1 158.13267,-4.11246 112.55007,112.55007 0 0 1 6.06069,158.06999"
       transform="matrix(-0.98103221,0.19384481,-0.19385244,-0.9810307,0,0)" /><path
       style="display:inline;fill:none;stroke:#f57300;stroke-width:2.5;stroke-linecap:round;stroke-linejoin:round;stroke-dasharray:none;stroke-opacity:1;marker-mid:url(#ConcaveTriangle-0);marker-end:url(#ConcaveTriangle-0);paint-order:normal"
       id="path31"
       sodipodi:type="arc"
       sodipodi:cx="-33.163361"
       sodipodi:cy="-279.53638"
       sodipodi:rx="112.55007"
       sodipodi:ry="112.55007"
       sodipodi:start="0.79020394"
       sodipodi:end="0.74091389"
       sodipodi:open="true"
       sodipodi:arc-type="arc"
       d="m 46.038173,-199.56991 a 112.55007,112.55007 0 0 1 -158.185993,0.21442 112.55007,112.55007 0 0 1 -2.1636,-158.17134 112.55007,112.55007 0 0 1 158.132672,-4.11246 112.55007,112.55007 0 0 1 6.060686,158.06999"
       transform="matrix(-0.70580275,0.70840841,-0.7084139,-0.70579724,0,0)" /><path
       style="display:inline;fill:none;stroke:#cea072;stroke-width:5;stroke-linecap:round;stroke-linejoin:round;stroke-dasharray:none;stroke-opacity:1;paint-order:normal"
       d="m 135.04749,310.19129 c -6.79156,-2.48153 -2.69493,-15.35906 0.13653,-22.4628 3.01956,-7.57566 8.87196,-17.45217 2.26577,-20.92108 m 19.22432,51.19473 c -7.11929,-1.26449 -5.32106,-14.65775 -3.76617,-22.14525 1.65819,-7.98491 5.70664,-18.72763 -1.40156,-20.99669 m 27.82214,47.0787 c -7.23071,-0.009 -7.78552,-13.51108 -7.55444,-21.15483 0.24643,-8.15154 2.36793,-19.43406 -5.0263,-20.43432 m 35.57458,41.5322 c -7.12243,1.24671 -10.01341,-11.95387 -11.11316,-19.52162 -1.17281,-8.07049 -1.04274,-19.55 -8.49832,-19.25107"
       id="path5"
       sodipodi:nodetypes="csc"
       inkscape:path-effect="#path-effect5"
       inkscape:original-d="m 135.04749,310.19129 c -6.79156,-2.48153 -2.69493,-15.35906 0.13653,-22.4628 3.01956,-7.57566 8.87196,-17.45217 2.26577,-20.92108"
       transform="rotate(78.822534,216.37625,200.84474)" /><path
       style="display:inline;fill:none;stroke:#ff0000;stroke-width:2.5;stroke-linecap:round;stroke-linejoin:round;stroke-dasharray:none;stroke-opacity:1;marker-end:url(#ConcaveTriangle-0-2);paint-order:markers stroke fill"
       d="M 79.084215,255.97075 H 44.768895"
       id="path1-4" /><path
       style="display:inline;fill:none;stroke:#ff0000;stroke-width:2.5;stroke-linecap:round;stroke-linejoin:round;stroke-dasharray:none;stroke-opacity:1;marker-start:url(#ConcaveTriangle-6);paint-order:markers stroke fill"
       d="M 65.878075,95.98915 H 30.790355"
       id="path1-8-9" /><path
       style="fill:none;stroke:#cea072;stroke-width:5;stroke-linecap:round;stroke-linejoin:round;stroke-dasharray:none;stroke-opacity:1;paint-order:normal"
       d="m 147.53563,376.73245 c 7.97664,-35.93585 10.56202,-55.93695 1.71519,-77.3675 -8.84683,-21.43055 -10.76528,-32.97392 -17.85136,-32.57611"
       id="path5-9-82"
       sodipodi:nodetypes="czc"
       inkscape:path-effect="#path-effect5-4-8"
       inkscape:original-d="m 147.53563,376.73245 c 7.97664,-35.93585 10.56202,-55.93695 1.71519,-77.3675 -8.84683,-21.43055 -10.76528,-32.97392 -17.85136,-32.57611"
       transform="rotate(77.485016,173.38673,233.67013)" /></g></svg>
