<?xml version="1.0" encoding="UTF-8" standalone="no"?>
<!-- Created with Inkscape (http://www.inkscape.org/) -->

<svg
   width="143.28mm"
   height="30.836mm"
   viewBox="0 0 143.28 30.836"
   version="1.1"
   id="svg1"
   inkscape:version="1.2.2 (732a01da63, 2022-12-09)"
   sodipodi:docname="BaendermodellverschiedenerMaterialien.svg"
   inkscape:export-filename="BändermodellverschiedenerMaterialien.pdf"
   inkscape:export-xdpi="96"
   inkscape:export-ydpi="96"
   xmlns:inkscape="http://www.inkscape.org/namespaces/inkscape"
   xmlns:sodipodi="http://sodipodi.sourceforge.net/DTD/sodipodi-0.dtd"
   xmlns:xlink="http://www.w3.org/1999/xlink"
   xmlns="http://www.w3.org/2000/svg"
   xmlns:svg="http://www.w3.org/2000/svg">
  <sodipodi:namedview
     id="namedview1"
     pagecolor="#ffffff"
     bordercolor="#000000"
     borderopacity="0.25"
     inkscape:showpageshadow="2"
     inkscape:pageopacity="0.0"
     inkscape:pagecheckerboard="0"
     inkscape:deskcolor="#d1d1d1"
     inkscape:document-units="mm"
     showguides="true"
     inkscape:zoom="2"
     inkscape:cx="201"
     inkscape:cy="61.500001"
     inkscape:window-width="1920"
     inkscape:window-height="1017"
     inkscape:window-x="-8"
     inkscape:window-y="-8"
     inkscape:window-maximized="1"
     inkscape:current-layer="layer1"
     showgrid="false"
     inkscape:lockguides="true">
    <inkscape:grid
       type="xygrid"
       id="grid17225"
       originx="-159.48134"
       originy="-48.637621"
       spacingy="1"
       spacingx="1"
       units="mm"
       visible="false" />
    <sodipodi:guide
       position="37.674981,12.745374"
       orientation="0,-1"
       id="guide5633"
       inkscape:locked="true" />
    <sodipodi:guide
       position="38.281902,21.194924"
       orientation="0,-1"
       id="guide5713"
       inkscape:locked="true" />
    <sodipodi:guide
       position="16.306917,11.128948"
       orientation="0,-1"
       id="guide5817"
       inkscape:locked="true" />
    <sodipodi:guide
       position="15.302705,22.704732"
       orientation="0,-1"
       id="guide5819"
       inkscape:locked="true" />
    <sodipodi:guide
       position="88.126086,24.426054"
       orientation="0,-1"
       id="guide5821"
       inkscape:locked="true" />
    <sodipodi:guide
       position="87.196746,10.043397"
       orientation="0,-1"
       id="guide5823"
       inkscape:locked="true" />
    <sodipodi:guide
       position="129.76824,7.1390892"
       orientation="0,-1"
       id="guide5853"
       inkscape:locked="true" />
    <sodipodi:guide
       position="129.76938,26.844361"
       orientation="0,-1"
       id="guide5882"
       inkscape:locked="true" />
  </sodipodi:namedview>
  <defs
     id="defs1">
    <marker
       style="overflow:visible"
       id="Arrow2"
       refX="0"
       refY="0"
       orient="auto-start-reverse"
       inkscape:stockid="Arrow2"
       markerWidth="7.6999998"
       markerHeight="5.5999999"
       viewBox="0 0 7.7 5.6"
       inkscape:isstock="true"
       inkscape:collect="always"
       preserveAspectRatio="xMidYMid">
      <path
         transform="scale(0.7)"
         d="M -2,-4 9,0 -2,4 c 2,-2.33 2,-5.66 0,-8 z"
         style="fill:context-stroke;fill-rule:evenodd;stroke:none"
         id="arrow2L" />
    </marker>
    <pattern
       inkscape:collect="always"
       xlink:href="#pattern3135"
       id="pattern5038"
       patternTransform="matrix(1.0000001,0,0,1.0070236,-0.00115,5.9999999e-6)" />
    <clipPath
       clipPathUnits="userSpaceOnUse"
       id="clipPath27">
      <rect
         style="fill:none;stroke:#000000;stroke-width:0.999999;stroke-linecap:butt;stroke-linejoin:bevel;paint-order:stroke markers fill;stop-color:#000000"
         id="rect28-6"
         width="46.160622"
         height="39.922417"
         x="86.574379"
         y="420.06253" />
    </clipPath>
    <rect
       x="254.20575"
       y="183.93365"
       width="122.15082"
       height="14.620368"
       id="rect3" />
    <pattern
       inkscape:collect="always"
       xlink:href="#Strips1_1.5-7-4-4-2"
       preserveAspectRatio="xMidYMid"
       id="pattern22-5-2-6"
       patternTransform="matrix(1.3121152,0.51606248,-0.42883094,1.0903246,-86.545257,-402.61703)"
       x="0"
       y="0" />
    <pattern
       inkscape:collect="always"
       patternUnits="userSpaceOnUse"
       width="2.5"
       height="1"
       patternTransform="translate(0,0) scale(2,2)"
       preserveAspectRatio="xMidYMid"
       id="Strips1_1.5-7-4-4-2"
       style="fill:#0092e9"
       inkscape:stockid="Stripes 02 (2:3)"
       inkscape:isstock="true"
       inkscape:label="Streifen 02 (2:3)">
      <rect
         style="stroke:none"
         x="0"
         y="-0.5"
         width="1"
         height="2"
         id="rect140-37-3-8-7" />
    </pattern>
    <marker
       style="overflow:visible"
       id="ArrowWide-93"
       refX="0"
       refY="0"
       orient="auto-start-reverse"
       inkscape:stockid="Wide arrow"
       markerWidth="1"
       markerHeight="1"
       viewBox="0 0 1 1"
       inkscape:isstock="true"
       inkscape:collect="always"
       preserveAspectRatio="xMidYMid">
      <path
         style="fill:none;stroke:context-stroke;stroke-width:1;stroke-linecap:butt"
         d="M 3,-3 0,0 3,3"
         transform="rotate(180,0.125,0)"
         sodipodi:nodetypes="ccc"
         id="path29-1" />
    </marker>
    <marker
       style="overflow:visible"
       id="ArrowWide-9-0"
       refX="0"
       refY="0"
       orient="auto-start-reverse"
       inkscape:stockid="Wide arrow"
       markerWidth="1"
       markerHeight="1"
       viewBox="0 0 1 1"
       inkscape:isstock="true"
       inkscape:collect="always"
       preserveAspectRatio="xMidYMid">
      <path
         style="fill:none;stroke:context-stroke;stroke-width:1;stroke-linecap:butt"
         d="M 3,-3 0,0 3,3"
         transform="rotate(180,0.125,0)"
         sodipodi:nodetypes="ccc"
         id="path29-4-7" />
    </marker>
    <pattern
       patternUnits="userSpaceOnUse"
       width="60.472439"
       height="14.929218"
       patternTransform="translate(119.13046,64.501201)"
       id="pattern3135">
      <rect
         style="fill:url(#pattern22-5-2-6);fill-opacity:1;fill-rule:nonzero;stroke:#0092e9;stroke-width:0.937844;stroke-linejoin:round;stroke-dasharray:none"
         id="rect21-5-2-3"
         width="59.534595"
         height="13.991374"
         x="0.4689222"
         y="0.4689222" />
    </pattern>
    <pattern
       patternUnits="userSpaceOnUse"
       width="60.472439"
       height="14.929218"
       patternTransform="translate(119.13046,64.501201)"
       id="pattern3135-9">
      <rect
         style="fill:url(#pattern22-5-2-6-5);fill-opacity:1;fill-rule:nonzero;stroke:#0092e9;stroke-width:0.937844;stroke-linejoin:round;stroke-dasharray:none"
         id="rect21-5-2-3-3"
         width="59.534595"
         height="13.991374"
         x="0.4689222"
         y="0.4689222" />
    </pattern>
    <pattern
       inkscape:collect="always"
       xlink:href="#Strips1_1.5-7-4-4-2-4"
       preserveAspectRatio="xMidYMid"
       id="pattern22-5-2-6-5"
       patternTransform="matrix(1.3121152,0.51606248,-0.42883094,1.0903246,-86.545257,-402.61703)"
       x="0"
       y="0" />
    <pattern
       inkscape:collect="always"
       patternUnits="userSpaceOnUse"
       width="2.5"
       height="1"
       patternTransform="translate(0,0) scale(2,2)"
       preserveAspectRatio="xMidYMid"
       id="Strips1_1.5-7-4-4-2-4"
       style="fill:#0092e9"
       inkscape:stockid="Stripes 02 (2:3)"
       inkscape:isstock="true"
       inkscape:label="Streifen 02 (2:3)">
      <rect
         style="stroke:none"
         x="0"
         y="-0.5"
         width="1"
         height="2"
         id="rect140-37-3-8-7-6" />
    </pattern>
    <pattern
       patternUnits="userSpaceOnUse"
       width="60.472439"
       height="14.929218"
       patternTransform="translate(119.13046,64.501201)"
       id="pattern3135-8">
      <rect
         style="fill:url(#pattern22-5-2-6-59);fill-opacity:1;fill-rule:nonzero;stroke:#0092e9;stroke-width:0.937844;stroke-linejoin:round;stroke-dasharray:none"
         id="rect21-5-2-3-12"
         width="59.534595"
         height="13.991374"
         x="0.4689222"
         y="0.4689222" />
    </pattern>
    <pattern
       inkscape:collect="always"
       xlink:href="#Strips1_1.5-7-4-4-2-9"
       preserveAspectRatio="xMidYMid"
       id="pattern22-5-2-6-59"
       patternTransform="matrix(1.3121152,0.51606248,-0.42883094,1.0903246,-86.545257,-402.61703)"
       x="0"
       y="0" />
    <pattern
       inkscape:collect="always"
       patternUnits="userSpaceOnUse"
       width="2.5"
       height="1"
       patternTransform="translate(0,0) scale(2,2)"
       preserveAspectRatio="xMidYMid"
       id="Strips1_1.5-7-4-4-2-9"
       style="fill:#0092e9"
       inkscape:stockid="Stripes 02 (2:3)"
       inkscape:isstock="true"
       inkscape:label="Streifen 02 (2:3)">
      <rect
         style="stroke:none"
         x="0"
         y="-0.5"
         width="1"
         height="2"
         id="rect140-37-3-8-7-2" />
    </pattern>
    <pattern
       patternUnits="userSpaceOnUse"
       width="60.472439"
       height="14.929218"
       patternTransform="translate(119.13046,64.501197)"
       id="pattern15203">
      <path
         style="fill:url(#pattern5038)"
         d="M 0,0 H 60.472439 V 14.929218 H 0 Z"
         id="path3626" />
    </pattern>
    <pattern
       id="EMFhbasepattern"
       patternUnits="userSpaceOnUse"
       width="6"
       height="6"
       x="0"
       y="0" />
  </defs>
  <g
     inkscape:label="Ebene 1"
     inkscape:groupmode="layer"
     id="layer1"
     transform="translate(-42.196099,-12.868705)">
    <text
       xml:space="preserve"
       transform="matrix(0.26458333,0,0,0.26458333,0,3.1750001)"
       id="text3"
       style="font-style:normal;font-variant:normal;font-weight:normal;font-stretch:normal;font-size:10.6667px;font-family:'Helvetica Neue';-inkscape-font-specification:'Helvetica Neue';text-align:center;white-space:pre;shape-inside:url(#rect3);display:inline;fill:#ffffff;fill-opacity:1;stroke:#0092e9;stroke-width:1.88976;stroke-linecap:butt;stroke-linejoin:round;stroke-dasharray:none;stroke-dashoffset:0;stroke-opacity:1" />
    <path
       style="fill:#ffffff;fill-opacity:1;stroke:#000000;stroke-width:0.5;stroke-linecap:butt;stroke-linejoin:round;stroke-dasharray:none;stroke-dashoffset:0;stroke-opacity:1;marker-end:url(#Arrow2)"
       d="m 46.114594,39.653172 c 0,-22.761077 0,-22.761077 0,-22.761077"
       id="path3-4-0-2-3" />
    <g
       id="g1"
       transform="matrix(0.51940287,0,0,0.51940287,34.967866,-11.531526)"
       style="stroke-width:1.9253">
      <path
         style="fill:#ffffff;fill-opacity:1;stroke:#000000;stroke-width:0.962641;stroke-linecap:butt;stroke-linejoin:round;stroke-dasharray:none;stroke-dashoffset:0;stroke-opacity:1"
         d="m 20.986077,98.062088 c 34.65518,0 34.65518,0 34.65518,0"
         id="path3-4-00-07-7" />
    </g>
    <text
       xml:space="preserve"
       style="font-style:normal;font-variant:normal;font-weight:normal;font-stretch:normal;font-size:3.52778px;font-family:'Helvetica Neue';-inkscape-font-specification:'Helvetica Neue';text-align:center;text-anchor:middle;fill:#000000;fill-opacity:1;stroke:none;stroke-width:0.1;stroke-linecap:butt;stroke-linejoin:round;stroke-dasharray:none;stroke-dashoffset:0;stroke-opacity:1"
       x="69.287437"
       y="43.853981"
       id="text4-7-9"><tspan
         sodipodi:role="line"
         id="tspan4-9-0"
         style="font-size:3.52778px;fill:#000000;fill-opacity:1;stroke:none;stroke-width:0.1;stroke-dasharray:none;stroke-opacity:1"
         x="69.287437"
         y="43.853981">Leiter</tspan></text>
    <text
       xml:space="preserve"
       style="font-size:2.82223px;font-family:'Helvetica Neue';-inkscape-font-specification:'Helvetica Neue';text-align:end;text-anchor:end;fill:#000000;fill-opacity:1;stroke:#000000;stroke-width:0;stroke-linejoin:round;stroke-dasharray:none;stroke-opacity:1"
       x="44.006107"
       y="16.83099"
       id="text22-8"><tspan
         sodipodi:role="line"
         id="tspan22-1"
         style="text-align:end;text-anchor:end;fill:#000000;fill-opacity:1;stroke:#000000;stroke-width:0;stroke-dasharray:none;stroke-opacity:1"
         x="44.006107"
         y="16.83099">$E$</tspan></text>
    <text
       xml:space="preserve"
       style="font-size:2.82223px;font-family:'Helvetica Neue';-inkscape-font-specification:'Helvetica Neue';text-align:end;text-anchor:end;fill:#000000;fill-opacity:1;stroke:#000000;stroke-width:0;stroke-linejoin:round;stroke-dasharray:none;stroke-opacity:1"
       x="72.702431"
       y="16.83099"
       id="text22-8-8"><tspan
         sodipodi:role="line"
         id="tspan22-1-5"
         style="text-align:end;text-anchor:end;fill:#000000;fill-opacity:1;stroke:#000000;stroke-width:0;stroke-dasharray:none;stroke-opacity:1"
         x="72.702431"
         y="16.83099">$E$</tspan></text>
    <text
       xml:space="preserve"
       style="font-size:2.82223px;font-family:'Helvetica Neue';-inkscape-font-specification:'Helvetica Neue';text-align:end;text-anchor:end;fill:#000000;fill-opacity:1;stroke:#000000;stroke-width:0;stroke-linejoin:round;stroke-dasharray:none;stroke-opacity:1"
       x="115.95084"
       y="16.83099"
       id="text22-8-6"><tspan
         sodipodi:role="line"
         id="tspan22-1-2"
         style="text-align:end;text-anchor:end;fill:#000000;fill-opacity:1;stroke:#000000;stroke-width:0;stroke-dasharray:none;stroke-opacity:1"
         x="115.95084"
         y="16.83099">$E$</tspan></text>
    <text
       xml:space="preserve"
       style="font-size:2.82223px;font-family:'Helvetica Neue';-inkscape-font-specification:'Helvetica Neue';text-align:end;text-anchor:end;fill:#000000;fill-opacity:1;stroke:#000000;stroke-width:0;stroke-linejoin:round;stroke-dasharray:none;stroke-opacity:1"
       x="159.1993"
       y="16.83099"
       id="text22-8-89"><tspan
         sodipodi:role="line"
         id="tspan22-1-9"
         style="text-align:end;text-anchor:end;fill:#000000;fill-opacity:1;stroke:#000000;stroke-width:0;stroke-dasharray:none;stroke-opacity:1"
         x="159.1993"
         y="16.83099">$E$</tspan></text>
    <path
       style="fill:#ff6600;fill-opacity:1;fill-rule:nonzero;stroke:none;stroke-width:0.0234229;stroke-miterlimit:1;stroke-dasharray:none;paint-order:markers fill stroke"
       d="m 46.36885,25.922356 v -0.09286 l 0.306605,-0.0065 0.306607,-0.0065 0.274148,-0.701582 c 0.150781,-0.38587 0.451059,-1.154103 0.667284,-1.707184 0.216226,-0.553081 0.398111,-1.024018 0.404188,-1.046527 0.01013,-0.0375 -0.01537,-0.04093 -0.30498,-0.04093 h -0.316034 l -0.162742,0.415103 c -0.08951,0.228307 -0.387885,0.990828 -0.663062,1.694493 l -0.500322,1.27939 -0.0063,-0.443794 -0.0064,-0.443794 0.47992,-1.226976 c 0.263956,-0.674837 0.479922,-1.237651 0.479922,-1.250699 0,-0.01486 -0.116692,-0.02372 -0.312174,-0.02372 H 46.703339 L 46.555776,22.7003 c -0.08116,0.209013 -0.156097,0.395809 -0.166529,0.415103 -0.01043,0.01929 -0.01929,-0.204336 -0.01969,-0.496955 l -7.94e-4,-0.532033 h 7.799258 c 7.768077,0 7.799446,1.87e-4 7.846031,0.04677 0.046,0.046 0.04677,0.07795 0.04677,1.927439 0,1.034367 -0.0064,1.897314 -0.01421,1.917659 -0.01291,0.03363 -0.725996,0.03699 -7.846031,0.03699 h -7.831836 z m 1.64877,-0.193614 c 0.09721,-0.240286 1.292929,-3.308633 1.308042,-3.356574 l 0.0168,-0.05329 -0.31962,0.0065 -0.319622,0.0065 -0.465796,1.192691 c -0.256188,0.655979 -0.560425,1.434736 -0.676082,1.73057 -0.115657,0.295834 -0.210285,0.545773 -0.21028,0.555419 3e-6,0.0096 0.140933,0.01754 0.313177,0.01754 h 0.313174 z m 1.013515,-0.02339 c 0.02553,-0.06753 0.104114,-0.270109 0.174649,-0.450182 0.595704,-1.520817 1.138701,-2.915592 1.138701,-2.924937 0,-0.0062 -0.143934,-0.0084 -0.319853,-0.0048 l -0.319849,0.0065 -0.04178,0.105238 c -0.29436,0.741464 -1.306336,3.350377 -1.306336,3.367788 0,0.01418 0.121997,0.02319 0.314032,0.02319 h 0.314031 z m 1.125429,-0.315712 c 0.09398,-0.241169 0.400966,-1.02692 0.682194,-1.746113 0.281231,-0.719192 0.511326,-1.311449 0.511326,-1.316127 0,-0.0047 -0.144061,-0.0056 -0.320133,-0.002 l -0.320135,0.0065 -0.08851,0.222168 c -0.272124,0.683024 -1.23726,3.167093 -1.249571,3.216145 l -0.01453,0.05791 h 0.314248 0.314251 z m 1.262806,-0.666662 c 0.367411,-0.940144 0.890418,-2.275491 0.92963,-2.373529 0.009,-0.02255 -0.06242,-0.02919 -0.31237,-0.02906 l -0.324062,1.73e-4 -0.15658,0.403237 c -0.08612,0.22178 -0.384948,0.987304 -0.664065,1.701164 -0.279114,0.71386 -0.512439,1.321606 -0.518496,1.350546 -0.01098,0.0525 -0.01029,0.05262 0.301583,0.05246 l 0.312592,-1.64e-4 0.431768,-1.104834 z m 0.707001,0.75436 c 0.135867,-0.344947 1.177169,-3.008396 1.213737,-3.104503 l 0.02003,-0.05262 h -0.323017 -0.323014 l -0.09564,0.251401 c -0.105476,0.277244 -0.46799,1.20485 -0.948211,2.426306 -0.171934,0.43732 -0.30824,0.803319 -0.3029,0.813333 0.0053,0.01001 0.148254,0.01527 0.317587,0.01169 l 0.307877,-0.0065 z m 1.130454,-0.327406 c 0.894855,-2.288166 1.086678,-2.783359 1.086678,-2.805248 0,-0.01581 -0.110339,-0.02447 -0.311804,-0.02447 h -0.311806 l -0.668999,1.713031 c -0.36795,0.942166 -0.67614,1.731752 -0.684866,1.754634 -0.01482,0.03883 0.0057,0.04117 0.307137,0.03508 l 0.323003,-0.0065 z m 1.04285,-0.105237 c 0.567835,-1.448155 1.032338,-2.642568 1.04362,-2.683553 0.01032,-0.03751 -0.01508,-0.04093 -0.304771,-0.04093 h -0.316037 l -0.153337,0.391717 c -0.638222,1.630415 -1.207862,3.094843 -1.207862,3.105161 0,0.0068 0.143052,0.0094 0.317891,0.0058 l 0.317889,-0.0065 z m 0.90697,0.245554 c 0.246266,-0.632338 0.715039,-1.831519 0.955326,-2.443846 0.0959,-0.244384 0.179726,-0.462752 0.186277,-0.485261 0.01093,-0.03755 -0.01418,-0.04093 -0.303988,-0.04093 h -0.315899 l -0.04008,0.09939 c -0.122449,0.303621 -1.305785,3.333374 -1.315554,3.368275 -0.01082,0.03864 0.01114,0.04114 0.308677,0.03508 l 0.320317,-0.0065 z m 0.803548,0.508647 c 0.03389,-0.08779 0.724593,-1.857897 1.013621,-2.597645 0.185073,-0.473676 0.336494,-0.865982 0.336494,-0.871791 0,-0.0058 -0.14343,-0.0076 -0.318735,-0.0041 l -0.318736,0.0065 -0.114837,0.292326 c -0.369721,0.94114 -1.220012,3.128375 -1.229609,3.162968 -0.0104,0.03752 0.01495,0.04093 0.304584,0.04093 0.231142,0 0.318965,-0.0078 0.327218,-0.02923 z m 1.053158,-0.128623 c 0.07165,-0.184726 1.278448,-3.27735 1.296114,-3.321502 0.0094,-0.02361 -0.05611,-0.02854 -0.311084,-0.02339 l -0.323053,0.0065 -0.241822,0.619731 c -0.133003,0.340853 -0.436131,1.117065 -0.673618,1.724917 -0.237488,0.607851 -0.431795,1.115622 -0.431795,1.128378 0,0.01418 0.121322,0.02319 0.312018,0.02319 h 0.312018 z m 0.963747,0.08185 c 0.01902,-0.0418 0.122878,-0.302265 0.230764,-0.578806 0.895978,-2.296641 1.090264,-2.800142 1.090264,-2.825455 0,-0.02195 -0.07519,-0.02742 -0.309044,-0.02248 l -0.309044,0.0065 -0.334957,0.853592 c -0.720797,1.836835 -1.011386,2.588117 -1.011386,2.614802 0,0.02008 0.08468,0.02782 0.304398,0.02782 h 0.304398 z m 1.244711,-0.613885 c 0.808503,-2.070843 1.081919,-2.77761 1.081919,-2.796727 0,-0.01173 -0.139105,-0.02126 -0.309867,-0.02122 l -0.309864,7.2e-5 -0.371547,0.95291 c -0.204351,0.524101 -0.50691,1.298961 -0.672351,1.721912 -0.165441,0.422951 -0.300802,0.783694 -0.300802,0.801653 0,0.02662 0.057,0.03145 0.308864,0.02613 l 0.308867,-0.0065 z m 0.899668,0.257247 c 0.08999,-0.231522 0.390332,-0.999755 0.667425,-1.707184 0.277093,-0.707429 0.508773,-1.304651 0.514845,-1.32716 0.01011,-0.0375 -0.01537,-0.04093 -0.304694,-0.04093 h -0.31573 l -0.05879,0.157856 c -0.04175,0.112106 -1.134281,2.910578 -1.296725,3.321502 -0.0093,0.0236 0.05591,0.02853 0.30911,0.02339 l 0.320934,-0.0065 z m 0.843672,0.40341 c 0.0064,-0.01608 0.191677,-0.490069 0.411758,-1.053313 l 0.400142,-1.02408 v -0.700644 c 0,-0.671852 -0.0019,-0.700643 -0.04427,-0.700643 -0.02434,0 -0.04937,0.01316 -0.05561,0.02923 -0.0062,0.01608 -0.292523,0.750109 -0.636193,1.631179 -0.636077,1.630723 -0.71383,1.831314 -0.713851,1.841654 -6e-6,0.0032 0.140933,0.0058 0.313198,0.0058 0.228782,0 0.316341,-0.0079 0.324826,-0.02923 z m 0.8119,-0.535931 c 0,-0.31084 -0.0046,-0.560522 -0.01032,-0.55485 -0.01426,0.01426 -0.434019,1.080327 -0.434019,1.102283 0,0.0098 0.09998,0.01773 0.222168,0.01773 h 0.222165 z"
       id="path15633" />
    <path
       style="fill:#01949a;fill-opacity:1;fill-rule:nonzero;stroke:none;stroke-width:0.0234229;stroke-miterlimit:1;stroke-dasharray:none;paint-order:markers fill stroke"
       d="m 46.368854,27.653373 v 0.09286 l 0.306605,0.0065 0.306607,0.0065 0.274148,0.701582 c 0.15078,0.38587 0.451059,1.154103 0.667284,1.707184 0.216226,0.553081 0.398111,1.024018 0.404188,1.046527 0.01013,0.0375 -0.01537,0.04093 -0.30498,0.04093 H 47.706672 L 47.54393,30.840353 C 47.45442,30.612046 47.156045,29.849525 46.880868,29.14586 l -0.500322,-1.27939 -0.0064,0.443794 -0.0063,0.443794 0.47992,1.226976 c 0.263956,0.674837 0.479922,1.237651 0.479922,1.250699 0,0.01486 -0.116692,0.02372 -0.312174,0.02372 H 46.703343 L 46.55578,30.875429 c -0.08116,-0.209013 -0.156097,-0.395809 -0.166529,-0.415103 -0.01042,-0.01929 -0.01929,0.204336 -0.01969,0.496955 l -7.94e-4,0.532033 h 7.799258 c 7.768076,0 7.799445,-1.87e-4 7.846031,-0.04677 0.046,-0.046 0.04677,-0.07795 0.04677,-1.927439 0,-1.034367 -0.0064,-1.897314 -0.01421,-1.917659 -0.01291,-0.03363 -0.725996,-0.03699 -7.846031,-0.03699 h -7.831836 z m 1.64877,0.193614 c 0.09721,0.240286 1.292928,3.308633 1.308041,3.356574 l 0.0168,0.05329 -0.319619,-0.0065 -0.319622,-0.0065 -0.465796,-1.192691 c -0.256188,-0.655979 -0.560425,-1.434736 -0.676082,-1.73057 -0.115657,-0.295834 -0.210285,-0.545773 -0.21028,-0.555419 2e-6,-0.0096 0.140933,-0.01754 0.313177,-0.01754 h 0.313174 z m 1.013515,0.02339 c 0.02553,0.06753 0.104114,0.270109 0.174649,0.450182 0.595704,1.520817 1.138701,2.915592 1.138701,2.924937 0,0.0062 -0.143934,0.0084 -0.319853,0.0048 l -0.319849,-0.0065 -0.04178,-0.105238 c -0.29436,-0.741464 -1.306336,-3.350377 -1.306336,-3.367788 0,-0.01418 0.121997,-0.02319 0.314032,-0.02319 h 0.314031 z m 1.125429,0.315712 c 0.09398,0.241169 0.400966,1.02692 0.682194,1.746113 0.281231,0.719192 0.511326,1.311449 0.511326,1.316127 0,0.0047 -0.144061,0.0056 -0.320133,0.002 l -0.320135,-0.0065 -0.08851,-0.222168 c -0.272124,-0.683024 -1.23726,-3.167093 -1.249571,-3.216145 l -0.01453,-0.05791 h 0.314248 0.314251 z m 1.262806,0.666662 c 0.367411,0.940144 0.890418,2.275491 0.92963,2.373529 0.009,0.02255 -0.06242,0.02919 -0.31237,0.02906 l -0.324062,-1.73e-4 -0.15658,-0.403237 c -0.08612,-0.22178 -0.384948,-0.987304 -0.664065,-1.701164 -0.279114,-0.71386 -0.512439,-1.321606 -0.518496,-1.350546 -0.01098,-0.0525 -0.01029,-0.05262 0.301583,-0.05246 l 0.312592,1.64e-4 0.431768,1.104834 z m 0.707001,-0.75436 c 0.135866,0.344947 1.177168,3.008396 1.213737,3.104503 l 0.02003,0.05262 h -0.323017 -0.323014 l -0.09564,-0.251401 c -0.105476,-0.277244 -0.46799,-1.20485 -0.948211,-2.426306 -0.171934,-0.43732 -0.30824,-0.803319 -0.302901,-0.813333 0.0053,-0.01001 0.148254,-0.01527 0.317588,-0.01169 l 0.307877,0.0065 z m 1.130454,0.327406 c 0.894855,2.288166 1.086678,2.783359 1.086678,2.805248 0,0.01581 -0.110339,0.02447 -0.311804,0.02447 h -0.311806 l -0.668999,-1.713031 c -0.367951,-0.942166 -0.67614,-1.731752 -0.684866,-1.754634 -0.01482,-0.03882 0.0057,-0.04117 0.307136,-0.03508 l 0.323004,0.0065 z m 1.04285,0.105237 c 0.567835,1.448155 1.032338,2.642568 1.043619,2.683553 0.01032,0.03751 -0.01508,0.04093 -0.30477,0.04093 H 54.722491 L 54.569154,30.8638 c -0.638223,-1.630415 -1.207863,-3.094843 -1.207863,-3.105161 0,-0.0068 0.143053,-0.0094 0.317892,-0.0058 l 0.317889,0.0065 z m 0.90697,-0.245554 c 0.246266,0.632338 0.715039,1.831519 0.955326,2.443846 0.0959,0.244384 0.179726,0.462752 0.186277,0.485261 0.01093,0.03755 -0.01418,0.04093 -0.303988,0.04093 h -0.315899 l -0.04008,-0.09939 c -0.122449,-0.303621 -1.305785,-3.333374 -1.315554,-3.368275 -0.01082,-0.03865 0.01114,-0.04114 0.308677,-0.03508 l 0.320317,0.0065 z m 0.803548,-0.508647 c 0.03389,0.08779 0.724593,1.857897 1.013621,2.597645 0.185073,0.473676 0.336494,0.865982 0.336494,0.871791 0,0.0058 -0.14343,0.0076 -0.318735,0.0041 l -0.318736,-0.0065 -0.114837,-0.292326 c -0.369721,-0.94114 -1.220012,-3.128375 -1.229609,-3.162968 -0.0104,-0.03752 0.01495,-0.04092 0.304583,-0.04092 0.231143,0 0.318966,0.0078 0.327219,0.02923 z m 1.053158,0.128623 c 0.07165,0.184726 1.278448,3.27735 1.296114,3.321502 0.0094,0.02361 -0.05611,0.02854 -0.311084,0.02339 l -0.323053,-0.0065 -0.241822,-0.619731 c -0.133003,-0.340853 -0.436131,-1.117065 -0.673618,-1.724917 -0.237488,-0.607851 -0.431795,-1.115622 -0.431795,-1.128378 0,-0.01418 0.121322,-0.02319 0.312018,-0.02319 h 0.312018 z m 0.963747,-0.08185 c 0.01902,0.0418 0.122878,0.302265 0.230764,0.578806 0.895977,2.296641 1.090264,2.800142 1.090264,2.825455 0,0.02195 -0.07519,0.02742 -0.309044,0.02248 l -0.309044,-0.0065 -0.334957,-0.853592 c -0.720797,-1.836835 -1.011386,-2.588117 -1.011386,-2.614802 0,-0.02008 0.08468,-0.02782 0.304398,-0.02782 h 0.304398 z m 1.244711,0.61388 c 0.808503,2.070843 1.081918,2.77761 1.081918,2.796727 0,0.01173 -0.139104,0.02126 -0.309866,0.02122 l -0.309864,-7.2e-5 -0.371547,-0.95291 c -0.204351,-0.524101 -0.50691,-1.298961 -0.672351,-1.721912 -0.165441,-0.422951 -0.300802,-0.783694 -0.300802,-0.801653 0,-0.02662 0.057,-0.03145 0.308864,-0.02612 l 0.308866,0.0065 z m 0.899668,-0.257247 c 0.08999,0.231522 0.390332,0.999755 0.667425,1.707184 0.277093,0.707429 0.508772,1.304651 0.514845,1.32716 0.01011,0.0375 -0.01537,0.04093 -0.304695,0.04093 h -0.315729 l -0.05879,-0.157856 c -0.04175,-0.112106 -1.134282,-2.910578 -1.296725,-3.321502 -0.0093,-0.0236 0.05591,-0.02853 0.30911,-0.02339 l 0.320934,0.0065 z m 0.843672,-0.40341 c 0.0064,0.01608 0.191677,0.490069 0.411758,1.053313 l 0.400142,1.02408 v 0.700644 c 0,0.671852 -0.0019,0.700643 -0.04427,0.700643 -0.02434,0 -0.04937,-0.01315 -0.05561,-0.02923 -0.0062,-0.01608 -0.292523,-0.750109 -0.636193,-1.631179 -0.636077,-1.630723 -0.71383,-1.831314 -0.713851,-1.841654 -6e-6,-0.0032 0.140933,-0.0058 0.313197,-0.0058 0.228783,0 0.316342,0.0079 0.324827,0.02923 z m 0.8119,0.535931 c 0,0.31084 -0.0046,0.560522 -0.01032,0.55485 -0.01426,-0.01426 -0.434019,-1.080327 -0.434019,-1.102283 0,-0.0098 0.09998,-0.01773 0.222168,-0.01773 h 0.222165 z"
       id="path15633-8" />
    <text
       xml:space="preserve"
       style="font-size:2.82222px;fill:#000000;stroke-width:0.264583"
       x="52.007801"
       y="20.999973"
       id="text8"><tspan
         sodipodi:role="line"
         id="tspan8"
         style="font-size:2.82222px;stroke-width:0.264583"
         x="52.007801"
         y="20.999973">LB</tspan></text>
    <text
       xml:space="preserve"
       style="font-size:2.82222px;fill:#000000;stroke-width:0.264583"
       x="51.940834"
       y="34.627655"
       id="text9"><tspan
         sodipodi:role="line"
         id="tspan9"
         style="font-size:2.82222px;stroke-width:0.264583"
         x="51.940834"
         y="34.627655">VB</tspan></text>
    <path
       style="fill:#e9afaf;fill-opacity:1;fill-rule:nonzero;stroke:#e9afaf;stroke-width:0.0555739;stroke-miterlimit:1;stroke-dasharray:none;paint-order:markers fill stroke"
       d=""
       id="path15508" />
    <path
       style="fill:#e9afaf;fill-opacity:1;fill-rule:nonzero;stroke:#e9afaf;stroke-width:0.0555739;stroke-miterlimit:1;stroke-dasharray:none;paint-order:markers fill stroke"
       d=""
       id="path15510" />
    <path
       style="fill:#ffffff;fill-opacity:1;stroke:#000000;stroke-width:0.5;stroke-linecap:butt;stroke-linejoin:round;stroke-dasharray:none;stroke-dashoffset:0;stroke-opacity:1;marker-end:url(#Arrow2)"
       d="m 74.810918,39.652203 c 0,-22.76108 0,-22.76108 0,-22.76108"
       id="path3-4-0-2-3-1" />
    <path
       style="fill:#ffffff;fill-opacity:1;stroke:#000000;stroke-width:0.499999;stroke-linecap:butt;stroke-linejoin:round;stroke-dasharray:none;stroke-dashoffset:0;stroke-opacity:1"
       d="m 74.564418,39.401233 c 18,0 18,0 18,0"
       id="path3-4-00-07-7-8" />
    <path
       style="fill:#ff6600;fill-opacity:1;fill-rule:nonzero;stroke:none;stroke-width:0.0234229;stroke-miterlimit:1;stroke-dasharray:none;paint-order:markers fill stroke"
       d="m 74.999051,27.432174 v -0.09287 l 0.306605,-0.0065 0.306607,-0.0065 0.274148,-0.701582 c 0.150781,-0.38587 0.451059,-1.154103 0.667284,-1.707184 0.216226,-0.553081 0.398111,-1.024018 0.404188,-1.046527 0.01013,-0.0375 -0.01537,-0.04093 -0.30498,-0.04093 h -0.316034 l -0.162742,0.415103 c -0.08951,0.228307 -0.387885,0.990828 -0.663062,1.694493 l -0.500322,1.27939 -0.0064,-0.443794 -0.0063,-0.443794 0.47992,-1.226976 c 0.263956,-0.674837 0.479922,-1.237651 0.479922,-1.250699 0,-0.01486 -0.116692,-0.02372 -0.312174,-0.02372 H 75.33354 l -0.147563,0.380024 c -0.08116,0.209013 -0.156097,0.395809 -0.166529,0.415103 -0.01042,0.01929 -0.01929,-0.204336 -0.01968,-0.496955 l -7.94e-4,-0.532033 h 7.799258 c 7.76808,0 7.79945,1.87e-4 7.84604,0.04677 0.046,0.046 0.0468,0.07795 0.0468,1.927439 0,1.034367 -0.006,1.897314 -0.0142,1.917659 -0.0129,0.03363 -0.72599,0.03699 -7.846035,0.03699 h -7.831836 z m 1.64877,-0.193614 c 0.09721,-0.240286 1.292929,-3.308633 1.308042,-3.356574 l 0.0168,-0.05329 -0.31962,0.0065 -0.319622,0.0065 -0.465796,1.192691 c -0.256188,0.655979 -0.560425,1.434736 -0.676082,1.73057 -0.115657,0.295834 -0.210285,0.545773 -0.21028,0.555419 3e-6,0.0096 0.140933,0.01754 0.313177,0.01754 h 0.313174 z m 1.013515,-0.02339 c 0.02553,-0.06753 0.104114,-0.270109 0.174649,-0.450182 0.595704,-1.520817 1.138701,-2.915592 1.138701,-2.924937 0,-0.0062 -0.143934,-0.0084 -0.319853,-0.0048 l -0.319849,0.0065 -0.04178,0.105238 c -0.29436,0.741464 -1.306336,3.350377 -1.306336,3.367788 0,0.01418 0.121997,0.02319 0.314032,0.02319 h 0.314031 z m 1.125429,-0.315712 c 0.09398,-0.241169 0.400966,-1.02692 0.682194,-1.746113 0.281231,-0.719192 0.511326,-1.311449 0.511326,-1.316127 0,-0.0047 -0.144061,-0.0056 -0.320133,-0.002 l -0.320135,0.0065 -0.08851,0.222168 c -0.272124,0.683024 -1.23726,3.167093 -1.249571,3.216145 l -0.01453,0.05791 h 0.314248 0.314251 z m 1.262806,-0.666662 c 0.367411,-0.940144 0.890418,-2.275491 0.92963,-2.373529 0.009,-0.02255 -0.06242,-0.02919 -0.31237,-0.02906 l -0.324062,1.73e-4 -0.15658,0.403237 c -0.08612,0.22178 -0.384948,0.987304 -0.664065,1.701164 -0.279114,0.71386 -0.512439,1.321606 -0.518496,1.350546 -0.01098,0.0525 -0.01029,0.05262 0.301583,0.05246 l 0.312592,-1.64e-4 0.431768,-1.104834 z m 0.707001,0.75436 c 0.135867,-0.344947 1.177169,-3.008396 1.213737,-3.104503 l 0.02003,-0.05262 h -0.323017 -0.323014 l -0.09564,0.251401 c -0.105476,0.277244 -0.46799,1.20485 -0.948211,2.426306 -0.171934,0.43732 -0.30824,0.803319 -0.3029,0.813333 0.0053,0.01001 0.148254,0.01527 0.317587,0.01169 l 0.307877,-0.0065 z m 1.130454,-0.327406 c 0.894855,-2.288166 1.086678,-2.783359 1.086678,-2.805248 0,-0.01581 -0.110339,-0.02447 -0.311804,-0.02447 h -0.311806 l -0.668999,1.713031 c -0.36795,0.942166 -0.67614,1.731752 -0.684866,1.754634 -0.01482,0.03883 0.0057,0.04117 0.307137,0.03508 l 0.323003,-0.0065 z m 1.04285,-0.105237 c 0.567835,-1.448155 1.032338,-2.642568 1.04362,-2.683553 0.01032,-0.03751 -0.01508,-0.04093 -0.304771,-0.04093 h -0.316037 l -0.153337,0.391717 c -0.638222,1.630415 -1.207862,3.094843 -1.207862,3.105161 0,0.0068 0.143052,0.0094 0.317891,0.0058 l 0.317889,-0.0065 z m 0.90697,0.245554 c 0.246266,-0.632338 0.715039,-1.831519 0.955326,-2.443846 0.0959,-0.244384 0.179726,-0.462752 0.186277,-0.485261 0.01093,-0.03755 -0.01418,-0.04093 -0.303988,-0.04093 h -0.315899 l -0.04008,0.09939 c -0.122449,0.303621 -1.305785,3.333374 -1.315554,3.368275 -0.01082,0.03865 0.01114,0.04114 0.308677,0.03508 l 0.320317,-0.0065 z m 0.803548,0.508647 c 0.03388,-0.08779 0.724593,-1.857897 1.013621,-2.597645 0.185073,-0.473676 0.336494,-0.865982 0.336494,-0.871791 0,-0.0058 -0.14343,-0.0076 -0.318735,-0.0041 l -0.318736,0.0065 -0.114837,0.292326 c -0.369721,0.94114 -1.220012,3.128375 -1.229609,3.162968 -0.0104,0.03752 0.01495,0.04093 0.304584,0.04093 0.231142,0 0.318965,-0.0078 0.327218,-0.02923 z m 1.053158,-0.128623 c 0.07165,-0.184726 1.278448,-3.27735 1.296114,-3.321502 0.0094,-0.02361 -0.05611,-0.02854 -0.311084,-0.02339 l -0.323053,0.0065 -0.241822,0.619731 c -0.133003,0.340853 -0.436131,1.117065 -0.673618,1.724917 -0.237488,0.607851 -0.431795,1.115622 -0.431795,1.128378 0,0.01418 0.121322,0.02319 0.312018,0.02319 h 0.312018 z m 0.963747,0.08185 c 0.01902,-0.0418 0.122878,-0.302265 0.230764,-0.578806 0.895979,-2.296641 1.090259,-2.800142 1.090259,-2.825455 0,-0.02195 -0.0752,-0.02742 -0.30904,-0.02248 l -0.30904,0.0065 -0.33496,0.853592 c -0.720797,1.836835 -1.011386,2.588117 -1.011386,2.614802 0,0.02008 0.08468,0.02782 0.304398,0.02782 h 0.304398 z m 1.244713,-0.613885 c 0.8085,-2.070843 1.08192,-2.77761 1.08192,-2.796727 0,-0.01173 -0.13911,-0.02126 -0.30987,-0.02122 l -0.30986,7.2e-5 -0.37155,0.95291 c -0.20435,0.524101 -0.50691,1.298961 -0.67235,1.721912 -0.16544,0.422951 -0.300804,0.783694 -0.300804,0.801653 0,0.02662 0.057,0.03145 0.308864,0.02613 l 0.30887,-0.0065 z m 0.89967,0.257247 c 0.09,-0.231522 0.39033,-0.999755 0.66742,-1.707184 0.27709,-0.707429 0.50877,-1.304651 0.51485,-1.32716 0.0101,-0.0375 -0.0154,-0.04093 -0.3047,-0.04093 h -0.31573 l -0.0588,0.157856 c -0.0418,0.112106 -1.13429,2.910578 -1.29673,3.321502 -0.009,0.0236 0.0559,0.02853 0.30911,0.02339 l 0.32094,-0.0065 z m 0.84367,0.40341 c 0.006,-0.01608 0.19168,-0.490069 0.41176,-1.053313 l 0.40014,-1.02408 v -0.700639 c 0,-0.671852 -0.002,-0.700643 -0.0443,-0.700643 -0.0243,0 -0.0494,0.01315 -0.0556,0.02923 -0.006,0.01608 -0.29253,0.750109 -0.6362,1.631179 -0.63607,1.630723 -0.71383,1.831314 -0.71385,1.841654 0,0.0032 0.14094,0.0058 0.3132,0.0058 0.22878,0 0.31634,-0.0079 0.32483,-0.02923 z m 0.8119,-0.535931 c 0,-0.31084 -0.005,-0.560522 -0.0103,-0.55485 -0.0143,0.01426 -0.43402,1.080327 -0.43402,1.102283 0,0.0098 0.1,0.01773 0.22217,0.01773 h 0.22216 z"
       id="path15633-3" />
    <path
       style="fill:#01949a;fill-opacity:1;fill-rule:nonzero;stroke:none;stroke-width:0.0234229;stroke-miterlimit:1;stroke-dasharray:none;paint-order:markers fill stroke"
       d="m 74.99876,26.036947 v 0.09286 l 0.306605,0.0065 0.306607,0.0065 0.274148,0.701582 c 0.15078,0.38587 0.451059,1.154103 0.667284,1.707184 0.216226,0.553081 0.398111,1.024018 0.404188,1.046527 0.01013,0.0375 -0.01537,0.04093 -0.30498,0.04093 h -0.316034 l -0.162742,-0.415103 c -0.08951,-0.228307 -0.387885,-0.990828 -0.663062,-1.694493 l -0.500322,-1.27939 -0.0064,0.443794 -0.0063,0.443794 0.47992,1.226976 c 0.263956,0.674837 0.479922,1.237651 0.479922,1.250699 0,0.01486 -0.116692,0.02372 -0.312174,0.02372 h -0.312171 l -0.147563,-0.380024 c -0.08116,-0.209013 -0.156097,-0.395809 -0.166529,-0.415103 -0.01042,-0.01929 -0.01929,0.204336 -0.01969,0.496955 l -7.94e-4,0.532033 h 7.799258 c 7.768076,0 7.799446,-1.87e-4 7.846036,-0.04677 0.046,-0.046 0.0468,-0.07795 0.0468,-1.927439 0,-1.034367 -0.006,-1.897314 -0.0142,-1.917659 -0.0129,-0.03363 -0.726,-0.03699 -7.846036,-0.03699 h -7.831836 z m 1.64877,0.193614 c 0.09721,0.240286 1.292928,3.308633 1.308041,3.356574 l 0.0168,0.05329 -0.319619,-0.0065 -0.319622,-0.0065 -0.465796,-1.192691 c -0.256188,-0.655979 -0.560425,-1.434736 -0.676082,-1.73057 -0.115657,-0.295834 -0.210285,-0.545773 -0.21028,-0.555419 2e-6,-0.0096 0.140933,-0.01754 0.313177,-0.01754 h 0.313174 z m 1.013515,0.02339 c 0.02553,0.06753 0.104114,0.270109 0.174649,0.450182 0.595704,1.520817 1.138701,2.915592 1.138701,2.924937 0,0.0062 -0.143934,0.0084 -0.319853,0.0048 l -0.319849,-0.0065 -0.04178,-0.105238 c -0.29436,-0.741464 -1.306336,-3.350377 -1.306336,-3.367788 0,-0.01418 0.121997,-0.02319 0.314032,-0.02319 h 0.314031 z m 1.125429,0.315712 c 0.09398,0.241169 0.400966,1.02692 0.682194,1.746113 0.281231,0.719192 0.511326,1.311449 0.511326,1.316127 0,0.0047 -0.144061,0.0056 -0.320133,0.002 l -0.320135,-0.0065 -0.08851,-0.222168 c -0.272124,-0.683024 -1.23726,-3.167093 -1.249571,-3.216145 l -0.01453,-0.05791 h 0.314248 0.314251 z m 1.262806,0.666662 c 0.367411,0.940144 0.890418,2.275491 0.92963,2.373529 0.009,0.02255 -0.06242,0.02919 -0.31237,0.02906 l -0.324062,-1.73e-4 -0.15658,-0.403237 c -0.08612,-0.22178 -0.384948,-0.987304 -0.664065,-1.701164 -0.279114,-0.71386 -0.512439,-1.321606 -0.518496,-1.350546 -0.01098,-0.0525 -0.01029,-0.05262 0.301583,-0.05246 l 0.312592,1.64e-4 0.431768,1.104834 z m 0.707001,-0.75436 c 0.135866,0.344947 1.177168,3.008396 1.213737,3.104503 l 0.02003,0.05262 h -0.323017 -0.323014 l -0.09564,-0.251401 c -0.105476,-0.277244 -0.46799,-1.20485 -0.948211,-2.426306 -0.171934,-0.43732 -0.30824,-0.803319 -0.302901,-0.813333 0.0053,-0.01001 0.148254,-0.01527 0.317588,-0.01169 l 0.307877,0.0065 z m 1.130454,0.327406 c 0.894855,2.288166 1.086678,2.783359 1.086678,2.805248 0,0.01581 -0.110339,0.02447 -0.311804,0.02447 h -0.311806 l -0.668999,-1.713031 c -0.367951,-0.942166 -0.67614,-1.731752 -0.684866,-1.754634 -0.01482,-0.03882 0.0057,-0.04117 0.307136,-0.03508 l 0.323004,0.0065 z m 1.04285,0.105237 c 0.567835,1.448155 1.032338,2.642568 1.043619,2.683553 0.01032,0.03751 -0.01508,0.04093 -0.30477,0.04093 H 83.352397 L 83.19906,29.247374 c -0.638223,-1.630415 -1.207863,-3.094843 -1.207863,-3.105161 0,-0.0068 0.143053,-0.0094 0.317892,-0.0058 l 0.317889,0.0065 z m 0.90697,-0.245554 c 0.246266,0.632338 0.715039,1.831519 0.955326,2.443846 0.0959,0.244384 0.179726,0.462752 0.186277,0.485261 0.01093,0.03755 -0.01418,0.04093 -0.303988,0.04093 h -0.315899 l -0.04008,-0.09939 c -0.122449,-0.303621 -1.305785,-3.333374 -1.315554,-3.368275 -0.01082,-0.03865 0.01114,-0.04114 0.308677,-0.03508 l 0.320317,0.0065 z m 0.803548,-0.508647 c 0.03389,0.08779 0.724593,1.857897 1.013621,2.597645 0.185073,0.473676 0.336494,0.865982 0.336494,0.871791 0,0.0058 -0.14343,0.0076 -0.318735,0.0041 l -0.318736,-0.0065 -0.114837,-0.292326 c -0.369721,-0.94114 -1.220012,-3.128375 -1.229609,-3.162968 -0.0104,-0.03752 0.01495,-0.04092 0.304583,-0.04092 0.231143,0 0.318966,0.0078 0.327219,0.02923 z m 1.053158,0.128623 c 0.07165,0.184726 1.278448,3.27735 1.296114,3.321502 0.0094,0.02361 -0.05611,0.02854 -0.311084,0.02339 l -0.323053,-0.0065 -0.241822,-0.619731 c -0.133003,-0.340853 -0.436131,-1.117065 -0.673618,-1.724917 -0.237488,-0.607851 -0.431795,-1.115622 -0.431795,-1.128378 0,-0.01418 0.121322,-0.02319 0.312018,-0.02319 h 0.312018 z m 0.963747,-0.08185 c 0.01902,0.0418 0.122878,0.302265 0.230764,0.578806 0.895975,2.296641 1.090265,2.800142 1.090265,2.825455 0,0.02195 -0.0752,0.02742 -0.30905,0.02248 l -0.30904,-0.0065 -0.334956,-0.853592 c -0.720797,-1.836835 -1.011386,-2.588117 -1.011386,-2.614802 0,-0.02008 0.08468,-0.02782 0.304398,-0.02782 h 0.304398 z m 1.244709,0.61388 c 0.80851,2.070843 1.08192,2.77761 1.08192,2.796727 0,0.01173 -0.1391,0.02126 -0.30987,0.02122 l -0.30986,-7.2e-5 -0.37155,-0.95291 c -0.20435,-0.524101 -0.50691,-1.298961 -0.67235,-1.721912 -0.16544,-0.422951 -0.3008,-0.783694 -0.3008,-0.801653 0,-0.02662 0.057,-0.03145 0.30886,-0.02612 l 0.30887,0.0065 z m 0.89967,-0.257247 c 0.09,0.231522 0.39033,0.999755 0.66743,1.707184 0.27709,0.707429 0.50877,1.304651 0.51484,1.32716 0.0101,0.0375 -0.0154,0.04093 -0.30469,0.04093 h -0.31573 l -0.0588,-0.157856 c -0.0418,-0.112106 -1.13429,-2.910578 -1.29673,-3.321502 -0.009,-0.0236 0.0559,-0.02853 0.30911,-0.02339 l 0.32094,0.0065 z m 0.84367,-0.40341 c 0.006,0.01608 0.19168,0.490069 0.41176,1.053313 l 0.40014,1.02408 v 0.700644 c 0,0.671852 -0.002,0.700643 -0.0443,0.700643 -0.0243,0 -0.0494,-0.01315 -0.0556,-0.02923 -0.006,-0.01608 -0.29252,-0.750109 -0.63619,-1.631179 -0.63608,-1.630723 -0.71383,-1.831314 -0.71385,-1.841654 -1e-5,-0.0032 0.14093,-0.0058 0.3132,-0.0058 0.22878,0 0.31634,0.0079 0.32482,0.02923 z m 0.8119,0.535931 c 0,0.31084 -0.005,0.560522 -0.0103,0.55485 -0.0143,-0.01426 -0.43402,-1.080327 -0.43402,-1.102283 0,-0.0098 0.1,-0.01773 0.22217,-0.01773 h 0.22217 z"
       id="path15633-8-1" />
    <text
       xml:space="preserve"
       style="font-size:2.82222px;fill:#000000;stroke-width:0.264583"
       x="80.680237"
       y="33.011227"
       id="text9-7"><tspan
         sodipodi:role="line"
         id="tspan9-4"
         style="font-size:2.82222px;stroke-width:0.264583"
         x="80.680237"
         y="33.011227">VB</tspan></text>
    <text
       xml:space="preserve"
       style="font-size:2.82222px;fill:#000000;stroke-width:0.264583"
       x="80.704124"
       y="22.509781"
       id="text8-2"><tspan
         sodipodi:role="line"
         id="tspan8-7"
         style="font-size:2.82222px;stroke-width:0.264583"
         x="80.704124"
         y="22.509781">LB</tspan></text>
    <path
       style="fill:#ffffff;fill-opacity:1;stroke:#000000;stroke-width:0.5;stroke-linecap:butt;stroke-linejoin:round;stroke-dasharray:none;stroke-dashoffset:0;stroke-opacity:1;marker-end:url(#Arrow2)"
       d="m 118.05933,39.652201 c 0,-22.761078 0,-22.761078 0,-22.761078"
       id="path3-4-0-2-3-1-7" />
    <path
       style="fill:#ffffff;fill-opacity:1;stroke:#000000;stroke-width:0.499999;stroke-linecap:butt;stroke-linejoin:round;stroke-dasharray:none;stroke-dashoffset:0;stroke-opacity:1"
       d="m 117.81283,39.401231 c 18,0 18,0 18,0"
       id="path3-4-00-07-7-8-3" />
    <text
       xml:space="preserve"
       style="font-style:normal;font-variant:normal;font-weight:normal;font-stretch:normal;font-size:3.52778px;font-family:'Helvetica Neue';-inkscape-font-specification:'Helvetica Neue';text-align:center;text-anchor:middle;fill:#000000;fill-opacity:1;stroke:none;stroke-width:0.1;stroke-linecap:butt;stroke-linejoin:round;stroke-dasharray:none;stroke-dashoffset:0;stroke-opacity:1"
       x="126.70277"
       y="43.898766"
       id="text4-7-9-7-7"><tspan
         sodipodi:role="line"
         id="tspan4-9-0-8-9"
         style="font-size:3.52778px;fill:#000000;fill-opacity:1;stroke:none;stroke-width:0.1;stroke-dasharray:none;stroke-opacity:1"
         x="126.70277"
         y="43.898766">Halbleiter</tspan></text>
    <path
       style="fill:#ff6600;fill-opacity:1;fill-rule:nonzero;stroke:none;stroke-width:0.0234229;stroke-miterlimit:1;stroke-dasharray:none;paint-order:markers fill stroke"
       d="m 118.32405,24.201033 v -0.09286 l 0.30661,-0.0065 0.30661,-0.0065 0.27414,-0.701582 c 0.15078,-0.38587 0.45106,-1.154103 0.66729,-1.707184 0.21622,-0.553081 0.39811,-1.024018 0.40419,-1.046527 0.0101,-0.0375 -0.0154,-0.04093 -0.30498,-0.04093 h -0.31604 l -0.16274,0.415103 c -0.0895,0.228307 -0.38789,0.990828 -0.66306,1.694493 l -0.50032,1.27939 -0.006,-0.443794 -0.006,-0.443794 0.47992,-1.226976 c 0.26395,-0.674837 0.47992,-1.237651 0.47992,-1.250699 0,-0.01486 -0.11669,-0.02372 -0.31218,-0.02372 h -0.31217 l -0.14756,0.380024 c -0.0812,0.209013 -0.1561,0.395809 -0.16653,0.415103 -0.0104,0.01929 -0.0193,-0.204336 -0.0197,-0.496955 l -7.9e-4,-0.532033 h 7.79925 c 7.76808,0 7.79945,1.87e-4 7.84604,0.04677 0.046,0.046 0.0468,0.07795 0.0468,1.927439 0,1.034367 -0.006,1.897314 -0.0142,1.917659 -0.0129,0.03363 -0.726,0.03699 -7.84604,0.03699 h -7.83183 z m 1.64877,-0.193614 c 0.0972,-0.240286 1.29293,-3.308633 1.30805,-3.356574 l 0.0168,-0.05329 -0.31962,0.0065 -0.31963,0.0065 -0.46579,1.192691 c -0.25619,0.655979 -0.56043,1.434736 -0.67608,1.73057 -0.11566,0.295834 -0.21029,0.545773 -0.21028,0.555419 0,0.0096 0.14093,0.01754 0.31317,0.01754 h 0.31318 z m 1.01352,-0.02339 c 0.0255,-0.06753 0.10411,-0.270109 0.17465,-0.450182 0.5957,-1.520817 1.1387,-2.915592 1.1387,-2.924937 0,-0.0062 -0.14394,-0.0084 -0.31985,-0.0048 l -0.31985,0.0065 -0.0418,0.105238 c -0.29436,0.741464 -1.30634,3.350377 -1.30634,3.367788 0,0.01418 0.122,0.02319 0.31403,0.02319 h 0.31403 z m 1.12543,-0.315712 c 0.094,-0.241169 0.40096,-1.02692 0.68219,-1.746113 0.28123,-0.719192 0.51133,-1.311449 0.51133,-1.316127 0,-0.0047 -0.14406,-0.0056 -0.32014,-0.002 l -0.32013,0.0065 -0.0885,0.222168 c -0.27212,0.683024 -1.23726,3.167093 -1.24957,3.216145 l -0.0145,0.05791 h 0.31425 0.31425 z m 1.2628,-0.666662 c 0.36741,-0.940144 0.89042,-2.275491 0.92963,-2.373529 0.009,-0.02255 -0.0624,-0.02919 -0.31237,-0.02906 l -0.32406,1.73e-4 -0.15658,0.403237 c -0.0861,0.22178 -0.38495,0.987304 -0.66406,1.701164 -0.27912,0.71386 -0.51244,1.321606 -0.5185,1.350546 -0.011,0.0525 -0.0103,0.05262 0.30158,0.05246 l 0.3126,-1.64e-4 0.43176,-1.104834 z m 0.707,0.75436 c 0.13587,-0.344947 1.17717,-3.008396 1.21374,-3.104503 l 0.02,-0.05262 h -0.32302 -0.32301 l -0.0956,0.251401 c -0.10548,0.277244 -0.46799,1.20485 -0.94821,2.426306 -0.17193,0.43732 -0.30824,0.803319 -0.3029,0.813333 0.005,0.01001 0.14825,0.01527 0.31759,0.01169 l 0.30787,-0.0065 z m 1.13046,-0.327406 c 0.89485,-2.288166 1.08668,-2.783359 1.08668,-2.805248 0,-0.01581 -0.11034,-0.02447 -0.31181,-0.02447 h -0.3118 l -0.669,1.713031 c -0.36795,0.942166 -0.67614,1.731752 -0.68487,1.754634 -0.0148,0.03883 0.006,0.04117 0.30714,0.03508 l 0.323,-0.0065 z m 1.04285,-0.105237 c 0.56783,-1.448155 1.03234,-2.642568 1.04362,-2.683553 0.0103,-0.03751 -0.0151,-0.04093 -0.30477,-0.04093 h -0.31604 l -0.15334,0.391717 c -0.63822,1.630415 -1.20786,3.094843 -1.20786,3.105161 0,0.0068 0.14305,0.0094 0.31789,0.0058 l 0.31789,-0.0065 z m 0.90697,0.245554 c 0.24626,-0.632338 0.71504,-1.831519 0.95532,-2.443846 0.0959,-0.244384 0.17973,-0.462752 0.18628,-0.485261 0.0109,-0.03755 -0.0142,-0.04093 -0.30399,-0.04093 h -0.3159 l -0.0401,0.09939 c -0.12244,0.303621 -1.30578,3.333374 -1.31555,3.368275 -0.0108,0.03864 0.0111,0.04114 0.30868,0.03508 l 0.32031,-0.0065 z m 0.80355,0.508647 c 0.0339,-0.08779 0.72459,-1.857897 1.01362,-2.597645 0.18507,-0.473676 0.33649,-0.865982 0.33649,-0.871791 0,-0.0058 -0.14343,-0.0076 -0.31873,-0.0041 l -0.31874,0.0065 -0.11484,0.292326 c -0.36972,0.94114 -1.22001,3.128375 -1.22961,3.162968 -0.0104,0.03752 0.0149,0.04093 0.30459,0.04093 0.23114,0 0.31896,-0.0078 0.32722,-0.02923 z m 1.05315,-0.128623 c 0.0717,-0.184726 1.27845,-3.27735 1.29612,-3.321502 0.009,-0.02361 -0.0561,-0.02854 -0.31109,-0.02339 l -0.32305,0.0065 -0.24182,0.619731 c -0.133,0.340853 -0.43613,1.117065 -0.67362,1.724917 -0.23749,0.607851 -0.43179,1.115622 -0.43179,1.128378 0,0.01418 0.12132,0.02319 0.31201,0.02319 h 0.31202 z m 0.96375,0.08185 c 0.019,-0.0418 0.12288,-0.302265 0.23077,-0.578806 0.89597,-2.296641 1.09026,-2.800142 1.09026,-2.825455 0,-0.02195 -0.0752,-0.02742 -0.30904,-0.02248 l -0.30905,0.0065 -0.33496,0.853592 c -0.72079,1.836835 -1.01138,2.588117 -1.01138,2.614802 0,0.02008 0.0847,0.02782 0.3044,0.02782 h 0.30439 z m 1.24471,-0.613885 c 0.80851,-2.070843 1.08192,-2.77761 1.08192,-2.796727 0,-0.01173 -0.1391,-0.02126 -0.30987,-0.02122 l -0.30986,7.2e-5 -0.37155,0.95291 c -0.20435,0.524101 -0.50691,1.298961 -0.67235,1.721912 -0.16544,0.422951 -0.3008,0.783694 -0.3008,0.801653 0,0.02662 0.057,0.03145 0.30886,0.02613 l 0.30887,-0.0065 z m 0.89967,0.257247 c 0.09,-0.231522 0.39033,-0.999755 0.66743,-1.707184 0.27709,-0.707429 0.50877,-1.304651 0.51484,-1.32716 0.0101,-0.0375 -0.0154,-0.04093 -0.30469,-0.04093 h -0.31573 l -0.0588,0.157856 c -0.0417,0.112106 -1.13428,2.910578 -1.29673,3.321502 -0.009,0.0236 0.0559,0.02853 0.30911,0.02339 l 0.32094,-0.0065 z m 0.84367,0.40341 c 0.006,-0.01608 0.19168,-0.490069 0.41176,-1.053313 l 0.40014,-1.02408 v -0.700644 c 0,-0.671852 -0.002,-0.700643 -0.0443,-0.700643 -0.0243,0 -0.0494,0.01316 -0.0556,0.02923 -0.006,0.01608 -0.29252,0.750109 -0.63619,1.631179 -0.63608,1.630723 -0.71383,1.831314 -0.71385,1.841654 -1e-5,0.0032 0.14093,0.0058 0.3132,0.0058 0.22878,0 0.31634,-0.0079 0.32482,-0.02923 z m 0.8119,-0.535931 c 0,-0.31084 -0.005,-0.560522 -0.0103,-0.55485 -0.0143,0.01426 -0.43402,1.080327 -0.43402,1.102283 0,0.0098 0.1,0.01773 0.22217,0.01773 h 0.22217 z"
       id="path15633-35" />
    <path
       style="fill:#01949a;fill-opacity:1;fill-rule:nonzero;stroke:none;stroke-width:0.0234229;stroke-miterlimit:1;stroke-dasharray:none;paint-order:markers fill stroke"
       d="m 118.32377,28.738923 v 0.09286 l 0.3066,0.0065 0.30661,0.0065 0.27415,0.701582 c 0.15078,0.38587 0.45106,1.154103 0.66728,1.707184 0.21623,0.553081 0.39811,1.024018 0.40419,1.046527 0.0101,0.0375 -0.0154,0.04093 -0.30498,0.04093 h -0.31603 l -0.16275,-0.415103 c -0.0895,-0.228307 -0.38788,-0.990828 -0.66306,-1.694493 l -0.50032,-1.27939 -0.006,0.443794 -0.006,0.443794 0.47992,1.226976 c 0.26396,0.674837 0.47992,1.237651 0.47992,1.250699 0,0.01486 -0.11669,0.02372 -0.31217,0.02372 h -0.31217 l -0.14757,-0.380024 c -0.0812,-0.209013 -0.15609,-0.395809 -0.16652,-0.415103 -0.0104,-0.01929 -0.0193,0.204336 -0.0197,0.496955 l -8e-4,0.532033 h 7.79926 c 7.76807,0 7.79944,-1.87e-4 7.84603,-0.04677 0.046,-0.046 0.0468,-0.07795 0.0468,-1.927439 0,-1.034367 -0.006,-1.897314 -0.0142,-1.917659 -0.0129,-0.03363 -0.726,-0.03699 -7.84603,-0.03699 h -7.83184 z m 1.64877,0.193614 c 0.0972,0.240286 1.29293,3.308633 1.30804,3.356574 l 0.0168,0.05329 -0.31962,-0.0065 -0.31962,-0.0065 -0.4658,-1.192691 c -0.25619,-0.655979 -0.56042,-1.434736 -0.67608,-1.73057 -0.11566,-0.295834 -0.21028,-0.545773 -0.21028,-0.555419 0,-0.0096 0.14093,-0.01754 0.31318,-0.01754 h 0.31317 z m 1.01351,0.02339 c 0.0255,0.06753 0.10412,0.270109 0.17465,0.450182 0.59571,1.520817 1.1387,2.915592 1.1387,2.924937 0,0.0062 -0.14393,0.0084 -0.31985,0.0048 l -0.31985,-0.0065 -0.0418,-0.105238 c -0.29436,-0.741464 -1.30634,-3.350377 -1.30634,-3.367788 0,-0.01418 0.122,-0.02319 0.31404,-0.02319 h 0.31403 z m 1.12543,0.315712 c 0.094,0.241169 0.40097,1.02692 0.6822,1.746113 0.28123,0.719192 0.51132,1.311449 0.51132,1.316127 0,0.0047 -0.14406,0.0056 -0.32013,0.002 l -0.32014,-0.0065 -0.0885,-0.222168 c -0.27212,-0.683024 -1.23726,-3.167093 -1.24957,-3.216145 l -0.0145,-0.05791 h 0.31425 0.31425 z m 1.26281,0.666662 c 0.36741,0.940144 0.89042,2.275491 0.92963,2.373529 0.009,0.02255 -0.0624,0.02919 -0.31237,0.02906 l -0.32406,-1.73e-4 -0.15658,-0.403237 c -0.0861,-0.22178 -0.38495,-0.987304 -0.66407,-1.701164 -0.27911,-0.71386 -0.51244,-1.321606 -0.51849,-1.350546 -0.011,-0.0525 -0.0103,-0.05262 0.30158,-0.05246 l 0.31259,1.64e-4 0.43177,1.104834 z m 0.707,-0.75436 c 0.13586,0.344947 1.17717,3.008396 1.21374,3.104503 l 0.02,0.05262 h -0.32302 -0.32302 l -0.0956,-0.251401 c -0.10547,-0.277244 -0.46799,-1.20485 -0.94821,-2.426306 -0.17193,-0.43732 -0.30824,-0.803319 -0.3029,-0.813333 0.005,-0.01001 0.14826,-0.01527 0.31759,-0.01169 l 0.30788,0.0065 z m 1.13045,0.327406 c 0.89486,2.288166 1.08668,2.783359 1.08668,2.805248 0,0.01581 -0.11034,0.02447 -0.3118,0.02447 h -0.31181 l -0.669,-1.713031 c -0.36795,-0.942166 -0.67614,-1.731752 -0.68486,-1.754634 -0.0148,-0.03882 0.006,-0.04117 0.30713,-0.03508 l 0.32301,0.0065 z m 1.04285,0.105237 c 0.56784,1.448155 1.03234,2.642568 1.04362,2.683553 0.0103,0.03751 -0.0151,0.04093 -0.30477,0.04093 h -0.31604 l -0.15333,-0.391717 c -0.63823,-1.630415 -1.20787,-3.094843 -1.20787,-3.105161 0,-0.0068 0.14306,-0.0094 0.3179,-0.0058 l 0.31789,0.0065 z m 0.90697,-0.245554 c 0.24627,0.632338 0.71504,1.831519 0.95533,2.443846 0.0959,0.244384 0.17972,0.462752 0.18628,0.485261 0.0109,0.03755 -0.0142,0.04093 -0.30399,0.04093 h -0.3159 l -0.0401,-0.09939 c -0.12245,-0.303621 -1.30579,-3.333374 -1.31556,-3.368275 -0.0108,-0.03865 0.0111,-0.04114 0.30868,-0.03508 l 0.32032,0.0065 z m 0.80355,-0.508647 c 0.0339,0.08779 0.72459,1.857897 1.01362,2.597645 0.18507,0.473676 0.3365,0.865982 0.3365,0.871791 0,0.0058 -0.14343,0.0076 -0.31874,0.0041 l -0.31874,-0.0065 -0.11483,-0.292326 c -0.36972,-0.94114 -1.22001,-3.128375 -1.22961,-3.162968 -0.0104,-0.03752 0.0149,-0.04092 0.30458,-0.04092 0.23114,0 0.31897,0.0078 0.32722,0.02923 z m 1.05316,0.128623 c 0.0717,0.184726 1.27845,3.27735 1.29611,3.321502 0.009,0.02361 -0.0561,0.02854 -0.31108,0.02339 l -0.32305,-0.0065 -0.24183,-0.619731 c -0.133,-0.340853 -0.43613,-1.117065 -0.67361,-1.724917 -0.23749,-0.607851 -0.4318,-1.115622 -0.4318,-1.128378 0,-0.01418 0.12132,-0.02319 0.31202,-0.02319 h 0.31202 z m 0.96375,-0.08185 c 0.019,0.0418 0.12287,0.302265 0.23076,0.578806 0.89598,2.296641 1.09026,2.800142 1.09026,2.825455 0,0.02195 -0.0752,0.02742 -0.30904,0.02248 l -0.30904,-0.0065 -0.33496,-0.853592 c -0.7208,-1.836835 -1.01139,-2.588117 -1.01139,-2.614802 0,-0.02008 0.0847,-0.02782 0.3044,-0.02782 h 0.3044 z m 1.24471,0.61388 c 0.8085,2.070843 1.08192,2.77761 1.08192,2.796727 0,0.01173 -0.13911,0.02126 -0.30987,0.02122 l -0.30987,-7.2e-5 -0.37154,-0.95291 c -0.20435,-0.524101 -0.50691,-1.298961 -0.67235,-1.721912 -0.16544,-0.422951 -0.3008,-0.783694 -0.3008,-0.801653 0,-0.02662 0.057,-0.03145 0.30886,-0.02612 l 0.30887,0.0065 z m 0.89966,-0.257247 c 0.09,0.231522 0.39034,0.999755 0.66743,1.707184 0.27709,0.707429 0.50877,1.304651 0.51484,1.32716 0.0101,0.0375 -0.0154,0.04093 -0.30469,0.04093 h -0.31573 l -0.0588,-0.157856 c -0.0417,-0.112106 -1.13428,-2.910578 -1.29672,-3.321502 -0.009,-0.0236 0.0559,-0.02853 0.30911,-0.02339 l 0.32093,0.0065 z m 0.84368,-0.40341 c 0.006,0.01608 0.19167,0.490069 0.41175,1.053313 l 0.40015,1.02408 v 0.700644 c 0,0.671852 -0.002,0.700643 -0.0443,0.700643 -0.0243,0 -0.0494,-0.01315 -0.0556,-0.02923 -0.006,-0.01608 -0.29253,-0.750109 -0.6362,-1.631179 -0.63607,-1.630723 -0.71383,-1.831314 -0.71385,-1.841654 0,-0.0032 0.14094,-0.0058 0.3132,-0.0058 0.22878,0 0.31634,0.0079 0.32483,0.02923 z m 0.8119,0.535931 c 0,0.31084 -0.005,0.560522 -0.0103,0.55485 -0.0143,-0.01426 -0.43402,-1.080327 -0.43402,-1.102283 0,-0.0098 0.1,-0.01773 0.22217,-0.01773 h 0.22216 z"
       id="path15633-8-0" />
    <text
       xml:space="preserve"
       style="font-size:2.82222px;fill:#000000;stroke-width:0.264583"
       x="123.95253"
       y="19.27865"
       id="text8-1"><tspan
         sodipodi:role="line"
         id="tspan8-0"
         style="font-size:2.82222px;stroke-width:0.264583"
         x="123.95253"
         y="19.27865">LB</tspan></text>
    <text
       xml:space="preserve"
       style="font-size:2.82222px;fill:#000000;stroke-width:0.264583"
       x="123.88558"
       y="35.713207"
       id="text9-7-5"><tspan
         sodipodi:role="line"
         id="tspan9-4-9"
         style="font-size:2.82222px;stroke-width:0.264583"
         x="123.88558"
         y="35.713207">VB</tspan></text>
    <g
       id="g25"
       transform="translate(3.02356,-70.099386)">
      <path
         style="fill:#ffffff;fill-opacity:1;stroke:#000000;stroke-width:0.3;stroke-linecap:butt;stroke-linejoin:round;stroke-dasharray:none;stroke-dashoffset:0;stroke-opacity:1;marker-start:url(#ArrowWide-93);marker-end:url(#ArrowWide-93)"
         d="m 122.628,98.461457 c 0,-3.785738 0,-3.785738 0,-3.785738"
         id="path3-4-0-2-3-1-3-6-4-5" />
      <text
         xml:space="preserve"
         style="font-size:2.82222px;text-align:start;text-anchor:start;fill:#000000;fill-opacity:1;stroke-width:0.3;stroke-dasharray:none"
         x="124.21783"
         y="97.562012"
         id="text14-9"><tspan
           sodipodi:role="line"
           id="tspan14-09"
           style="font-size:2.82222px;text-align:start;text-anchor:start;stroke-width:0.3"
           x="124.21783"
           y="97.562012">$E_\text{G}\approx1\,\mathrm{eV}$</tspan></text>
    </g>
    <path
       style="fill:#ffffff;fill-opacity:1;stroke:#000000;stroke-width:0.5;stroke-linecap:butt;stroke-linejoin:round;stroke-dasharray:none;stroke-dashoffset:0;stroke-opacity:1;marker-end:url(#Arrow2)"
       d="m 161.30773,39.652201 c 0,-22.761078 0,-22.761078 0,-22.761078"
       id="path3-4-0-2-3-1-3" />
    <path
       style="fill:#ffffff;fill-opacity:1;stroke:#000000;stroke-width:0.499999;stroke-linecap:butt;stroke-linejoin:round;stroke-dasharray:none;stroke-dashoffset:0;stroke-opacity:1"
       d="m 161.06123,39.401231 c 18,0 18,0 18,0"
       id="path3-4-00-07-7-8-9" />
    <text
       xml:space="preserve"
       style="font-style:normal;font-variant:normal;font-weight:normal;font-stretch:normal;font-size:3.52778px;font-family:'Helvetica Neue';-inkscape-font-specification:'Helvetica Neue';text-align:center;text-anchor:middle;fill:#000000;fill-opacity:1;stroke:none;stroke-width:0.1;stroke-linecap:butt;stroke-linejoin:round;stroke-dasharray:none;stroke-dashoffset:0;stroke-opacity:1"
       x="169.94553"
       y="43.898773"
       id="text4-7-9-7-9"><tspan
         sodipodi:role="line"
         id="tspan4-9-0-8-91"
         style="font-size:3.52778px;fill:#000000;fill-opacity:1;stroke:none;stroke-width:0.1;stroke-dasharray:none;stroke-opacity:1"
         x="169.94553"
         y="43.898773">Isolator</tspan></text>
    <path
       style="fill:#ff6600;fill-opacity:1;fill-rule:nonzero;stroke:none;stroke-width:0.0234229;stroke-miterlimit:1;stroke-dasharray:none;paint-order:markers fill stroke"
       d="m 161.49519,21.782728 v -0.09286 l 0.3066,-0.0065 0.30661,-0.0065 0.27415,-0.701582 c 0.15078,-0.38587 0.45106,-1.154103 0.66728,-1.707184 0.21623,-0.553081 0.39811,-1.024018 0.40419,-1.046527 0.0101,-0.0375 -0.0154,-0.04093 -0.30498,-0.04093 H 162.833 l -0.16274,0.415103 c -0.0895,0.228307 -0.38788,0.990828 -0.66306,1.694493 l -0.50032,1.27939 -0.006,-0.443794 -0.006,-0.443794 0.47992,-1.226976 c 0.26395,-0.674837 0.47992,-1.237651 0.47992,-1.250699 0,-0.01486 -0.11669,-0.02372 -0.31217,-0.02372 h -0.31217 l -0.14757,0.380024 c -0.0812,0.209013 -0.15609,0.395809 -0.16653,0.415103 -0.0104,0.01929 -0.0193,-0.204336 -0.0197,-0.496955 l -7.9e-4,-0.532033 h 7.79926 c 7.76807,0 7.79944,1.87e-4 7.84603,0.04677 0.046,0.046 0.0468,0.07795 0.0468,1.927439 0,1.034367 -0.006,1.897314 -0.0142,1.917659 -0.0129,0.03363 -0.726,0.03699 -7.84603,0.03699 h -7.83184 z m 1.64877,-0.193614 c 0.0972,-0.240286 1.29293,-3.308633 1.30804,-3.356574 l 0.0168,-0.05329 -0.31962,0.0065 -0.31962,0.0065 -0.4658,1.192691 c -0.25619,0.655979 -0.56042,1.434736 -0.67608,1.73057 -0.11566,0.295834 -0.21029,0.545773 -0.21028,0.555419 0,0.0096 0.14093,0.01754 0.31318,0.01754 h 0.31317 z m 1.01351,-0.02339 c 0.0255,-0.06753 0.10412,-0.270109 0.17465,-0.450182 0.5957,-1.520817 1.1387,-2.915592 1.1387,-2.924937 0,-0.0062 -0.14393,-0.0084 -0.31985,-0.0048 l -0.31985,0.0065 -0.0418,0.105238 c -0.29436,0.741464 -1.30634,3.350377 -1.30634,3.367788 0,0.01418 0.122,0.02319 0.31404,0.02319 h 0.31403 z m 1.12543,-0.315712 c 0.094,-0.241169 0.40097,-1.02692 0.68219,-1.746113 0.28124,-0.719192 0.51133,-1.311449 0.51133,-1.316127 0,-0.0047 -0.14406,-0.0056 -0.32013,-0.002 l -0.32014,0.0065 -0.0885,0.222168 c -0.27212,0.683024 -1.23726,3.167093 -1.24957,3.216145 l -0.0145,0.05791 h 0.31425 0.31425 z m 1.26281,-0.666662 c 0.36741,-0.940144 0.89041,-2.275491 0.92963,-2.373529 0.009,-0.02255 -0.0624,-0.02919 -0.31237,-0.02906 l -0.32407,1.73e-4 -0.15658,0.403237 c -0.0861,0.22178 -0.38494,0.987304 -0.66406,1.701164 -0.27911,0.71386 -0.51244,1.321606 -0.5185,1.350546 -0.011,0.0525 -0.0103,0.05262 0.30159,0.05246 l 0.31259,-1.64e-4 0.43177,-1.104834 z m 0.707,0.75436 c 0.13586,-0.344947 1.17717,-3.008396 1.21373,-3.104503 l 0.02,-0.05262 h -0.32301 -0.32302 l -0.0956,0.251401 c -0.10547,0.277244 -0.46799,1.20485 -0.94821,2.426306 -0.17193,0.43732 -0.30824,0.803319 -0.3029,0.813333 0.005,0.01001 0.14826,0.01527 0.31759,0.01169 l 0.30788,-0.0065 z m 1.13045,-0.327406 c 0.89486,-2.288166 1.08668,-2.783359 1.08668,-2.805248 0,-0.01581 -0.11034,-0.02447 -0.3118,-0.02447 h -0.31181 l -0.669,1.713031 c -0.36795,0.942166 -0.67614,1.731752 -0.68486,1.754634 -0.0148,0.03883 0.006,0.04117 0.30713,0.03508 l 0.323,-0.0065 z m 1.04285,-0.105237 c 0.56784,-1.448155 1.03234,-2.642568 1.04362,-2.683553 0.0103,-0.03751 -0.0151,-0.04093 -0.30477,-0.04093 h -0.31604 l -0.15333,0.391717 c -0.63823,1.630415 -1.20787,3.094843 -1.20787,3.105161 0,0.0068 0.14306,0.0094 0.3179,0.0058 l 0.31788,-0.0065 z m 0.90697,0.245554 c 0.24627,-0.632338 0.71504,-1.831519 0.95533,-2.443846 0.0959,-0.244384 0.17972,-0.462752 0.18627,-0.485261 0.0109,-0.03755 -0.0142,-0.04093 -0.30398,-0.04093 h -0.3159 l -0.0401,0.09939 c -0.12245,0.303621 -1.30579,3.333374 -1.31556,3.368275 -0.0108,0.03864 0.0111,0.04114 0.30868,0.03508 l 0.32032,-0.0065 z m 0.80355,0.508647 c 0.0339,-0.08779 0.72459,-1.857897 1.01362,-2.597645 0.18507,-0.473676 0.33649,-0.865982 0.33649,-0.871791 0,-0.0058 -0.14343,-0.0076 -0.31873,-0.0041 l -0.31874,0.0065 -0.11483,0.292326 c -0.36972,0.94114 -1.22002,3.128375 -1.22961,3.162968 -0.0104,0.03752 0.0149,0.04093 0.30458,0.04093 0.23114,0 0.31897,-0.0078 0.32722,-0.02923 z m 1.05316,-0.128623 c 0.0717,-0.184726 1.27845,-3.27735 1.29611,-3.321502 0.009,-0.02361 -0.0561,-0.02854 -0.31108,-0.02339 l -0.32306,0.0065 -0.24182,0.619731 c -0.133,0.340853 -0.43613,1.117065 -0.67362,1.724917 -0.23748,0.607851 -0.43179,1.115622 -0.43179,1.128378 0,0.01418 0.12132,0.02319 0.31202,0.02319 h 0.31202 z m 0.96374,0.08185 c 0.019,-0.0418 0.12288,-0.302265 0.23077,-0.578806 0.89598,-2.296641 1.09026,-2.800142 1.09026,-2.825455 0,-0.02195 -0.0752,-0.02742 -0.30904,-0.02248 l -0.30905,0.0065 -0.33495,0.853592 c -0.7208,1.836835 -1.01139,2.588117 -1.01139,2.614802 0,0.02008 0.0847,0.02782 0.3044,0.02782 h 0.3044 z m 1.24472,-0.613885 c 0.8085,-2.070843 1.08191,-2.77761 1.08191,-2.796727 0,-0.01173 -0.1391,-0.02126 -0.30986,-0.02122 l -0.30987,7.2e-5 -0.37154,0.95291 c -0.20435,0.524101 -0.50691,1.298961 -0.67235,1.721912 -0.16545,0.422951 -0.30081,0.783694 -0.30081,0.801653 0,0.02662 0.057,0.03145 0.30887,0.02613 l 0.30886,-0.0065 z m 0.89966,0.257247 c 0.09,-0.231522 0.39034,-0.999755 0.66743,-1.707184 0.27709,-0.707429 0.50877,-1.304651 0.51484,-1.32716 0.0101,-0.0375 -0.0154,-0.04093 -0.30469,-0.04093 h -0.31573 l -0.0588,0.157856 c -0.0417,0.112106 -1.13428,2.910578 -1.29673,3.321502 -0.009,0.0236 0.0559,0.02853 0.30911,0.02339 l 0.32094,-0.0065 z m 0.84368,0.40341 c 0.006,-0.01608 0.19167,-0.490069 0.41175,-1.053313 l 0.40015,-1.02408 V 18.88123 c 0,-0.671852 -0.002,-0.700643 -0.0443,-0.700643 -0.0243,0 -0.0494,0.01316 -0.0556,0.02923 -0.006,0.01608 -0.29253,0.750109 -0.6362,1.631179 -0.63607,1.630723 -0.71383,1.831314 -0.71385,1.841654 0,0.0032 0.14093,0.0058 0.3132,0.0058 0.22878,0 0.31634,-0.0079 0.32483,-0.02923 z m 0.8119,-0.535931 c 0,-0.31084 -0.005,-0.560522 -0.0103,-0.55485 -0.0143,0.01426 -0.43402,1.080327 -0.43402,1.102283 0,0.0098 0.1,0.01773 0.22216,0.01773 h 0.22217 z"
       id="path15633-2" />
    <path
       style="fill:#01949a;fill-opacity:1;fill-rule:nonzero;stroke:none;stroke-width:0.0234229;stroke-miterlimit:1;stroke-dasharray:none;paint-order:markers fill stroke"
       d="m 161.46229,31.643234 v 0.09286 l 0.30661,0.0065 0.3066,0.0065 0.27415,0.701582 c 0.15078,0.38587 0.45106,1.154103 0.66728,1.707184 0.21623,0.553081 0.39812,1.024018 0.40419,1.046527 0.0101,0.0375 -0.0154,0.04093 -0.30498,0.04093 h -0.31603 l -0.16274,-0.415103 c -0.0895,-0.228307 -0.38789,-0.990828 -0.66307,-1.694493 l -0.50032,-1.27939 -0.006,0.443794 -0.006,0.443794 0.47992,1.226976 c 0.26396,0.674837 0.47993,1.237651 0.47993,1.250699 0,0.01486 -0.1167,0.02372 -0.31218,0.02372 h -0.31217 l -0.14756,-0.380024 c -0.0812,-0.209013 -0.1561,-0.395809 -0.16653,-0.415103 -0.0104,-0.01929 -0.0193,0.204336 -0.0197,0.496955 l -8e-4,0.532033 h 7.79926 c 7.76808,0 7.79945,-1.87e-4 7.84603,-0.04677 0.046,-0.046 0.0468,-0.07795 0.0468,-1.927439 0,-1.034367 -0.006,-1.897314 -0.0142,-1.917659 -0.0129,-0.03363 -0.72599,-0.03699 -7.84603,-0.03699 h -7.83183 z m 1.64877,0.193614 c 0.0972,0.240286 1.29293,3.308633 1.30804,3.356574 l 0.0168,0.05329 -0.31962,-0.0065 -0.31962,-0.0065 -0.4658,-1.192691 c -0.25618,-0.655979 -0.56042,-1.434736 -0.67608,-1.73057 -0.11565,-0.295834 -0.21028,-0.545773 -0.21028,-0.555419 1e-5,-0.0096 0.14094,-0.01754 0.31318,-0.01754 h 0.31317 z m 1.01352,0.02339 c 0.0255,0.06753 0.10411,0.270109 0.17464,0.450182 0.59571,1.520817 1.13871,2.915592 1.13871,2.924937 0,0.0062 -0.14394,0.0084 -0.31986,0.0048 l -0.31985,-0.0065 -0.0418,-0.105238 c -0.29436,-0.741464 -1.30633,-3.350377 -1.30633,-3.367788 0,-0.01418 0.12199,-0.02319 0.31403,-0.02319 h 0.31403 z M 165.25,32.17595 c 0.094,0.241169 0.40097,1.02692 0.6822,1.746113 0.28123,0.719192 0.51132,1.311449 0.51132,1.316127 0,0.0047 -0.14406,0.0056 -0.32013,0.002 l -0.32013,-0.0065 -0.0885,-0.222168 c -0.27213,-0.683024 -1.23726,-3.167093 -1.24957,-3.216145 l -0.0145,-0.05791 h 0.31424 0.31425 z m 1.26281,0.666662 c 0.36741,0.940144 0.89042,2.275491 0.92963,2.373529 0.009,0.02255 -0.0624,0.02919 -0.31237,0.02906 l -0.32406,-1.73e-4 -0.15658,-0.403237 c -0.0861,-0.22178 -0.38495,-0.987304 -0.66407,-1.701164 -0.27911,-0.71386 -0.51244,-1.321606 -0.51849,-1.350546 -0.011,-0.0525 -0.0103,-0.05262 0.30158,-0.05246 l 0.31259,1.64e-4 0.43177,1.104834 z m 0.707,-0.75436 c 0.13587,0.344947 1.17717,3.008396 1.21374,3.104503 l 0.02,0.05262 h -0.32302 -0.32301 l -0.0956,-0.251401 c -0.10548,-0.277244 -0.46799,-1.20485 -0.94821,-2.426306 -0.17194,-0.43732 -0.30824,-0.803319 -0.3029,-0.813333 0.005,-0.01001 0.14825,-0.01527 0.31758,-0.01169 l 0.30788,0.0065 z m 1.13046,0.327406 c 0.89485,2.288166 1.08667,2.783359 1.08667,2.805248 0,0.01581 -0.11034,0.02447 -0.3118,0.02447 h -0.31181 l -0.669,-1.713031 c -0.36795,-0.942166 -0.67614,-1.731752 -0.68486,-1.754634 -0.0148,-0.03882 0.006,-0.04117 0.30713,-0.03508 l 0.32301,0.0065 z m 1.04285,0.105237 c 0.56783,1.448155 1.03233,2.642568 1.04361,2.683553 0.0103,0.03751 -0.0151,0.04093 -0.30477,0.04093 h -0.31603 l -0.15334,-0.391717 c -0.63822,-1.630415 -1.20786,-3.094843 -1.20786,-3.105161 0,-0.0068 0.14305,-0.0094 0.31789,-0.0058 l 0.31789,0.0065 z m 0.90697,-0.245554 c 0.24626,0.632338 0.71503,1.831519 0.95532,2.443846 0.0959,0.244384 0.17973,0.462752 0.18628,0.485261 0.0109,0.03755 -0.0142,0.04093 -0.30399,0.04093 h -0.3159 l -0.0401,-0.09939 c -0.12245,-0.303621 -1.30578,-3.333374 -1.31555,-3.368275 -0.0108,-0.03865 0.0111,-0.04114 0.30867,-0.03508 l 0.32032,0.0065 z m 0.80354,-0.508647 c 0.0339,0.08779 0.7246,1.857897 1.01362,2.597645 0.18508,0.473676 0.3365,0.865982 0.3365,0.871791 0,0.0058 -0.14343,0.0076 -0.31874,0.0041 l -0.31873,-0.0065 -0.11484,-0.292326 c -0.36972,-0.94114 -1.22001,-3.128375 -1.22961,-3.162968 -0.0104,-0.03752 0.0149,-0.04092 0.30458,-0.04092 0.23115,0 0.31897,0.0078 0.32722,0.02923 z m 1.05316,0.128623 c 0.0717,0.184726 1.27845,3.27735 1.29612,3.321502 0.009,0.02361 -0.0561,0.02854 -0.31109,0.02339 l -0.32305,-0.0065 -0.24182,-0.619731 c -0.13301,-0.340853 -0.43613,-1.117065 -0.67362,-1.724917 -0.23749,-0.607851 -0.4318,-1.115622 -0.4318,-1.128378 0,-0.01418 0.12133,-0.02319 0.31202,-0.02319 h 0.31202 z m 0.96375,-0.08185 c 0.019,0.0418 0.12288,0.302265 0.23076,0.578806 0.89598,2.296641 1.09027,2.800142 1.09027,2.825455 0,0.02195 -0.0752,0.02742 -0.30905,0.02248 l -0.30904,-0.0065 -0.33496,-0.853592 c -0.7208,-1.836835 -1.01138,-2.588117 -1.01138,-2.614802 0,-0.02008 0.0847,-0.02782 0.30439,-0.02782 h 0.3044 z m 1.24471,0.61388 c 0.8085,2.070843 1.08192,2.77761 1.08192,2.796727 0,0.01173 -0.13911,0.02126 -0.30987,0.02122 l -0.30986,-7.2e-5 -0.37155,-0.95291 c -0.20435,-0.524101 -0.50691,-1.298961 -0.67235,-1.721912 -0.16544,-0.422951 -0.3008,-0.783694 -0.3008,-0.801653 0,-0.02662 0.057,-0.03145 0.30886,-0.02612 l 0.30887,0.0065 z m 0.89967,-0.257247 c 0.09,0.231522 0.39033,0.999755 0.66742,1.707184 0.2771,0.707429 0.50877,1.304651 0.51485,1.32716 0.0101,0.0375 -0.0154,0.04093 -0.3047,0.04093 h -0.31573 l -0.0588,-0.157856 c -0.0417,-0.112106 -1.13428,-2.910578 -1.29672,-3.321502 -0.009,-0.0236 0.0559,-0.02853 0.30911,-0.02339 l 0.32093,0.0065 z m 0.84367,-0.40341 c 0.006,0.01608 0.19168,0.490069 0.41176,1.053313 l 0.40014,1.02408 v 0.700644 c 0,0.671852 -0.002,0.700643 -0.0443,0.700643 -0.0243,0 -0.0494,-0.01315 -0.0556,-0.02923 -0.006,-0.01608 -0.29252,-0.750109 -0.63619,-1.631179 -0.63608,-1.630723 -0.71383,-1.831314 -0.71385,-1.841654 -1e-5,-0.0032 0.14093,-0.0058 0.31319,-0.0058 0.22879,0 0.31634,0.0079 0.32483,0.02923 z m 0.8119,0.535931 c 0,0.31084 -0.005,0.560522 -0.0103,0.55485 -0.0143,-0.01426 -0.43402,-1.080327 -0.43402,-1.102283 0,-0.0098 0.1,-0.01773 0.22217,-0.01773 h 0.22216 z"
       id="path15633-8-6" />
    <text
       xml:space="preserve"
       style="font-size:2.82222px;fill:#000000;stroke-width:0.264583"
       x="167.20064"
       y="16.860344"
       id="text8-0"><tspan
         sodipodi:role="line"
         id="tspan8-09"
         style="font-size:2.82222px;stroke-width:0.264583"
         x="167.20064"
         y="16.860344">LB</tspan></text>
    <text
       xml:space="preserve"
       style="font-size:2.82222px;fill:#000000;stroke-width:0.264583"
       x="167.13397"
       y="38.617512"
       id="text9-7-56"><tspan
         sodipodi:role="line"
         id="tspan9-4-3"
         style="font-size:2.82222px;stroke-width:0.264583"
         x="167.13397"
         y="38.617512">VB</tspan></text>
    <path
       style="fill:#ffffff;fill-opacity:1;stroke:#000000;stroke-width:0.300001;stroke-linecap:butt;stroke-linejoin:round;stroke-dasharray:none;stroke-dashoffset:0;stroke-opacity:1;marker-start:url(#ArrowWide-9-0);marker-end:url(#ArrowWide-9-0)"
       d="m 169.06824,31.176908 c 0,-9.07583 0,-9.07583 0,-9.07583"
       id="path3-4-0-2-3-1-3-6-4-9-0" />
    <text
       xml:space="preserve"
       style="font-size:2.82222px;text-align:start;text-anchor:start;fill:#000000;fill-opacity:1;stroke-width:0.3;stroke-dasharray:none"
       x="170.05106"
       y="27.646526"
       id="text14-5-6"><tspan
         sodipodi:role="line"
         id="tspan14-0-4"
         style="font-size:2.82222px;text-align:start;text-anchor:start;stroke-width:0.3"
         x="170.05106"
         y="27.646526">$E_\text{G}&gt;3\,\mathrm{eV}$</tspan></text>
  </g>
</svg>
